SplineFontDB: 3.2
FontName: Vazirmatn-UI-Bold
FullName: Vazirmatn UI Bold
FamilyName: Vazirmatn UI
Weight: Bold
Copyright: Copyright 2015 The Vazirmatn Project Authors (https://github.com/rastikerdar/vazirmatn)
Version: 33.003
ItalicAngle: 0
UnderlinePosition: -780
UnderlineWidth: 100
Ascent: 1638
Descent: 410
InvalidEm: 0
sfntRevision: 0x002100c5
LayerCount: 2
Layer: 0 1 "Back" 1
Layer: 1 1 "Fore" 0
XUID: [1021 361 -1614679662 15342667]
StyleMap: 0x0020
FSType: 0
OS2Version: 4
OS2_WeightWidthSlopeOnly: 0
OS2_UseTypoMetrics: 1
CreationTime: 1431850356
ModificationTime: 1724682769
PfmFamily: 81
TTFWeight: 700
TTFWidth: 5
LineGap: 0
VLineGap: 0
Panose: 0 0 0 0 0 0 0 0 0 0
OS2TypoAscent: 1950
OS2TypoAOffset: 0
OS2TypoDescent: -970
OS2TypoDOffset: 0
OS2TypoLinegap: 0
OS2WinAscent: 1950
OS2WinAOffset: 0
OS2WinDescent: 970
OS2WinDOffset: 0
HheadAscent: 2100
HheadAOffset: 0
HheadDescent: -1100
HheadDOffset: 0
OS2SubXSize: 1331
OS2SubYSize: 1433
OS2SubXOff: 0
OS2SubYOff: 286
OS2SupXSize: 1331
OS2SupYSize: 1433
OS2SupXOff: 0
OS2SupYOff: 983
OS2StrikeYSize: 102
OS2StrikeYPos: 530
OS2CapHeight: 1638
OS2XHeight: 1082
OS2Vendor: '    '
OS2CodePages: 00000041.20080000
OS2UnicodeRanges: 80002003.80000000.00000008.00000000
Lookup: 1 0 0 "'c2sc' Capitals to Small Capitals lookup 0" { "'c2sc' Capitals to Small Capitals lookup 0 subtable"  } ['c2sc' ('DFLT' <'dflt' > 'cyrl' <'dflt' > 'grek' <'dflt' > 'latn' <'AZE ' 'CRT ' 'FRA ' 'MOL ' 'NAV ' 'ROM ' 'TRK ' 'dflt' > ) ]
Lookup: 1 0 0 "'smcp' Lowercase to Small Capitals lookup 1" { "'smcp' Lowercase to Small Capitals lookup 1 subtable"  } ['smcp' ('DFLT' <'dflt' > 'cyrl' <'dflt' > 'grek' <'dflt' > 'latn' <'AZE ' 'CRT ' 'FRA ' 'MOL ' 'NAV ' 'ROM ' 'TRK ' 'dflt' > ) ]
Lookup: 1 0 0 "'unic' Unicase lookup 2" { "'unic' Unicase lookup 2 subtable"  } ['unic' ('DFLT' <'dflt' > 'cyrl' <'dflt' > 'grek' <'dflt' > 'latn' <'AZE ' 'CRT ' 'FRA ' 'MOL ' 'NAV ' 'ROM ' 'TRK ' 'dflt' > ) ]

StartChar: A
Encoding: 65 65 2
Width: 1376
VWidth: 1798
GlyphClass: 2
Flags: W
AnchorPoint: "Anchor-1" 686 -250 basechar 0
AnchorPoint: "Anchor-0" 672 1351 basechar 0
LayerCount: 2
Fore
SplineSet
1051 -250 m 1,0,-1
 950 57 l 1,1,-1
 427 57 l 1,2,-1
 326 -250 l 1,3,-1
 7 -250 l 1,4,-1
 548 1206 l 1,5,-1
 827 1206 l 1,6,-1
 1371 -250 l 1,7,-1
 1051 -250 l 1,0,-1
504 292 m 1,8,-1
 873 292 l 1,9,-1
 688 853 l 1,10,-1
 504 292 l 1,8,-1
EndSplineSet
Substitution2: "'unic' Unicase lookup 2 subtable" A.unic
Substitution2: "'c2sc' Capitals to Small Capitals lookup 0 subtable" A.smcp
Position2: "'cpsp' Capital Spacing lookup 0 subtable" dx=36 dy=0 dh=72 dv=0
EndChar

StartChar: A.smcp
Encoding: 65537 -1 3
Width: 1195
GlyphClass: 2
Flags: W
AnchorPoint: "Anchor-1" 592 0 basechar 0
AnchorPoint: "Anchor-0" 581 1320 basechar 0
LayerCount: 2
Fore
SplineSet
905 0 m 1,0,-1
 821 228 l 1,1,-1
 371 228 l 1,2,-1
 289 0 l 1,3,-1
 -2 0 l 1,4,-1
 458 1165 l 1,5,-1
 732 1165 l 1,6,-1
 1195 0 l 1,7,-1
 905 0 l 1,0,-1
445 433 m 1,8,-1
 746 433 l 1,9,-1
 594 848 l 1,10,-1
 445 433 l 1,8,-1
EndSplineSet
EndChar

StartChar: A.unic
Encoding: 65538 -1 4
Width: 1387
GlyphClass: 2
Flags: W
AnchorPoint: "Anchor-1" 682 0 basechar 0
AnchorPoint: "Anchor-0" 701 1632 basechar 0
LayerCount: 2
Fore
SplineSet
998 0 m 1,0,1
 977 49 977 49 967 129 c 1,2,3
 908 69 908 69 810 24.5 c 128,-1,4
 712 -20 712 -20 560 -20 c 0,5,6
 427 -20 427 -20 319 32.5 c 128,-1,7
 211 85 211 85 148 183.5 c 128,-1,8
 85 282 85 282 85 418 c 0,9,10
 85 629 85 629 234.5 741.5 c 128,-1,11
 384 854 384 854 712 854 c 2,12,-1
 957 854 l 1,13,-1
 957 971 l 2,14,15
 957 1096 957 1096 892.5 1169 c 128,-1,16
 828 1242 828 1242 685 1242 c 0,17,18
 551 1242 551 1242 480.5 1184.5 c 128,-1,19
 410 1127 410 1127 410 1008 c 1,20,-1
 112 1008 l 1,21,22
 112 1143 112 1143 182 1249 c 128,-1,23
 252 1355 252 1355 383.5 1416 c 128,-1,24
 515 1477 515 1477 699 1477 c 0,25,26
 860 1477 860 1477 985.5 1420.5 c 128,-1,27
 1111 1364 1111 1364 1183.5 1251.5 c 128,-1,28
 1256 1139 1256 1139 1256 969 c 2,29,-1
 1256 296 l 2,30,31
 1256 193 1256 193 1267.5 128.5 c 128,-1,32
 1279 64 1279 64 1299 17 c 1,33,-1
 1299 0 l 1,34,-1
 998 0 l 1,0,1
620 216 m 0,35,36
 701 216 701 216 769.5 243 c 128,-1,37
 838 270 838 270 886.5 310.5 c 128,-1,38
 935 351 935 351 957 394 c 1,39,-1
 957 627 l 1,40,-1
 720 627 l 2,41,42
 537 627 537 627 460.5 576 c 128,-1,43
 384 525 384 525 384 424 c 0,44,45
 384 327 384 327 448 271.5 c 128,-1,46
 512 216 512 216 620 216 c 0,35,36
EndSplineSet
EndChar

StartChar: AE
Encoding: 198 198 5
Width: 1922
VWidth: 1798
GlyphClass: 2
Flags: W
AnchorPoint: "Anchor-0" 939 1362 basechar 0
LayerCount: 2
Fore
SplineSet
1861 -22 m 1,0,-1
 1861 -250 l 1,1,-1
 968 -250 l 1,2,-1
 954 87 l 1,3,-1
 512 87 l 1,4,-1
 343 -250 l 1,5,-1
 6 -250 l 1,6,-1
 788 1206 l 1,7,-1
 1800 1206 l 1,8,-1
 1800 978 l 1,9,-1
 1206 978 l 1,10,-1
 1221 612 l 1,11,-1
 1719 612 l 1,12,-1
 1719 385 l 1,13,-1
 1230 385 l 1,14,-1
 1247 -22 l 1,15,-1
 1861 -22 l 1,0,-1
632 326 m 1,16,-1
 944 326 l 1,17,-1
 920 901 l 1,18,-1
 632 326 l 1,16,-1
EndSplineSet
Substitution2: "'c2sc' Capitals to Small Capitals lookup 0 subtable" AE.smcp
Position2: "'cpsp' Capital Spacing lookup 0 subtable" dx=36 dy=0 dh=72 dv=0
EndChar

StartChar: AE.smcp
Encoding: 65539 -1 6
Width: 1616
GlyphClass: 2
Flags: W
AnchorPoint: "Anchor-1" 896 0 basechar 0
AnchorPoint: "Anchor-0" 896 1290 basechar 0
LayerCount: 2
Fore
SplineSet
1555 223 m 1,0,-1
 1555 0 l 1,1,-1
 734 0 l 1,2,-1
 725 232 l 1,3,-1
 377 232 l 1,4,-1
 270 0 l 1,5,-1
 -44 0 l 1,6,-1
 541 1165 l 1,7,-1
 1510 1165 l 1,8,-1
 1510 942 l 1,9,-1
 985 942 l 1,10,-1
 994 718 l 1,11,-1
 1449 718 l 1,12,-1
 1449 494 l 1,13,-1
 1002 494 l 1,14,-1
 1013 223 l 1,15,-1
 1555 223 l 1,0,-1
480 453 m 1,16,-1
 717 453 l 1,17,-1
 700 928 l 1,18,-1
 480 453 l 1,16,-1
EndSplineSet
EndChar

StartChar: Aogonek
Encoding: 260 260 27
Width: 1376
VWidth: 1798
GlyphClass: 2
Flags: W
AnchorPoint: "Anchor-1" 686 -250 basechar 0
AnchorPoint: "Anchor-0" 672 1351 basechar 0
LayerCount: 2
Fore
SplineSet
7 -250 m 1,0,-1
 548 1206 l 1,1,-1
 827 1206 l 1,2,-1
 1371 -250 l 1,3,-1
 1286 -250 l 1,4,5
 1210 -293 1210 -293 1170.5 -334.5 c 128,-1,6
 1131 -376 1131 -376 1131 -431 c 0,7,8
 1131 -459 1131 -459 1146 -477.5 c 128,-1,9
 1161 -496 1161 -496 1197 -496 c 0,10,11
 1226 -496 1226 -496 1244.5 -489 c 128,-1,12
 1263 -482 1263 -482 1276 -475 c 1,13,-1
 1307 -628 l 1,14,15
 1282 -643 1282 -643 1242.5 -657.5 c 128,-1,16
 1203 -672 1203 -672 1143 -672 c 0,17,18
 1049 -672 1049 -672 982.5 -619.5 c 128,-1,19
 916 -567 916 -567 916 -466 c 0,20,21
 916 -406 916 -406 945 -348.5 c 128,-1,22
 974 -291 974 -291 1048 -240 c 1,23,-1
 950 57 l 1,24,-1
 427 57 l 1,25,-1
 326 -250 l 1,26,-1
 7 -250 l 1,0,-1
504 292 m 1,27,-1
 873 292 l 1,28,-1
 688 853 l 1,29,-1
 504 292 l 1,27,-1
EndSplineSet
Substitution2: "'locl' Localized Forms in Latin lookup 8 subtable" Aogonek.NAV
Substitution2: "'unic' Unicase lookup 2 subtable" Aogonek.unic
Substitution2: "'c2sc' Capitals to Small Capitals lookup 0 subtable" Aogonek.smcp
Position2: "'cpsp' Capital Spacing lookup 0 subtable" dx=36 dy=0 dh=72 dv=0
EndChar

StartChar: Aogonek.smcp
Encoding: 65554 -1 29
Width: 1195
GlyphClass: 2
Flags: W
AnchorPoint: "Anchor-1" 592 0 basechar 0
AnchorPoint: "Anchor-0" 581 1320 basechar 0
LayerCount: 2
Fore
SplineSet
-2 0 m 1,0,-1
 458 1165 l 1,1,-1
 732 1165 l 1,2,-1
 1195 0 l 1,3,-1
 1132 0 l 1,4,5
 1057 -43 1057 -43 1017.5 -84.5 c 128,-1,6
 978 -126 978 -126 978 -181 c 0,7,8
 978 -209 978 -209 992.5 -227.5 c 128,-1,9
 1007 -246 1007 -246 1044 -246 c 0,10,11
 1072 -246 1072 -246 1091 -239 c 128,-1,12
 1110 -232 1110 -232 1123 -225 c 1,13,-1
 1154 -378 l 1,14,15
 1129 -393 1129 -393 1089.5 -407.5 c 128,-1,16
 1050 -422 1050 -422 989 -422 c 0,17,18
 895 -422 895 -422 829 -369.5 c 128,-1,19
 763 -317 763 -317 763 -216 c 0,20,21
 763 -155 763 -155 793 -96.5 c 128,-1,22
 823 -38 823 -38 900 14 c 1,23,-1
 821 228 l 1,24,-1
 371 228 l 1,25,-1
 289 0 l 1,26,-1
 -2 0 l 1,0,-1
445 433 m 1,27,-1
 746 433 l 1,28,-1
 594 848 l 1,29,-1
 445 433 l 1,27,-1
EndSplineSet
Substitution2: "'locl' Localized Forms in Latin lookup 8 subtable" Aogonek.smcp.NAV
EndChar

StartChar: B
Encoding: 66 66 41
Width: 1307
VWidth: 1798
GlyphClass: 2
Flags: W
AnchorPoint: "Anchor-1" 613 -240 basechar 0
AnchorPoint: "Anchor-0" 606 1362 basechar 0
LayerCount: 2
Fore
SplineSet
687 -250 m 2,0,-1
 130 -250 l 1,1,-1
 130 1206 l 1,2,-1
 638 1206 l 2,3,4
 892 1206 892 1206 1036 1109 c 128,-1,5
 1180 1012 1180 1012 1180 809 c 0,6,7
 1180 709 1180 709 1129.5 625.5 c 128,-1,8
 1079 542 1079 542 969 500 c 1,9,10
 1099 468 1099 468 1156 376 c 128,-1,11
 1213 284 1213 284 1213 177 c 0,12,13
 1213 -34 1213 -34 1077 -142 c 128,-1,14
 941 -250 941 -250 687 -250 c 2,0,-1
638 971 m 2,15,-1
 430 971 l 1,16,-1
 430 595 l 1,17,-1
 638 595 l 2,18,19
 880 595 880 595 880 781 c 0,20,21
 880 882 880 882 821.5 926.5 c 128,-1,22
 763 971 763 971 638 971 c 2,15,-1
914 180 m 0,23,24
 914 276 914 276 864.5 332.5 c 128,-1,25
 815 389 815 389 700 389 c 2,26,-1
 430 389 l 1,27,-1
 430 -16 l 1,28,-1
 687 -16 l 2,29,30
 804 -16 804 -16 859 39.5 c 128,-1,31
 914 95 914 95 914 180 c 0,23,24
EndSplineSet
Substitution2: "'c2sc' Capitals to Small Capitals lookup 0 subtable" B.smcp
Position2: "'cpsp' Capital Spacing lookup 0 subtable" dx=36 dy=0 dh=72 dv=0
EndChar

StartChar: B.smcp
Encoding: 65563 -1 42
Width: 1133
GlyphClass: 2
Flags: W
AnchorPoint: "Anchor-1" 536 10 basechar 0
AnchorPoint: "Anchor-0" 529 1320 basechar 0
LayerCount: 2
Fore
SplineSet
593 0 m 2,0,-1
 100 0 l 1,1,-1
 100 1165 l 1,2,-1
 548 1165 l 2,3,4
 776 1165 776 1165 904.5 1086 c 128,-1,5
 1033 1007 1033 1007 1033 844 c 0,6,7
 1033 765 1033 765 992 695.5 c 128,-1,8
 951 626 951 626 855 592 c 1,9,10
 966 566 966 566 1012.5 489.5 c 128,-1,11
 1059 413 1059 413 1059 334 c 0,12,13
 1059 162 1059 162 940.5 81 c 128,-1,14
 822 0 822 0 593 0 c 2,0,-1
571 940 m 2,15,-1
 388 940 l 1,16,-1
 388 679 l 1,17,-1
 567 679 l 2,18,19
 743 679 743 679 743 806 c 0,20,21
 743 877 743 877 700 908.5 c 128,-1,22
 657 940 657 940 571 940 c 2,15,-1
771 353 m 0,23,24
 771 416 771 416 733 453 c 128,-1,25
 695 490 695 490 606 490 c 2,26,-1
 388 490 l 1,27,-1
 388 224 l 1,28,-1
 593 224 l 2,29,30
 688 224 688 224 729.5 262.5 c 128,-1,31
 771 301 771 301 771 353 c 0,23,24
EndSplineSet
EndChar

StartChar: C
Encoding: 67 67 43
Width: 1340
VWidth: 1798
GlyphClass: 2
Flags: W
AnchorPoint: "Anchor-1" 680 -260 basechar 0
AnchorPoint: "Anchor-0" 680 1383 basechar 0
LayerCount: 2
Fore
SplineSet
974 233 m 1,0,-1
 1273 233 l 1,1,2
 1264 86 1264 86 1192 -27.5 c 128,-1,3
 1120 -141 1120 -141 992.5 -205.5 c 128,-1,4
 865 -270 865 -270 687 -270 c 0,5,6
 500 -270 500 -270 365.5 -185 c 128,-1,7
 231 -100 231 -100 158.5 56.5 c 128,-1,8
 86 213 86 213 86 427 c 2,9,-1
 86 528 l 2,10,11
 86 742 86 742 160.5 899 c 128,-1,12
 235 1056 235 1056 370.5 1141.5 c 128,-1,13
 506 1227 506 1227 689 1227 c 0,14,15
 871 1227 871 1227 996.5 1161 c 128,-1,16
 1122 1095 1122 1095 1191.5 979.5 c 128,-1,17
 1261 864 1261 864 1275 715 c 1,18,-1
 976 715 l 1,19,20
 966 847 966 847 902 918 c 128,-1,21
 838 989 838 989 689 989 c 0,22,23
 389 989 389 989 389 530 c 2,24,-1
 389 427 l 2,25,26
 389 201 389 201 458 84 c 128,-1,27
 527 -33 527 -33 687 -33 c 0,28,29
 827 -33 827 -33 895.5 33.5 c 128,-1,30
 964 100 964 100 974 233 c 1,0,-1
EndSplineSet
Substitution2: "'c2sc' Capitals to Small Capitals lookup 0 subtable" C.smcp
Position2: "'cpsp' Capital Spacing lookup 0 subtable" dx=36 dy=0 dh=72 dv=0
EndChar

StartChar: C.smcp
Encoding: 65564 -1 44
Width: 1155
GlyphClass: 2
Flags: W
AnchorPoint: "Anchor-1" 586 -4 basechar 0
AnchorPoint: "Anchor-0" 587 1320 basechar 0
LayerCount: 2
Fore
SplineSet
816 397 m 1,0,-1
 1105 397 l 1,1,2
 1094 211 1094 211 957.5 97.5 c 128,-1,3
 821 -16 821 -16 591 -16 c 0,4,5
 342 -16 342 -16 203 136 c 128,-1,6
 64 288 64 288 64 553 c 2,7,-1
 64 611 l 2,8,9
 64 788 64 788 129 916 c 128,-1,10
 194 1044 194 1044 311.5 1113 c 128,-1,11
 429 1182 429 1182 587 1182 c 0,12,13
 749 1182 749 1182 860.5 1127 c 128,-1,14
 972 1072 972 1072 1033.5 976.5 c 128,-1,15
 1095 881 1095 881 1106 759 c 1,16,-1
 818 759 l 1,17,18
 814 842 814 842 762.5 899.5 c 128,-1,19
 711 957 711 957 587 957 c 0,20,21
 352 957 352 957 352 612 c 2,22,-1
 352 553 l 2,23,24
 352 378 352 378 408 293 c 128,-1,25
 464 208 464 208 591 208 c 0,26,27
 807 208 807 208 816 397 c 1,0,-1
EndSplineSet
EndChar

StartChar: D
Encoding: 68 68 54
Width: 1331
VWidth: 1798
GlyphClass: 2
Flags: W
AnchorPoint: "Anchor-1" 613 -240 basechar 0
AnchorPoint: "Anchor-0" 609 1362 basechar 0
LayerCount: 2
Fore
SplineSet
577 -250 m 2,0,-1
 130 -250 l 1,1,-1
 130 1206 l 1,2,-1
 580 1206 l 2,3,4
 775 1206 775 1206 925 1119 c 128,-1,5
 1075 1032 1075 1032 1159.5 876 c 128,-1,6
 1244 720 1244 720 1244 512 c 2,7,-1
 1244 443 l 2,8,9
 1244 235 1244 235 1159.5 79.5 c 128,-1,10
 1075 -76 1075 -76 925 -163 c 128,-1,11
 775 -250 775 -250 577 -250 c 2,0,-1
580 971 m 2,12,-1
 430 971 l 1,13,-1
 430 -16 l 1,14,-1
 577 -16 l 2,15,16
 754 -16 754 -16 847 103.5 c 128,-1,17
 940 223 940 223 940 443 c 2,18,-1
 940 514 l 2,19,20
 940 737 940 737 847 854 c 128,-1,21
 754 971 754 971 580 971 c 2,12,-1
EndSplineSet
Substitution2: "'c2sc' Capitals to Small Capitals lookup 0 subtable" D.smcp
Position2: "'cpsp' Capital Spacing lookup 0 subtable" dx=36 dy=0 dh=72 dv=0
EndChar

StartChar: D.smcp
Encoding: 65569 -1 55
Width: 1140
GlyphClass: 2
Flags: W
AnchorPoint: "Anchor-1" 500 10 basechar 0
AnchorPoint: "Anchor-0" 500 1320 basechar 0
LayerCount: 2
Fore
SplineSet
502 0 m 2,0,-1
 100 0 l 1,1,-1
 100 1165 l 1,2,-1
 498 1165 l 2,3,4
 668 1165 668 1165 798 1093.5 c 128,-1,5
 928 1022 928 1022 1002 896 c 128,-1,6
 1076 770 1076 770 1076 606 c 2,7,-1
 1076 558 l 2,8,9
 1076 394 1076 394 1002.5 268 c 128,-1,10
 929 142 929 142 799.5 71 c 128,-1,11
 670 0 670 0 502 0 c 2,0,-1
498 940 m 2,12,-1
 388 940 l 1,13,-1
 388 224 l 1,14,-1
 502 224 l 2,15,16
 656 224 656 224 721.5 308 c 128,-1,17
 787 392 787 392 787 558 c 2,18,-1
 787 608 l 2,19,20
 787 772 787 772 721.5 856 c 128,-1,21
 656 940 656 940 498 940 c 2,12,-1
EndSplineSet
EndChar

StartChar: Dcroat
Encoding: 272 272 58
Width: 1361
VWidth: 1798
GlyphClass: 2
Flags: W
AnchorPoint: "Anchor-1" 613 -240 basechar 0
AnchorPoint: "Anchor-0" 609 1362 basechar 0
LayerCount: 2
Fore
SplineSet
607 -250 m 2,0,-1
 160 -250 l 1,1,-1
 160 395 l 1,2,-1
 11 395 l 1,3,-1
 11 573 l 1,4,-1
 160 573 l 1,5,-1
 160 1206 l 1,6,-1
 610 1206 l 2,7,8
 805 1206 805 1206 955 1119 c 128,-1,9
 1105 1032 1105 1032 1189.5 876 c 128,-1,10
 1274 720 1274 720 1274 512 c 2,11,-1
 1274 443 l 2,12,13
 1274 235 1274 235 1189.5 79.5 c 128,-1,14
 1105 -76 1105 -76 955 -163 c 128,-1,15
 805 -250 805 -250 607 -250 c 2,0,-1
712 573 m 1,16,-1
 712 395 l 1,17,-1
 460 395 l 1,18,-1
 460 -16 l 1,19,-1
 607 -16 l 2,20,21
 784 -16 784 -16 877 103.5 c 128,-1,22
 970 223 970 223 970 443 c 2,23,-1
 970 514 l 2,24,25
 970 737 970 737 877 854 c 128,-1,26
 784 971 784 971 610 971 c 2,27,-1
 460 971 l 1,28,-1
 460 573 l 1,29,-1
 712 573 l 1,16,-1
EndSplineSet
Substitution2: "'c2sc' Capitals to Small Capitals lookup 0 subtable" Dcroat.smcp
Position2: "'cpsp' Capital Spacing lookup 0 subtable" dx=36 dy=0 dh=72 dv=0
EndChar

StartChar: Delta
Encoding: 8710 8710 60
Width: 1499
GlyphClass: 2
Flags: W
LayerCount: 2
Fore
SplineSet
22 0 m 1,0,-1
 601 1456 l 1,1,-1
 914 1456 l 1,2,-1
 1488 0 l 1,3,-1
 22 0 l 1,0,-1
425 234 m 1,4,-1
 1085 234 l 1,5,-1
 757 1112 l 1,6,-1
 425 234 l 1,4,-1
EndSplineSet
Substitution2: "'c2sc' Capitals to Small Capitals lookup 0 subtable" Delta.smcp
Position2: "'cpsp' Capital Spacing lookup 0 subtable" dx=36 dy=0 dh=72 dv=0
EndChar

StartChar: Delta.smcp
Encoding: 65572 -1 61
Width: 1158
GlyphClass: 2
Flags: W
LayerCount: 2
Fore
SplineSet
-2 0 m 1,0,-1
 421 1165 l 1,1,-1
 736 1165 l 1,2,-1
 1161 0 l 1,3,-1
 -2 0 l 1,0,-1
588 853 m 1,4,-1
 578 902 l 1,5,-1
 567 850 l 1,6,-1
 371 225 l 1,7,-1
 787 225 l 1,8,-1
 588 853 l 1,4,-1
EndSplineSet
EndChar

StartChar: E
Encoding: 69 69 62
Width: 1152
VWidth: 1798
GlyphClass: 2
Flags: W
AnchorPoint: "Anchor-1" 619 -240 basechar 0
AnchorPoint: "Anchor-0" 619 1362 basechar 0
LayerCount: 2
Fore
SplineSet
1107 -16 m 1,0,-1
 1107 -250 l 1,1,-1
 130 -250 l 1,2,-1
 130 1206 l 1,3,-1
 1106 1206 l 1,4,-1
 1106 971 l 1,5,-1
 430 971 l 1,6,-1
 430 613 l 1,7,-1
 1006 613 l 1,8,-1
 1006 385 l 1,9,-1
 430 385 l 1,10,-1
 430 -16 l 1,11,-1
 1107 -16 l 1,0,-1
EndSplineSet
Substitution2: "'unic' Unicase lookup 2 subtable" E.unic
Substitution2: "'c2sc' Capitals to Small Capitals lookup 0 subtable" E.smcp
Position2: "'cpsp' Capital Spacing lookup 0 subtable" dx=36 dy=0 dh=72 dv=0
EndChar

StartChar: E.smcp
Encoding: 65573 -1 63
Width: 986
GlyphClass: 2
Flags: W
AnchorPoint: "Anchor-1" 537 8 basechar 0
AnchorPoint: "Anchor-0" 537 1320 basechar 0
LayerCount: 2
Fore
SplineSet
956 224 m 1,0,-1
 956 0 l 1,1,-1
 100 0 l 1,2,-1
 100 1165 l 1,3,-1
 957 1165 l 1,4,-1
 957 940 l 1,5,-1
 388 940 l 1,6,-1
 388 715 l 1,7,-1
 870 715 l 1,8,-1
 870 490 l 1,9,-1
 388 490 l 1,10,-1
 388 224 l 1,11,-1
 956 224 l 1,0,-1
EndSplineSet
EndChar

StartChar: E.unic
Encoding: 65574 -1 64
Width: 1426
GlyphClass: 2
Flags: W
AnchorPoint: "Anchor-1" 743 10 basechar 0
AnchorPoint: "Anchor-0" 735 1643 basechar 0
LayerCount: 2
Fore
SplineSet
750 -21 m 0,0,1
 535 -21 535 -21 386 66 c 128,-1,2
 237 153 237 153 159.5 305.5 c 128,-1,3
 82 458 82 458 82 657 c 2,4,-1
 82 802 l 2,5,6
 82 1001 82 1001 165 1153 c 128,-1,7
 248 1305 248 1305 390 1391 c 128,-1,8
 532 1477 532 1477 709 1476 c 0,9,10
 1014 1475 1014 1475 1172.5 1293.5 c 128,-1,11
 1331 1112 1331 1112 1331 795 c 2,12,-1
 1331 628 l 1,13,-1
 382 628 l 1,14,15
 386 518 386 518 426.5 428.5 c 128,-1,16
 467 339 467 339 550.5 286 c 128,-1,17
 634 233 634 233 767 233 c 0,18,19
 892 233 892 233 973.5 276.5 c 128,-1,20
 1055 320 1055 320 1111 367 c 1,21,-1
 1275 180 l 1,22,23
 1184 110 1184 110 1105.5 65.5 c 128,-1,24
 1027 21 1027 21 943 0 c 128,-1,25
 859 -21 859 -21 750 -21 c 0,0,1
709 1223 m 0,26,27
 608 1223 608 1223 538 1174 c 128,-1,28
 468 1125 468 1125 429.5 1041.5 c 128,-1,29
 391 958 391 958 383 854 c 1,30,-1
 1032 854 l 1,31,-1
 1032 902 l 2,32,33
 1032 992 1032 992 1000 1065 c 128,-1,34
 968 1138 968 1138 897 1180.5 c 128,-1,35
 826 1223 826 1223 709 1223 c 0,26,27
EndSplineSet
EndChar

StartChar: Eng
Encoding: 330 330 89
Width: 1442
VWidth: 1798
GlyphClass: 2
Flags: W
AnchorPoint: "Anchor-1" 720 -240 basechar 0
AnchorPoint: "Anchor-0" 726 1351 basechar 0
LayerCount: 2
Fore
SplineSet
129 1206 m 1,0,-1
 429 1206 l 1,1,-1
 1014 226 l 1,2,-1
 1014 1206 l 1,3,-1
 1314 1206 l 1,4,-1
 1314 -282 l 2,5,6
 1314 -478 1314 -478 1211 -582.5 c 128,-1,7
 1108 -687 1108 -687 926 -687 c 0,8,9
 887 -687 887 -687 852 -683.5 c 128,-1,10
 817 -680 817 -680 778 -670 c 1,11,-1
 792 -441 l 1,12,13
 833 -452 833 -452 891 -452 c 0,14,15
 1014 -452 1014 -452 1014 -282 c 2,16,-1
 1014 -250 l 1,17,-1
 429 733 l 1,18,-1
 429 -250 l 1,19,-1
 129 -250 l 1,20,-1
 129 1206 l 1,0,-1
EndSplineSet
Substitution2: "'c2sc' Capitals to Small Capitals lookup 0 subtable" Eng.smcp
Position2: "'cpsp' Capital Spacing lookup 0 subtable" dx=36 dy=0 dh=72 dv=0
EndChar

StartChar: Eng.smcp
Encoding: 65591 -1 90
Width: 1237
GlyphClass: 2
Flags: W
AnchorPoint: "Anchor-1" 619 4 basechar 0
AnchorPoint: "Anchor-0" 624 1320 basechar 0
LayerCount: 2
Fore
SplineSet
1138 1165 m 1,0,-1
 1138 -39 l 2,1,2
 1138 -232 1138 -232 1036.5 -334.5 c 128,-1,3
 935 -437 935 -437 756 -437 c 0,4,5
 718 -437 718 -437 684 -433.5 c 128,-1,6
 650 -430 650 -430 612 -420 c 1,7,-1
 626 -197 l 1,8,9
 671 -209 671 -209 725 -209 c 0,10,11
 849 -209 849 -209 849 -39 c 2,12,-1
 849 0 l 1,13,-1
 388 742 l 1,14,-1
 388 0 l 1,15,-1
 100 0 l 1,16,-1
 100 1165 l 1,17,-1
 388 1165 l 1,18,-1
 849 423 l 1,19,-1
 849 1165 l 1,20,-1
 1138 1165 l 1,0,-1
EndSplineSet
EndChar

StartChar: Eogonek
Encoding: 280 280 91
Width: 1152
VWidth: 1798
GlyphClass: 2
Flags: W
AnchorPoint: "Anchor-1" 619 -240 basechar 0
AnchorPoint: "Anchor-0" 619 1362 basechar 0
LayerCount: 2
Fore
SplineSet
1107 -16 m 1,0,-1
 1107 -250 l 1,1,-1
 952 -250 l 1,2,3
 877 -293 877 -293 837.5 -334.5 c 128,-1,4
 798 -376 798 -376 798 -431 c 0,5,6
 798 -459 798 -459 812.5 -477.5 c 128,-1,7
 827 -496 827 -496 864 -496 c 0,8,9
 892 -496 892 -496 911 -489 c 128,-1,10
 930 -482 930 -482 943 -475 c 1,11,-1
 974 -628 l 1,12,13
 949 -643 949 -643 909.5 -657.5 c 128,-1,14
 870 -672 870 -672 810 -672 c 0,15,16
 715 -672 715 -672 649 -619.5 c 128,-1,17
 583 -567 583 -567 583 -466 c 0,18,19
 583 -409 583 -409 609 -354 c 128,-1,20
 635 -299 635 -299 701 -250 c 1,21,-1
 130 -250 l 1,22,-1
 130 1206 l 1,23,-1
 1106 1206 l 1,24,-1
 1106 971 l 1,25,-1
 430 971 l 1,26,-1
 430 613 l 1,27,-1
 1006 613 l 1,28,-1
 1006 385 l 1,29,-1
 430 385 l 1,30,-1
 430 -16 l 1,31,-1
 1107 -16 l 1,0,-1
EndSplineSet
Substitution2: "'locl' Localized Forms in Latin lookup 8 subtable" Eogonek.NAV
Substitution2: "'unic' Unicase lookup 2 subtable" Eogonek.unic
Substitution2: "'c2sc' Capitals to Small Capitals lookup 0 subtable" Eogonek.smcp
Position2: "'cpsp' Capital Spacing lookup 0 subtable" dx=36 dy=0 dh=72 dv=0
EndChar

StartChar: Eogonek.smcp
Encoding: 65593 -1 93
Width: 986
GlyphClass: 2
Flags: W
AnchorPoint: "Anchor-1" 537 8 basechar 0
AnchorPoint: "Anchor-0" 537 1320 basechar 0
LayerCount: 2
Fore
SplineSet
956 224 m 1,0,-1
 956 0 l 1,1,-1
 825 0 l 1,2,3
 750 -43 750 -43 710.5 -84.5 c 128,-1,4
 671 -126 671 -126 671 -181 c 0,5,6
 671 -209 671 -209 685.5 -227.5 c 128,-1,7
 700 -246 700 -246 737 -246 c 0,8,9
 765 -246 765 -246 784 -239 c 128,-1,10
 803 -232 803 -232 816 -225 c 1,11,-1
 847 -378 l 1,12,13
 822 -393 822 -393 782.5 -407.5 c 128,-1,14
 743 -422 743 -422 682 -422 c 0,15,16
 588 -422 588 -422 522 -369.5 c 128,-1,17
 456 -317 456 -317 456 -216 c 0,18,19
 456 -159 456 -159 482 -104 c 128,-1,20
 508 -49 508 -49 574 0 c 1,21,-1
 100 0 l 1,22,-1
 100 1165 l 1,23,-1
 957 1165 l 1,24,-1
 957 940 l 1,25,-1
 388 940 l 1,26,-1
 388 715 l 1,27,-1
 870 715 l 1,28,-1
 870 490 l 1,29,-1
 388 490 l 1,30,-1
 388 224 l 1,31,-1
 956 224 l 1,0,-1
EndSplineSet
Substitution2: "'locl' Localized Forms in Latin lookup 8 subtable" Eogonek.smcp.NAV
EndChar

StartChar: Eth
Encoding: 208 208 96
Width: 1361
VWidth: 1798
GlyphClass: 2
Flags: W
AnchorPoint: "Anchor-1" 613 -240 basechar 0
AnchorPoint: "Anchor-0" 609 1362 basechar 0
LayerCount: 2
Fore
SplineSet
607 -250 m 2,0,-1
 160 -250 l 1,1,-1
 160 395 l 1,2,-1
 11 395 l 1,3,-1
 11 573 l 1,4,-1
 160 573 l 1,5,-1
 160 1206 l 1,6,-1
 610 1206 l 2,7,8
 805 1206 805 1206 955 1119 c 128,-1,9
 1105 1032 1105 1032 1189.5 876 c 128,-1,10
 1274 720 1274 720 1274 512 c 2,11,-1
 1274 443 l 2,12,13
 1274 235 1274 235 1189.5 79.5 c 128,-1,14
 1105 -76 1105 -76 955 -163 c 128,-1,15
 805 -250 805 -250 607 -250 c 2,0,-1
712 573 m 1,16,-1
 712 395 l 1,17,-1
 460 395 l 1,18,-1
 460 -16 l 1,19,-1
 607 -16 l 2,20,21
 784 -16 784 -16 877 103.5 c 128,-1,22
 970 223 970 223 970 443 c 2,23,-1
 970 514 l 2,24,25
 970 737 970 737 877 854 c 128,-1,26
 784 971 784 971 610 971 c 2,27,-1
 460 971 l 1,28,-1
 460 573 l 1,29,-1
 712 573 l 1,16,-1
EndSplineSet
Substitution2: "'c2sc' Capitals to Small Capitals lookup 0 subtable" Eth.smcp
Position2: "'cpsp' Capital Spacing lookup 0 subtable" dx=36 dy=0 dh=72 dv=0
EndChar

StartChar: Euro
Encoding: 8364 8364 98
Width: 1175
GlyphClass: 2
Flags: W
LayerCount: 2
Fore
SplineSet
869 213 m 0,0,1
 919 213 919 213 966.5 221 c 128,-1,2
 1014 229 1014 229 1057 245 c 1,3,-1
 1093 11 l 1,4,5
 1034 -3 1034 -3 969 -11 c 128,-1,6
 904 -19 904 -19 837 -19 c 0,7,8
 672 -19 672 -19 543 41 c 128,-1,9
 414 101 414 101 338.5 220.5 c 128,-1,10
 263 340 263 340 258 519 c 1,11,-1
 89 519 l 1,12,-1
 89 667 l 1,13,-1
 258 667 l 1,14,-1
 258 794 l 1,15,-1
 89 794 l 1,16,-1
 89 942 l 1,17,-1
 260 942 l 1,18,19
 271 1118 271 1118 349.5 1236.5 c 128,-1,20
 428 1355 428 1355 559 1415 c 128,-1,21
 690 1475 690 1475 859 1475 c 0,22,23
 918 1475 918 1475 976.5 1466.5 c 128,-1,24
 1035 1458 1035 1458 1093 1444 c 1,25,-1
 1057 1209 l 1,26,27
 1017 1223 1017 1223 969 1232.5 c 128,-1,28
 921 1242 921 1242 874 1242 c 0,29,30
 736 1242 736 1242 654.5 1171.5 c 128,-1,31
 573 1101 573 1101 561 942 c 1,32,-1
 893 942 l 1,33,-1
 893 794 l 1,34,-1
 559 794 l 1,35,-1
 559 667 l 1,36,-1
 893 667 l 1,37,-1
 893 519 l 1,38,-1
 559 519 l 1,39,40
 565 347 565 347 649 280 c 128,-1,41
 733 213 733 213 869 213 c 0,0,1
EndSplineSet
Substitution2: "'c2sc' Capitals to Small Capitals lookup 0 subtable" Euro.smcp
Position2: "'cpsp' Capital Spacing lookup 0 subtable" dx=36 dy=0 dh=72 dv=0
EndChar

StartChar: Euro.smcp
Encoding: 65597 -1 99
Width: 1026
GlyphClass: 2
Flags: W
LayerCount: 2
Fore
SplineSet
731 209 m 0,0,1
 790 209 790 209 835.5 217 c 128,-1,2
 881 225 881 225 932 236 c 1,3,-1
 954 15 l 1,4,5
 898 0 898 0 846 -8 c 128,-1,6
 794 -16 794 -16 731 -16 c 0,7,8
 518 -16 518 -16 385.5 87.5 c 128,-1,9
 253 191 253 191 224 376 c 1,10,-1
 70 376 l 1,11,-1
 70 539 l 1,12,-1
 216 539 l 1,13,-1
 216 618 l 1,14,-1
 70 618 l 1,15,-1
 70 782 l 1,16,-1
 224 782 l 1,17,18
 254 972 254 972 385.5 1078 c 128,-1,19
 517 1184 517 1184 729 1184 c 0,20,21
 793 1184 793 1184 844 1176 c 128,-1,22
 895 1168 895 1168 955 1151 c 1,23,-1
 934 930 l 1,24,25
 880 946 880 946 834 952.5 c 128,-1,26
 788 959 788 959 729 959 c 0,27,28
 636 959 636 959 584 913.5 c 128,-1,29
 532 868 532 868 515 782 c 1,30,-1
 870 782 l 1,31,-1
 870 618 l 1,32,-1
 505 618 l 1,33,-1
 505 539 l 1,34,-1
 870 539 l 1,35,-1
 870 376 l 1,36,-1
 514 376 l 1,37,38
 550 209 550 209 731 209 c 0,0,1
EndSplineSet
EndChar

StartChar: F
Encoding: 70 70 100
Width: 1124
VWidth: 1798
GlyphClass: 2
Flags: W
AnchorPoint: "Anchor-1" 619 -240 basechar 0
AnchorPoint: "Anchor-0" 619 1362 basechar 0
LayerCount: 2
Fore
SplineSet
1010 584 m 1,0,-1
 1010 350 l 1,1,-1
 430 350 l 1,2,-1
 430 -250 l 1,3,-1
 130 -250 l 1,4,-1
 130 1206 l 1,5,-1
 1080 1206 l 1,6,-1
 1080 971 l 1,7,-1
 430 971 l 1,8,-1
 430 584 l 1,9,-1
 1010 584 l 1,0,-1
EndSplineSet
Substitution2: "'c2sc' Capitals to Small Capitals lookup 0 subtable" F.smcp
Position2: "'cpsp' Capital Spacing lookup 0 subtable" dx=36 dy=0 dh=72 dv=0
EndChar

StartChar: F.smcp
Encoding: 65598 -1 101
Width: 965
GlyphClass: 2
Flags: W
AnchorPoint: "Anchor-1" 489 10 basechar 0
AnchorPoint: "Anchor-0" 541 1320 basechar 0
LayerCount: 2
Fore
SplineSet
881 685 m 1,0,-1
 881 459 l 1,1,-1
 388 459 l 1,2,-1
 388 0 l 1,3,-1
 100 0 l 1,4,-1
 100 1165 l 1,5,-1
 933 1165 l 1,6,-1
 933 940 l 1,7,-1
 388 940 l 1,8,-1
 388 685 l 1,9,-1
 881 685 l 1,0,-1
EndSplineSet
EndChar

StartChar: G
Encoding: 71 71 102
Width: 1396
VWidth: 1798
GlyphClass: 2
Flags: W
AnchorPoint: "Anchor-1" 730 -259 basechar 0
AnchorPoint: "Anchor-0" 672 1383 basechar 0
LayerCount: 2
Fore
SplineSet
1284 511 m 1,0,-1
 1284 -66 l 1,1,2
 1250 -106 1250 -106 1179 -154 c 128,-1,3
 1108 -202 1108 -202 996 -236 c 128,-1,4
 884 -270 884 -270 725 -270 c 0,5,6
 537 -270 537 -270 395 -187.5 c 128,-1,7
 253 -105 253 -105 174 52 c 128,-1,8
 95 209 95 209 95 432 c 2,9,-1
 95 523 l 2,10,11
 95 747 95 747 171 904 c 128,-1,12
 247 1061 247 1061 384.5 1144 c 128,-1,13
 522 1227 522 1227 705 1227 c 0,14,15
 895 1227 895 1227 1017 1165.5 c 128,-1,16
 1139 1104 1139 1104 1203 995.5 c 128,-1,17
 1267 887 1267 887 1283 747 c 1,18,-1
 992 747 l 1,19,20
 975 858 975 858 912.5 925.5 c 128,-1,21
 850 993 850 993 713 993 c 0,22,23
 562 993 562 993 480.5 873 c 128,-1,24
 399 753 399 753 399 525 c 2,25,-1
 399 432 l 2,26,27
 399 203 399 203 486.5 83.5 c 128,-1,28
 574 -36 574 -36 743 -36 c 0,29,30
 850 -36 850 -36 905 -10.5 c 128,-1,31
 960 15 960 15 984 39 c 1,32,-1
 984 297 l 1,33,-1
 710 297 l 1,34,-1
 710 511 l 1,35,-1
 1284 511 l 1,0,-1
EndSplineSet
Substitution2: "'c2sc' Capitals to Small Capitals lookup 0 subtable" G.smcp
Position2: "'cpsp' Capital Spacing lookup 0 subtable" dx=36 dy=0 dh=72 dv=0
EndChar

StartChar: G.smcp
Encoding: 65599 -1 103
Width: 1187
GlyphClass: 2
Flags: W
AnchorPoint: "Anchor-1" 591 -4 basechar 0
AnchorPoint: "Anchor-0" 584 1320 basechar 0
LayerCount: 2
Fore
SplineSet
1116 626 m 1,0,-1
 1116 142 l 1,1,2
 1084 109 1084 109 1019.5 72 c 128,-1,3
 955 35 955 35 856.5 9.5 c 128,-1,4
 758 -16 758 -16 622 -16 c 0,5,6
 457 -16 457 -16 334 50 c 128,-1,7
 211 116 211 116 142.5 242.5 c 128,-1,8
 74 369 74 369 74 550 c 2,9,-1
 74 615 l 2,10,11
 74 796 74 796 142 922.5 c 128,-1,12
 210 1049 210 1049 330.5 1115.5 c 128,-1,13
 451 1182 451 1182 606 1182 c 0,14,15
 777 1182 777 1182 884.5 1130.5 c 128,-1,16
 992 1079 992 1079 1047.5 988.5 c 128,-1,17
 1103 898 1103 898 1115 780 c 1,18,-1
 837 780 l 1,19,20
 824 866 824 866 773.5 911.5 c 128,-1,21
 723 957 723 957 615 957 c 0,22,23
 501 957 501 957 432 873.5 c 128,-1,24
 363 790 363 790 363 617 c 2,25,-1
 363 550 l 2,26,27
 363 208 363 208 643 208 c 0,28,29
 720 208 720 208 763.5 223.5 c 128,-1,30
 807 239 807 239 826 253 c 1,31,-1
 826 427 l 1,32,-1
 600 427 l 1,33,-1
 600 626 l 1,34,-1
 1116 626 l 1,0,-1
EndSplineSet
EndChar

StartChar: Germandbls.smcp
Encoding: 65604 -1 111
Width: 1133
GlyphClass: 2
Flags: W
LayerCount: 2
Fore
SplineSet
445 37 m 1,0,-1
 528 245 l 1,1,2
 547 230 547 230 580.5 213.5 c 128,-1,3
 614 197 614 197 654 197 c 0,4,5
 719 197 719 197 756.5 239.5 c 128,-1,6
 794 282 794 282 794 353 c 0,7,8
 794 433 794 433 737.5 466.5 c 128,-1,9
 681 500 681 500 575 500 c 2,10,-1
 493 500 l 1,11,-1
 493 676 l 1,12,-1
 668 901 l 1,13,14
 641 927 641 927 606.5 944.5 c 128,-1,15
 572 962 572 962 528 962 c 0,16,17
 461 962 461 962 421 905.5 c 128,-1,18
 381 849 381 849 381 743 c 2,19,-1
 381 0 l 1,20,-1
 100 0 l 1,21,-1
 100 745 l 1,22,-1
 100 745 l 1,23,24
 102 1180 102 1180 532 1180 c 0,25,26
 675 1180 675 1180 783.5 1118.5 c 128,-1,27
 892 1057 892 1057 984 947 c 1,28,-1
 756 674 l 1,29,30
 907 647 907 647 991 566 c 128,-1,31
 1075 485 1075 485 1075 354 c 0,32,33
 1075 231 1075 231 1022.5 147.5 c 128,-1,34
 970 64 970 64 882 21.5 c 128,-1,35
 794 -21 794 -21 687 -21 c 0,36,37
 610 -21 610 -21 551 -4.5 c 128,-1,38
 492 12 492 12 445 37 c 1,0,-1
EndSplineSet
EndChar

StartChar: H
Encoding: 72 72 112
Width: 1446
VWidth: 1798
GlyphClass: 2
Flags: W
AnchorPoint: "Anchor-1" 714 -240 basechar 0
AnchorPoint: "Anchor-0" 712 1362 basechar 0
LayerCount: 2
Fore
SplineSet
430 1206 m 1,0,-1
 430 613 l 1,1,-1
 1016 613 l 1,2,-1
 1016 1206 l 1,3,-1
 1315 1206 l 1,4,-1
 1315 -250 l 1,5,-1
 1016 -250 l 1,6,-1
 1016 379 l 1,7,-1
 430 379 l 1,8,-1
 430 -250 l 1,9,-1
 130 -250 l 1,10,-1
 130 1206 l 1,11,-1
 430 1206 l 1,0,-1
EndSplineSet
Substitution2: "'c2sc' Capitals to Small Capitals lookup 0 subtable" H.smcp
Position2: "'cpsp' Capital Spacing lookup 0 subtable" dx=36 dy=0 dh=72 dv=0
EndChar

StartChar: H.smcp
Encoding: 65605 -1 113
Width: 1238
GlyphClass: 2
Flags: W
AnchorPoint: "Anchor-1" 615 10 basechar 0
AnchorPoint: "Anchor-0" 615 1320 basechar 0
LayerCount: 2
Fore
SplineSet
388 1165 m 1,0,-1
 388 684 l 1,1,-1
 851 684 l 1,2,-1
 851 1165 l 1,3,-1
 1139 1165 l 1,4,-1
 1139 0 l 1,5,-1
 851 0 l 1,6,-1
 851 459 l 1,7,-1
 388 459 l 1,8,-1
 388 0 l 1,9,-1
 100 0 l 1,10,-1
 100 1165 l 1,11,-1
 388 1165 l 1,0,-1
EndSplineSet
EndChar

StartChar: Hbar
Encoding: 294 294 114
Width: 1474
VWidth: 1798
GlyphClass: 2
Flags: W
AnchorPoint: "Anchor-1" 724 -240 basechar 0
AnchorPoint: "Anchor-0" 724 1362 basechar 0
LayerCount: 2
Fore
SplineSet
445 1206 m 1,0,-1
 445 968 l 1,1,-1
 1031 968 l 1,2,-1
 1031 1206 l 1,3,-1
 1330 1206 l 1,4,-1
 1330 968 l 1,5,-1
 1452 968 l 1,6,-1
 1452 798 l 1,7,-1
 1330 798 l 1,8,-1
 1330 -250 l 1,9,-1
 1031 -250 l 1,10,-1
 1031 379 l 1,11,-1
 445 379 l 1,12,-1
 445 -250 l 1,13,-1
 145 -250 l 1,14,-1
 145 798 l 1,15,-1
 32 798 l 1,16,-1
 32 968 l 1,17,-1
 145 968 l 1,18,-1
 145 1206 l 1,19,-1
 445 1206 l 1,0,-1
445 613 m 1,20,-1
 1031 613 l 1,21,-1
 1031 798 l 1,22,-1
 445 798 l 1,23,-1
 445 613 l 1,20,-1
EndSplineSet
Substitution2: "'c2sc' Capitals to Small Capitals lookup 0 subtable" Hbar.smcp
Position2: "'cpsp' Capital Spacing lookup 0 subtable" dx=36 dy=0 dh=72 dv=0
EndChar

StartChar: Hbar.smcp
Encoding: 65606 -1 115
Width: 1331
GlyphClass: 2
Flags: W
AnchorPoint: "Anchor-1" 615 10 basechar 0
AnchorPoint: "Anchor-0" 615 1320 basechar 0
LayerCount: 2
Fore
SplineSet
435 1165 m 1,0,-1
 435 1028 l 1,1,-1
 898 1028 l 1,2,-1
 898 1165 l 1,3,-1
 1185 1165 l 1,4,-1
 1185 1028 l 1,5,-1
 1275 1028 l 1,6,-1
 1275 850 l 1,7,-1
 1185 850 l 1,8,-1
 1185 0 l 1,9,-1
 898 0 l 1,10,-1
 898 459 l 1,11,-1
 435 459 l 1,12,-1
 435 0 l 1,13,-1
 146 0 l 1,14,-1
 146 850 l 1,15,-1
 56 850 l 1,16,-1
 56 1028 l 1,17,-1
 146 1028 l 1,18,-1
 146 1165 l 1,19,-1
 435 1165 l 1,0,-1
435 684 m 1,20,-1
 898 684 l 1,21,-1
 898 850 l 1,22,-1
 435 850 l 1,23,-1
 435 684 l 1,20,-1
EndSplineSet
EndChar

StartChar: I
Encoding: 73 73 118
Width: 599
VWidth: 1798
GlyphClass: 2
Flags: W
AnchorPoint: "Anchor-1" 279 -241 basechar 0
AnchorPoint: "Anchor-0" 279 1362 basechar 0
LayerCount: 2
Fore
SplineSet
449 1206 m 1,0,-1
 449 -250 l 1,1,-1
 150 -250 l 1,2,-1
 150 1206 l 1,3,-1
 449 1206 l 1,0,-1
EndSplineSet
Substitution2: "'c2sc' Capitals to Small Capitals lookup 0 subtable" I.smcp
Position2: "'cpsp' Capital Spacing lookup 0 subtable" dx=36 dy=0 dh=72 dv=0
EndChar

StartChar: I.smcp
Encoding: 65608 -1 119
Width: 528
GlyphClass: 2
Flags: W
AnchorPoint: "Anchor-1" 244 4 basechar 0
AnchorPoint: "Anchor-0" 244 1320 basechar 0
LayerCount: 2
Fore
SplineSet
408 1165 m 1,0,-1
 408 0 l 1,1,-1
 119 0 l 1,2,-1
 119 1165 l 1,3,-1
 408 1165 l 1,0,-1
EndSplineSet
EndChar

StartChar: J
Encoding: 74 74 140
Width: 1144
VWidth: 1798
GlyphClass: 2
Flags: W
AnchorPoint: "Anchor-1" 512 -260 basechar 0
AnchorPoint: "Anchor-0" 852 1349 basechar 0
LayerCount: 2
Fore
SplineSet
719 197 m 2,0,-1
 719 1206 l 1,1,-1
 1018 1206 l 1,2,-1
 1018 197 l 2,3,4
 1018 52 1018 52 953.5 -53 c 128,-1,5
 889 -158 889 -158 779 -214 c 128,-1,6
 669 -270 669 -270 531 -270 c 0,7,8
 389 -270 389 -270 278.5 -222 c 128,-1,9
 168 -174 168 -174 105 -74.5 c 128,-1,10
 42 25 42 25 42 178 c 1,11,-1
 343 178 l 1,12,13
 343 58 343 58 393 11 c 128,-1,14
 443 -36 443 -36 531 -36 c 0,15,16
 617 -36 617 -36 668 24.5 c 128,-1,17
 719 85 719 85 719 197 c 2,0,-1
EndSplineSet
Substitution2: "'c2sc' Capitals to Small Capitals lookup 0 subtable" J.smcp
Position2: "'cpsp' Capital Spacing lookup 0 subtable" dx=36 dy=0 dh=72 dv=0
EndChar

StartChar: J.smcp
Encoding: 65619 -1 141
Width: 989
GlyphClass: 2
Flags: W
AnchorPoint: "Anchor-1" 457 -10 basechar 0
AnchorPoint: "Anchor-0" 734 1320 basechar 0
LayerCount: 2
Fore
SplineSet
601 390 m 2,0,-1
 601 1165 l 1,1,-1
 890 1165 l 1,2,-1
 890 390 l 2,3,4
 890 262 890 262 833 171 c 128,-1,5
 776 80 776 80 681 32 c 128,-1,6
 586 -16 586 -16 470 -16 c 0,7,8
 274 -16 274 -16 154 77.5 c 128,-1,9
 34 171 34 171 34 370 c 1,10,-1
 323 370 l 1,11,12
 323 208 323 208 470 208 c 0,13,14
 601 208 601 208 601 390 c 2,0,-1
EndSplineSet
EndChar

StartChar: K
Encoding: 75 75 144
Width: 1302
VWidth: 1798
GlyphClass: 2
Flags: W
AnchorPoint: "Anchor-1" 660 -160 basechar 0
AnchorPoint: "Anchor-0" 605 1345 basechar 0
LayerCount: 2
Fore
SplineSet
961 -250 m 1,0,-1
 586 338 l 1,1,-1
 430 170 l 1,2,-1
 430 -250 l 1,3,-1
 130 -250 l 1,4,-1
 130 1206 l 1,5,-1
 430 1206 l 1,6,-1
 430 539 l 1,7,-1
 563 721 l 1,8,-1
 934 1206 l 1,9,-1
 1302 1206 l 1,10,-1
 785 562 l 1,11,-1
 1316 -250 l 1,12,-1
 961 -250 l 1,0,-1
EndSplineSet
Substitution2: "'salt' Stylistic Alternatives lookup 13 subtable" K.alt
Substitution2: "'c2sc' Capitals to Small Capitals lookup 0 subtable" K.smcp
Position2: "'cpsp' Capital Spacing lookup 0 subtable" dx=36 dy=0 dh=72 dv=0
EndChar

StartChar: K.alt
Encoding: 65621 -1 145
Width: 1323
GlyphClass: 2
Flags: W
LayerCount: 2
Fore
SplineSet
980 0 m 1,0,-1
 603 601 l 1,1,-1
 431 601 l 1,2,-1
 431 0 l 1,3,-1
 131 0 l 1,4,-1
 131 1456 l 1,5,-1
 431 1456 l 1,6,-1
 431 868 l 1,7,-1
 571 868 l 1,8,-1
 925 1456 l 1,9,-1
 1289 1456 l 1,10,-1
 841 770 l 1,11,-1
 1336 0 l 1,12,-1
 980 0 l 1,0,-1
EndSplineSet
EndChar

StartChar: K.smcp
Encoding: 65622 -1 146
Width: 1125
GlyphClass: 2
Flags: W
AnchorPoint: "Anchor-1" 532 6 basechar 0
AnchorPoint: "Anchor-0" 518 1320 basechar 0
LayerCount: 2
Fore
SplineSet
799 0 m 1,0,-1
 516 439 l 1,1,-1
 388 313 l 1,2,-1
 388 0 l 1,3,-1
 100 0 l 1,4,-1
 100 1165 l 1,5,-1
 388 1165 l 1,6,-1
 388 671 l 1,7,-1
 488 805 l 1,8,-1
 769 1165 l 1,9,-1
 1130 1165 l 1,10,-1
 711 645 l 1,11,-1
 1141 0 l 1,12,-1
 799 0 l 1,0,-1
EndSplineSet
EndChar

StartChar: L
Encoding: 76 76 149
Width: 1108
VWidth: 1798
GlyphClass: 2
Flags: W
AnchorPoint: "Anchor-1" 620 -240 basechar 0
AnchorPoint: "Anchor-0" 264 1346 basechar 0
LayerCount: 2
Fore
SplineSet
1066 -16 m 1,0,-1
 1066 -250 l 1,1,-1
 130 -250 l 1,2,-1
 130 1206 l 1,3,-1
 430 1206 l 1,4,-1
 430 -16 l 1,5,-1
 1066 -16 l 1,0,-1
EndSplineSet
Substitution2: "'c2sc' Capitals to Small Capitals lookup 0 subtable" L.smcp
Position2: "'cpsp' Capital Spacing lookup 0 subtable" dx=36 dy=0 dh=72 dv=0
EndChar

StartChar: L.smcp
Encoding: 65624 -1 150
Width: 953
GlyphClass: 2
Flags: W
AnchorPoint: "Anchor-1" 527 8 basechar 0
AnchorPoint: "Anchor-0" 233 1320 basechar 0
LayerCount: 2
Fore
SplineSet
920 224 m 1,0,-1
 920 0 l 1,1,-1
 100 0 l 1,2,-1
 100 1165 l 1,3,-1
 388 1165 l 1,4,-1
 388 224 l 1,5,-1
 920 224 l 1,0,-1
EndSplineSet
EndChar

StartChar: Lslash
Encoding: 321 321 161
Width: 1142
VWidth: 1798
GlyphClass: 2
Flags: W
AnchorPoint: "Anchor-1" 618 -240 basechar 0
AnchorPoint: "Anchor-0" 262 1346 basechar 0
LayerCount: 2
Fore
SplineSet
1100 -16 m 1,0,-1
 1100 -250 l 1,1,-1
 164 -250 l 1,2,-1
 164 396 l 1,3,-1
 29 357 l 1,4,-1
 29 517 l 1,5,-1
 164 556 l 1,6,-1
 164 1206 l 1,7,-1
 463 1206 l 1,8,-1
 463 642 l 1,9,-1
 680 704 l 1,10,-1
 680 544 l 1,11,-1
 463 482 l 1,12,-1
 463 -16 l 1,13,-1
 1100 -16 l 1,0,-1
EndSplineSet
Substitution2: "'c2sc' Capitals to Small Capitals lookup 0 subtable" Lslash.smcp
Position2: "'cpsp' Capital Spacing lookup 0 subtable" dx=36 dy=0 dh=72 dv=0
EndChar

StartChar: Lslash.smcp
Encoding: 65631 -1 162
Width: 976
GlyphClass: 2
Flags: W
AnchorPoint: "Anchor-1" 527 8 basechar 0
AnchorPoint: "Anchor-0" 233 1320 basechar 0
LayerCount: 2
Fore
SplineSet
942 224 m 1,0,-1
 942 0 l 1,1,-1
 123 0 l 1,2,-1
 123 525 l 1,3,-1
 8 492 l 1,4,-1
 8 653 l 1,5,-1
 123 686 l 1,6,-1
 123 1165 l 1,7,-1
 411 1165 l 1,8,-1
 411 769 l 1,9,-1
 660 840 l 1,10,-1
 660 679 l 1,11,-1
 411 608 l 1,12,-1
 411 224 l 1,13,-1
 942 224 l 1,0,-1
EndSplineSet
EndChar

StartChar: M
Encoding: 77 77 163
Width: 1793
VWidth: 1798
GlyphClass: 2
Flags: W
AnchorPoint: "Anchor-1" 893 -240 basechar 0
AnchorPoint: "Anchor-0" 890 1351 basechar 0
LayerCount: 2
Fore
SplineSet
130 1206 m 1,0,-1
 521 1206 l 1,1,-1
 895 137 l 1,2,-1
 1269 1206 l 1,3,-1
 1661 1206 l 1,4,-1
 1661 -250 l 1,5,-1
 1361 -250 l 1,6,-1
 1361 164 l 1,7,-1
 1391 840 l 1,8,-1
 997 -250 l 1,9,-1
 793 -250 l 1,10,-1
 399 840 l 1,11,-1
 429 164 l 1,12,-1
 429 -250 l 1,13,-1
 130 -250 l 1,14,-1
 130 1206 l 1,0,-1
EndSplineSet
Substitution2: "'unic' Unicase lookup 2 subtable" M.unic
Substitution2: "'c2sc' Capitals to Small Capitals lookup 0 subtable" M.smcp
Position2: "'cpsp' Capital Spacing lookup 0 subtable" dx=36 dy=0 dh=72 dv=0
EndChar

StartChar: M.smcp
Encoding: 65632 -1 164
Width: 1543
GlyphClass: 2
Flags: W
AnchorPoint: "Anchor-1" 765 10 basechar 0
AnchorPoint: "Anchor-0" 765 1320 basechar 0
LayerCount: 2
Fore
SplineSet
100 1165 m 1,0,-1
 480 1165 l 1,1,-1
 770 368 l 1,2,-1
 1061 1165 l 1,3,-1
 1443 1165 l 1,4,-1
 1443 0 l 1,5,-1
 1153 0 l 1,6,-1
 1153 252 l 1,7,-1
 1183 854 l 1,8,-1
 866 0 l 1,9,-1
 675 0 l 1,10,-1
 359 851 l 1,11,-1
 389 252 l 1,12,-1
 389 0 l 1,13,-1
 100 0 l 1,14,-1
 100 1165 l 1,0,-1
EndSplineSet
EndChar

StartChar: M.unic
Encoding: 65633 -1 165
Width: 2216
GlyphClass: 2
Flags: W
AnchorPoint: "Anchor-1" 1118 10 basechar 0
AnchorPoint: "Anchor-0" 1114 1632 basechar 0
LayerCount: 2
Fore
SplineSet
731 1233 m 0,0,1
 619 1233 619 1233 539 1162.5 c 128,-1,2
 459 1092 459 1092 430 981 c 1,3,-1
 430 0 l 1,4,-1
 130 0 l 1,5,-1
 130 1456 l 1,6,-1
 412 1456 l 1,7,-1
 424 1300 l 1,8,9
 497 1380 497 1380 600 1428 c 128,-1,10
 703 1476 703 1476 830 1476 c 0,11,12
 960 1476 960 1476 1055 1423.5 c 128,-1,13
 1150 1371 1150 1371 1202 1263 c 1,14,15
 1281 1359 1281 1359 1398 1417.5 c 128,-1,16
 1515 1476 1515 1476 1657 1476 c 0,17,18
 1857 1476 1857 1476 1972 1360.5 c 128,-1,19
 2087 1245 2087 1245 2087 970 c 2,20,-1
 2087 0 l 1,21,-1
 1788 0 l 1,22,-1
 1788 939 l 2,23,24
 1788 1103 1788 1103 1728 1168 c 128,-1,25
 1668 1233 1668 1233 1559 1233 c 0,26,27
 1446 1233 1446 1233 1366.5 1161.5 c 128,-1,28
 1287 1090 1287 1090 1258 977 c 0,29,30
 1258 974 1258 974 1258 970 c 2,31,-1
 1258 0 l 1,32,-1
 959 0 l 1,33,-1
 959 939 l 2,34,35
 959 1103 959 1103 899.5 1168 c 128,-1,36
 840 1233 840 1233 731 1233 c 0,0,1
EndSplineSet
EndChar

StartChar: N
Encoding: 78 78 166
Width: 1445
VWidth: 1798
GlyphClass: 2
Flags: W
AnchorPoint: "Anchor-1" 720 -240 basechar 0
AnchorPoint: "Anchor-0" 726 1351 basechar 0
LayerCount: 2
Fore
SplineSet
1315 1206 m 1,0,-1
 1315 -250 l 1,1,-1
 1015 -250 l 1,2,-1
 430 726 l 1,3,-1
 430 -250 l 1,4,-1
 130 -250 l 1,5,-1
 130 1206 l 1,6,-1
 430 1206 l 1,7,-1
 1016 229 l 1,8,-1
 1016 1206 l 1,9,-1
 1315 1206 l 1,0,-1
EndSplineSet
Substitution2: "'unic' Unicase lookup 2 subtable" N.unic
Substitution2: "'c2sc' Capitals to Small Capitals lookup 0 subtable" N.smcp
Position2: "'cpsp' Capital Spacing lookup 0 subtable" dx=36 dy=0 dh=72 dv=0
EndChar

StartChar: N.smcp
Encoding: 65634 -1 167
Width: 1237
GlyphClass: 2
Flags: W
AnchorPoint: "Anchor-1" 619 4 basechar 0
AnchorPoint: "Anchor-0" 624 1320 basechar 0
LayerCount: 2
Fore
SplineSet
1138 1165 m 1,0,-1
 1138 0 l 1,1,-1
 849 0 l 1,2,-1
 388 742 l 1,3,-1
 388 0 l 1,4,-1
 100 0 l 1,5,-1
 100 1165 l 1,6,-1
 388 1165 l 1,7,-1
 849 423 l 1,8,-1
 849 1165 l 1,9,-1
 1138 1165 l 1,0,-1
EndSplineSet
EndChar

StartChar: N.unic
Encoding: 65635 -1 168
Width: 1446
GlyphClass: 2
Flags: W
AnchorPoint: "Anchor-1" 720 10 basechar 0
AnchorPoint: "Anchor-0" 726 1632 basechar 0
LayerCount: 2
Fore
SplineSet
763 1233 m 0,0,1
 639 1233 639 1233 550 1159 c 128,-1,2
 461 1085 461 1085 430 969 c 1,3,-1
 430 0 l 1,4,-1
 130 0 l 1,5,-1
 130 1456 l 1,6,-1
 412 1456 l 1,7,-1
 425 1289 l 1,8,9
 502 1374 502 1374 613 1425 c 128,-1,10
 724 1476 724 1476 862 1476 c 0,11,12
 1072 1476 1072 1476 1193.5 1359.5 c 128,-1,13
 1315 1243 1315 1243 1315 965 c 2,14,-1
 1315 0 l 1,15,-1
 1016 0 l 1,16,-1
 1016 933 l 2,17,18
 1016 1100 1016 1100 950 1166.5 c 128,-1,19
 884 1233 884 1233 763 1233 c 0,0,1
EndSplineSet
EndChar

StartChar: NameMe.65564
Encoding: 65638 -1 172
Width: 563
GlyphClass: 1
Flags: W
LayerCount: 2
Fore
SplineSet
139 1267 m 1,0,-1
 390 1267 l 1,1,-1
 390 475 l 2,2,3
 390 362 390 362 424.5 315.5 c 128,-1,4
 459 269 459 269 558 269 c 2,5,-1
 583 269 l 1,6,-1
 583 0 l 1,7,-1
 558 0 l 2,8,9
 139 0 139 0 139 455 c 2,10,-1
 139 1267 l 1,0,-1
EndSplineSet
EndChar

StartChar: NameMe.65565
Encoding: 65639 -1 173
Width: 704
GlyphClass: 1
Flags: W
LayerCount: 2
Fore
SplineSet
513 225 m 0,0,1
 530 225 530 225 562 220 c 128,-1,2
 594 215 594 215 621 204 c 1,3,-1
 599 92 l 1,4,5
 580 98 580 98 555 102.5 c 128,-1,6
 530 107 530 107 513 107 c 0,7,8
 450 107 450 107 413 69.5 c 128,-1,9
 376 32 376 32 376 -9 c 0,10,11
 376 -28 376 -28 381 -33 c 128,-1,12
 386 -38 386 -38 406 -38 c 2,13,-1
 498 -38 l 2,14,15
 558 -38 558 -38 590.5 -70 c 128,-1,16
 623 -102 623 -102 623 -152 c 0,17,18
 623 -244 623 -244 576 -304 c 128,-1,19
 529 -364 529 -364 449 -393 c 128,-1,20
 369 -422 369 -422 271 -422 c 0,21,22
 212 -422 212 -422 164.5 -410.5 c 128,-1,23
 117 -399 117 -399 76 -381 c 1,24,-1
 128 -271 l 1,25,26
 158 -286 158 -286 191.5 -295 c 128,-1,27
 225 -304 225 -304 273 -304 c 0,28,29
 325 -304 325 -304 380.5 -289.5 c 128,-1,30
 436 -275 436 -275 474 -246 c 128,-1,31
 512 -217 512 -217 512 -172 c 0,32,33
 512 -157 512 -157 474 -157 c 2,34,-1
 401 -157 l 2,35,36
 334 -157 334 -157 297 -120 c 128,-1,37
 260 -83 260 -83 260 -16 c 0,38,39
 260 58 260 58 296 112 c 128,-1,40
 332 166 332 166 390 195.5 c 128,-1,41
 448 225 448 225 513 225 c 0,0,1
EndSplineSet
EndChar

StartChar: NameMe.65583
Encoding: 65641 -1 175
Width: 471
GlyphClass: 1
Flags: W
LayerCount: 2
Fore
SplineSet
-53 1332 m 1,0,-1
 -32 1421 l 1,1,2
 -17 1409 -17 1409 3.5 1395.5 c 128,-1,3
 24 1382 24 1382 43 1373 c 1,4,5
 124 1507 124 1507 189.5 1567 c 128,-1,6
 255 1627 255 1627 337 1627 c 0,7,8
 420 1627 420 1627 473 1575 c 128,-1,9
 526 1523 526 1523 526 1445 c 0,10,11
 526 1341 526 1341 452.5 1299.5 c 128,-1,12
 379 1258 379 1258 207 1258 c 2,13,-1
 182 1258 l 2,14,15
 90 1258 90 1258 30.5 1275 c 128,-1,16
 -29 1292 -29 1292 -53 1332 c 1,0,-1
205 1358 m 2,17,18
 336 1358 336 1358 382 1374.5 c 128,-1,19
 428 1391 428 1391 428 1441 c 0,20,21
 428 1478 428 1478 405 1501.5 c 128,-1,22
 382 1525 382 1525 342 1525 c 0,23,24
 292 1525 292 1525 250 1488 c 128,-1,25
 208 1451 208 1451 147 1358 c 1,26,-1
 205 1358 l 2,17,18
EndSplineSet
EndChar

StartChar: NameMe.65703
Encoding: 65642 -1 176
Width: 530
GlyphClass: 1
Flags: W
LayerCount: 2
Fore
SplineSet
390 1265 m 1,0,-1
 390 1 l 1,1,-1
 140 1 l 1,2,-1
 140 1265 l 1,3,-1
 390 1265 l 1,0,-1
EndSplineSet
EndChar

StartChar: O
Encoding: 79 79 186
Width: 1412
VWidth: 1798
GlyphClass: 2
Flags: W
AnchorPoint: "Anchor-1" 707 -250 basechar 0
AnchorPoint: "Anchor-0" 707 1353 basechar 0
LayerCount: 2
Fore
SplineSet
1326 512 m 2,0,-1
 1326 443 l 2,1,2
 1326 222 1326 222 1247.5 62 c 128,-1,3
 1169 -98 1169 -98 1030 -184 c 128,-1,4
 891 -270 891 -270 707 -270 c 0,5,6
 525 -270 525 -270 384.5 -184 c 128,-1,7
 244 -98 244 -98 165 62 c 128,-1,8
 86 222 86 222 86 443 c 2,9,-1
 86 512 l 2,10,11
 86 734 86 734 164.5 894 c 128,-1,12
 243 1054 243 1054 383 1140 c 128,-1,13
 523 1226 523 1226 705 1226 c 0,14,15
 889 1226 889 1226 1028.5 1140 c 128,-1,16
 1168 1054 1168 1054 1247 894 c 128,-1,17
 1326 734 1326 734 1326 512 c 2,0,-1
1023 443 m 2,18,-1
 1023 514 l 2,19,20
 1023 744 1023 744 940 865.5 c 128,-1,21
 857 987 857 987 705 987 c 256,22,23
 553 987 553 987 471 865.5 c 128,-1,24
 389 744 389 744 389 514 c 2,25,-1
 389 443 l 2,26,27
 389 214 389 214 472 91 c 128,-1,28
 555 -32 555 -32 707 -32 c 256,29,30
 859 -32 859 -32 941 91 c 128,-1,31
 1023 214 1023 214 1023 443 c 2,18,-1
EndSplineSet
Substitution2: "'c2sc' Capitals to Small Capitals lookup 0 subtable" O.smcp
Position2: "'cpsp' Capital Spacing lookup 0 subtable" dx=36 dy=0 dh=72 dv=0
EndChar

StartChar: O.smcp
Encoding: 65649 -1 187
Width: 1215
GlyphClass: 2
Flags: W
AnchorPoint: "Anchor-1" 631 0 basechar 0
AnchorPoint: "Anchor-0" 606 1320 basechar 0
LayerCount: 2
Fore
SplineSet
1150 606 m 2,0,-1
 1150 558 l 2,1,2
 1150 381 1150 381 1081 252 c 128,-1,3
 1012 123 1012 123 890 53.5 c 128,-1,4
 768 -16 768 -16 608 -16 c 256,5,6
 448 -16 448 -16 325 53.5 c 128,-1,7
 202 123 202 123 132.5 252 c 128,-1,8
 63 381 63 381 63 558 c 2,9,-1
 63 606 l 2,10,11
 63 784 63 784 132 912.5 c 128,-1,12
 201 1041 201 1041 323.5 1111 c 128,-1,13
 446 1181 446 1181 606 1181 c 256,14,15
 766 1181 766 1181 888.5 1111 c 128,-1,16
 1011 1041 1011 1041 1080.5 912.5 c 128,-1,17
 1150 784 1150 784 1150 606 c 2,0,-1
861 558 m 2,18,-1
 861 608 l 2,19,20
 861 775 861 775 793.5 866 c 128,-1,21
 726 957 726 957 606 957 c 0,22,23
 483 957 483 957 418 866 c 128,-1,24
 353 775 353 775 353 608 c 2,25,-1
 353 558 l 2,26,27
 353 392 353 392 419 299.5 c 128,-1,28
 485 207 485 207 608 207 c 0,29,30
 727 207 727 207 794 299.5 c 128,-1,31
 861 392 861 392 861 558 c 2,18,-1
EndSplineSet
EndChar

StartChar: OE
Encoding: 338 338 188
Width: 1981
VWidth: 1798
GlyphClass: 2
Flags: W
AnchorPoint: "Anchor-1" 953 -250 basechar 0
AnchorPoint: "Anchor-0" 953 1353 basechar 0
LayerCount: 2
Fore
SplineSet
701 1226 m 0,0,1
 777 1226 777 1226 851 1220 c 128,-1,2
 925 1214 925 1214 992 1206 c 1,3,-1
 1879 1206 l 1,4,-1
 1879 971 l 1,5,-1
 1203 971 l 1,6,-1
 1203 613 l 1,7,-1
 1780 613 l 1,8,-1
 1780 385 l 1,9,-1
 1203 385 l 1,10,-1
 1203 -16 l 1,11,-1
 1880 -16 l 1,12,-1
 1880 -250 l 1,13,-1
 992 -250 l 1,14,15
 925 -257 925 -257 852 -263.5 c 128,-1,16
 779 -270 779 -270 703 -270 c 0,17,18
 523 -270 523 -270 386.5 -194.5 c 128,-1,19
 250 -119 250 -119 173.5 15.5 c 128,-1,20
 97 150 97 150 97 326 c 2,21,-1
 97 630 l 2,22,23
 97 807 97 807 173 941 c 128,-1,24
 249 1075 249 1075 385 1150.5 c 128,-1,25
 521 1226 521 1226 701 1226 c 0,0,1
385 326 m 2,26,27
 385 142 385 142 471 48.5 c 128,-1,28
 557 -45 557 -45 703 -45 c 0,29,30
 755 -45 755 -45 805.5 -41.5 c 128,-1,31
 856 -38 856 -38 903 -32 c 1,32,-1
 903 987 l 1,33,34
 855 994 855 994 804.5 997.5 c 128,-1,35
 754 1001 754 1001 701 1001 c 0,36,37
 555 1001 555 1001 470 908.5 c 128,-1,38
 385 816 385 816 385 632 c 2,39,-1
 385 326 l 2,26,27
EndSplineSet
Substitution2: "'c2sc' Capitals to Small Capitals lookup 0 subtable" OE.smcp
Position2: "'cpsp' Capital Spacing lookup 0 subtable" dx=36 dy=0 dh=72 dv=0
EndChar

StartChar: OE.smcp
Encoding: 65650 -1 189
Width: 1678
GlyphClass: 2
Flags: W
LayerCount: 2
Fore
SplineSet
989 1165 m 2,0,-1
 1649 1165 l 1,1,-1
 1649 940 l 1,2,-1
 1080 940 l 1,3,-1
 1080 715 l 1,4,-1
 1562 715 l 1,5,-1
 1562 490 l 1,6,-1
 1080 490 l 1,7,-1
 1080 224 l 1,8,-1
 1648 224 l 1,9,-1
 1648 0 l 1,10,-1
 990 0 l 2,11,12
 877 0 877 0 770.5 -8 c 128,-1,13
 664 -16 664 -16 608 -16 c 0,14,15
 448 -16 448 -16 325 53.5 c 128,-1,16
 202 123 202 123 132.5 252 c 128,-1,17
 63 381 63 381 63 558 c 2,18,-1
 63 606 l 2,19,20
 63 784 63 784 132 912.5 c 128,-1,21
 201 1041 201 1041 323.5 1111 c 128,-1,22
 446 1181 446 1181 606 1181 c 0,23,24
 663 1181 663 1181 771.5 1173 c 128,-1,25
 880 1165 880 1165 989 1165 c 2,0,-1
353 558 m 2,26,27
 353 392 353 392 419 299.5 c 128,-1,28
 485 207 485 207 608 207 c 0,29,30
 628 207 628 207 680.5 210 c 128,-1,31
 733 213 733 213 792 216 c 1,32,-1
 792 948 l 1,33,34
 731 951 731 951 678 954 c 128,-1,35
 625 957 625 957 606 957 c 0,36,37
 483 957 483 957 418 866 c 128,-1,38
 353 775 353 775 353 608 c 2,39,-1
 353 558 l 2,26,27
EndSplineSet
EndChar

StartChar: Ohorn
Encoding: 416 416 200
Width: 1440
VWidth: 1798
GlyphClass: 2
Flags: W
AnchorPoint: "Anchor-1" 692 -250 basechar 0
AnchorPoint: "Anchor-0" 703 1345 basechar 0
LayerCount: 2
Fore
SplineSet
1322 512 m 2,0,-1
 1322 443 l 2,1,2
 1322 222 1322 222 1244 62 c 128,-1,3
 1166 -98 1166 -98 1026.5 -184 c 128,-1,4
 887 -270 887 -270 704 -270 c 0,5,6
 522 -270 522 -270 381.5 -184 c 128,-1,7
 241 -98 241 -98 161.5 62 c 128,-1,8
 82 222 82 222 82 443 c 2,9,-1
 82 512 l 2,10,11
 82 734 82 734 161 894 c 128,-1,12
 240 1054 240 1054 380 1140 c 128,-1,13
 520 1226 520 1226 702 1226 c 0,14,15
 838 1226 838 1226 951.5 1177.5 c 128,-1,16
 1065 1129 1065 1129 1147 1038 c 1,17,18
 1223 1055 1223 1055 1250 1128 c 128,-1,19
 1277 1201 1277 1201 1277 1318 c 1,20,-1
 1470 1318 l 1,21,22
 1470 1152 1470 1152 1414.5 1044.5 c 128,-1,23
 1359 937 1359 937 1240 898 c 1,24,25
 1280 819 1280 819 1301 721.5 c 128,-1,26
 1322 624 1322 624 1322 512 c 2,0,-1
1019 443 m 2,27,-1
 1019 514 l 2,28,29
 1019 744 1019 744 936 865.5 c 128,-1,30
 853 987 853 987 702 987 c 0,31,32
 550 987 550 987 467.5 865.5 c 128,-1,33
 385 744 385 744 385 514 c 2,34,-1
 385 443 l 2,35,36
 385 214 385 214 468.5 91 c 128,-1,37
 552 -32 552 -32 704 -32 c 256,38,39
 856 -32 856 -32 937.5 91 c 128,-1,40
 1019 214 1019 214 1019 443 c 2,27,-1
EndSplineSet
EndChar

StartChar: Omega
Encoding: 8486 8486 205
Width: 1376
GlyphClass: 2
Flags: W
AnchorPoint: "Anchor-1" 679 10 basechar 0
LayerCount: 2
Fore
SplineSet
119 0 m 1,0,-1
 119 236 l 1,1,-1
 343 236 l 1,2,3
 240 328 240 328 172 467.5 c 128,-1,4
 104 607 104 607 104 772 c 2,5,-1
 104 860 l 2,6,7
 104 1041 104 1041 176.5 1179.5 c 128,-1,8
 249 1318 249 1318 378.5 1396.5 c 128,-1,9
 508 1475 508 1475 678 1475 c 0,10,11
 850 1475 850 1475 980 1396.5 c 128,-1,12
 1110 1318 1110 1318 1183 1179.5 c 128,-1,13
 1256 1041 1256 1041 1256 860 c 2,14,-1
 1256 772 l 2,15,16
 1256 607 1256 607 1188.5 467.5 c 128,-1,17
 1121 328 1121 328 1018 236 c 1,18,-1
 1239 236 l 1,19,-1
 1239 0 l 1,20,-1
 736 0 l 1,21,-1
 736 241 l 1,22,23
 816 276 816 276 869 401 c 128,-1,24
 922 526 922 526 922 772 c 2,25,-1
 922 862 l 2,26,27
 922 1048 922 1048 857 1143.5 c 128,-1,28
 792 1239 792 1239 678 1239 c 0,29,30
 566 1239 566 1239 502 1143.5 c 128,-1,31
 438 1048 438 1048 438 862 c 2,32,-1
 438 772 l 2,33,34
 438 525 438 525 492 400.5 c 128,-1,35
 546 276 546 276 630 241 c 1,36,-1
 630 0 l 1,37,-1
 119 0 l 1,0,-1
EndSplineSet
Substitution2: "'c2sc' Capitals to Small Capitals lookup 0 subtable" Omega.smcp
Position2: "'cpsp' Capital Spacing lookup 0 subtable" dx=36 dy=0 dh=72 dv=0
EndChar

StartChar: Omega.smcp
Encoding: 65658 -1 206
Width: 1232
GlyphClass: 2
Flags: W
AnchorPoint: "Anchor-1" 637 10 basechar 0
LayerCount: 2
Fore
SplineSet
96 0 m 1,0,-1
 96 228 l 1,1,-1
 287 228 l 1,2,3
 192 298 192 298 133 406 c 128,-1,4
 74 514 74 514 74 651 c 2,5,-1
 74 684 l 2,6,7
 74 816 74 816 138.5 929 c 128,-1,8
 203 1042 203 1042 324 1111.5 c 128,-1,9
 445 1181 445 1181 614 1181 c 0,10,11
 785 1181 785 1181 906.5 1111.5 c 128,-1,12
 1028 1042 1028 1042 1092.5 929 c 128,-1,13
 1157 816 1157 816 1157 685 c 2,14,-1
 1157 651 l 2,15,16
 1157 514 1157 514 1098.5 406 c 128,-1,17
 1040 298 1040 298 945 228 c 1,18,-1
 1143 228 l 1,19,-1
 1143 0 l 1,20,-1
 672 0 l 1,21,-1
 672 232 l 1,22,23
 773 273 773 273 820.5 362.5 c 128,-1,24
 868 452 868 452 868 608 c 2,25,-1
 868 655 l 2,26,27
 868 786 868 786 809 871.5 c 128,-1,28
 750 957 750 957 614 957 c 0,29,30
 481 957 481 957 422 871.5 c 128,-1,31
 363 786 363 786 363 655 c 2,32,-1
 363 608 l 2,33,34
 363 452 363 452 413 362.5 c 128,-1,35
 463 273 463 273 564 232 c 1,36,-1
 564 0 l 1,37,-1
 96 0 l 1,0,-1
EndSplineSet
EndChar

StartChar: Oslash
Encoding: 216 216 207
Width: 1410
VWidth: 1798
GlyphClass: 2
Flags: W
AnchorPoint: "Anchor-0" 715 1424 basechar 0
LayerCount: 2
Fore
SplineSet
1334 512 m 2,0,-1
 1334 443 l 2,1,2
 1334 222 1334 222 1255.5 62 c 128,-1,3
 1177 -98 1177 -98 1037.5 -184 c 128,-1,4
 898 -270 898 -270 715 -270 c 0,5,6
 551 -270 551 -270 419 -200 c 1,7,-1
 334 -344 l 1,8,-1
 147 -344 l 1,9,-1
 289 -103 l 1,10,11
 197 -11 197 -11 145 127.5 c 128,-1,12
 93 266 93 266 93 443 c 2,13,-1
 93 512 l 2,14,15
 93 734 93 734 171.5 894 c 128,-1,16
 250 1054 250 1054 390 1140 c 128,-1,17
 530 1226 530 1226 713 1226 c 0,18,19
 889 1226 889 1226 1027 1145 c 1,20,-1
 1099 1267 l 1,21,-1
 1285 1267 l 1,22,-1
 1153 1044 l 1,23,24
 1239 951 1239 951 1286.5 816.5 c 128,-1,25
 1334 682 1334 682 1334 512 c 2,0,-1
397 443 m 2,26,27
 397 272 397 272 444 159 c 1,28,-1
 896 924 l 1,29,30
 822 987 822 987 713 987 c 0,31,32
 561 987 561 987 479 865.5 c 128,-1,33
 397 744 397 744 397 514 c 2,34,-1
 397 443 l 2,26,27
1031 443 m 2,35,-1
 1031 514 l 2,36,37
 1031 666 1031 666 993 773 c 1,38,-1
 548 19 l 1,39,40
 618 -32 618 -32 715 -32 c 0,41,42
 867 -32 867 -32 949 91 c 128,-1,43
 1031 214 1031 214 1031 443 c 2,35,-1
EndSplineSet
Substitution2: "'c2sc' Capitals to Small Capitals lookup 0 subtable" Oslash.smcp
Position2: "'cpsp' Capital Spacing lookup 0 subtable" dx=36 dy=0 dh=72 dv=0
EndChar

StartChar: Oslash.smcp
Encoding: 65659 -1 208
Width: 1215
GlyphClass: 2
Flags: W
AnchorPoint: "Anchor-1" 631 0 basechar 0
AnchorPoint: "Anchor-0" 606 1320 basechar 0
LayerCount: 2
Fore
SplineSet
1150 606 m 2,0,-1
 1150 558 l 2,1,2
 1150 381 1150 381 1081 252 c 128,-1,3
 1012 123 1012 123 890 53.5 c 128,-1,4
 768 -16 768 -16 608 -16 c 0,5,6
 443 -16 443 -16 316 59 c 1,7,-1
 234 -56 l 1,8,-1
 67 -56 l 1,9,-1
 210 143 l 1,10,11
 141 217 141 217 102 322 c 128,-1,12
 63 427 63 427 63 558 c 2,13,-1
 63 606 l 2,14,15
 63 784 63 784 132 912.5 c 128,-1,16
 201 1041 201 1041 323.5 1111 c 128,-1,17
 446 1181 446 1181 606 1181 c 0,18,19
 774 1181 774 1181 902 1103 c 1,20,-1
 983 1215 l 1,21,-1
 1148 1215 l 1,22,-1
 1006 1018 l 1,23,24
 1074 943 1074 943 1112 839 c 128,-1,25
 1150 735 1150 735 1150 606 c 2,0,-1
353 558 m 2,26,27
 353 454 353 454 379 378 c 1,28,-1
 759 904 l 1,29,30
 697 957 697 957 606 957 c 0,31,32
 483 957 483 957 418 866 c 128,-1,33
 353 775 353 775 353 608 c 2,34,-1
 353 558 l 2,26,27
861 558 m 2,35,-1
 861 608 l 2,36,37
 861 707 861 707 836 781 c 1,38,-1
 459 257 l 1,39,40
 519 207 519 207 608 207 c 0,41,42
 727 207 727 207 794 299.5 c 128,-1,43
 861 392 861 392 861 558 c 2,35,-1
EndSplineSet
EndChar

StartChar: P
Encoding: 80 80 213
Width: 1320
VWidth: 1798
GlyphClass: 2
Flags: W
AnchorPoint: "Anchor-1" 613 -240 basechar 0
AnchorPoint: "Anchor-0" 606 1362 basechar 0
LayerCount: 2
Fore
SplineSet
697 269 m 2,0,-1
 430 269 l 1,1,-1
 430 -250 l 1,2,-1
 130 -250 l 1,3,-1
 130 1206 l 1,4,-1
 697 1206 l 2,5,6
 869 1206 869 1206 991 1144 c 128,-1,7
 1113 1082 1113 1082 1178 974 c 128,-1,8
 1243 866 1243 866 1243 728 c 0,9,10
 1243 517 1243 517 1098.5 393 c 128,-1,11
 954 269 954 269 697 269 c 2,0,-1
697 971 m 2,12,-1
 430 971 l 1,13,-1
 430 503 l 1,14,-1
 697 503 l 2,15,16
 826 503 826 503 883.5 566 c 128,-1,17
 941 629 941 629 941 726 c 256,18,19
 941 823 941 823 883.5 897 c 128,-1,20
 826 971 826 971 697 971 c 2,12,-1
EndSplineSet
Substitution2: "'c2sc' Capitals to Small Capitals lookup 0 subtable" P.smcp
Position2: "'cpsp' Capital Spacing lookup 0 subtable" dx=36 dy=0 dh=72 dv=0
EndChar

StartChar: P.smcp
Encoding: 65662 -1 214
Width: 1143
GlyphClass: 2
Flags: W
AnchorPoint: "Anchor-1" 574 0 basechar 0
AnchorPoint: "Anchor-0" 576 1320 basechar 0
LayerCount: 2
Fore
SplineSet
595 389 m 2,0,-1
 388 389 l 1,1,-1
 388 0 l 1,2,-1
 100 0 l 1,3,-1
 100 1165 l 1,4,-1
 595 1165 l 2,5,6
 745 1165 745 1165 852.5 1113 c 128,-1,7
 960 1061 960 1061 1017.5 971 c 128,-1,8
 1075 881 1075 881 1075 765 c 0,9,10
 1075 596 1075 596 947.5 492.5 c 128,-1,11
 820 389 820 389 595 389 c 2,0,-1
595 940 m 2,12,-1
 388 940 l 1,13,-1
 388 614 l 1,14,-1
 595 614 l 2,15,16
 694 614 694 614 741 656.5 c 128,-1,17
 788 699 788 699 788 763 c 0,18,19
 788 834 788 834 741 887 c 128,-1,20
 694 940 694 940 595 940 c 2,12,-1
EndSplineSet
EndChar

StartChar: Q
Encoding: 81 81 215
Width: 1412
VWidth: 1798
GlyphClass: 2
Flags: W
AnchorPoint: "Anchor-1" 698 -260 basechar 0
AnchorPoint: "Anchor-0" 700 1350 basechar 0
LayerCount: 2
Fore
SplineSet
1325 512 m 2,0,-1
 1325 443 l 2,1,2
 1325 240 1325 240 1258 87.5 c 128,-1,3
 1191 -65 1191 -65 1072 -154 c 1,4,-1
 1315 -346 l 1,5,-1
 1126 -510 l 1,6,-1
 817 -261 l 1,7,8
 763 -270 763 -270 706 -270 c 0,9,10
 523 -270 523 -270 383 -184 c 128,-1,11
 243 -98 243 -98 163.5 62 c 128,-1,12
 84 222 84 222 84 443 c 2,13,-1
 84 512 l 2,14,15
 84 734 84 734 162.5 894 c 128,-1,16
 241 1054 241 1054 381 1140 c 128,-1,17
 521 1226 521 1226 704 1226 c 256,18,19
 887 1226 887 1226 1027 1140 c 128,-1,20
 1167 1054 1167 1054 1246 894 c 128,-1,21
 1325 734 1325 734 1325 512 c 2,0,-1
1022 443 m 2,22,-1
 1022 514 l 2,23,24
 1022 744 1022 744 939 865.5 c 128,-1,25
 856 987 856 987 704 987 c 256,26,27
 552 987 552 987 470 865.5 c 128,-1,28
 388 744 388 744 388 514 c 2,29,-1
 388 443 l 2,30,31
 388 214 388 214 471 91 c 128,-1,32
 554 -32 554 -32 706 -32 c 256,33,34
 858 -32 858 -32 940 91 c 128,-1,35
 1022 214 1022 214 1022 443 c 2,22,-1
EndSplineSet
Substitution2: "'c2sc' Capitals to Small Capitals lookup 0 subtable" Q.smcp
Position2: "'cpsp' Capital Spacing lookup 0 subtable" dx=36 dy=0 dh=72 dv=0
EndChar

StartChar: Q.smcp
Encoding: 65663 -1 216
Width: 1215
GlyphClass: 2
Flags: W
AnchorPoint: "Anchor-1" 599 -10 basechar 0
AnchorPoint: "Anchor-0" 599 1320 basechar 0
LayerCount: 2
Fore
SplineSet
1151 606 m 2,0,-1
 1151 558 l 2,1,2
 1151 399 1151 399 1095 278.5 c 128,-1,3
 1039 158 1039 158 940 85 c 1,4,-1
 1138 -64 l 1,5,-1
 958 -215 l 1,6,-1
 691 -11 l 1,7,8
 651 -16 651 -16 609 -16 c 0,9,10
 449 -16 449 -16 326.5 53.5 c 128,-1,11
 204 123 204 123 135 252 c 128,-1,12
 66 381 66 381 66 558 c 2,13,-1
 66 606 l 2,14,15
 66 784 66 784 134.5 912.5 c 128,-1,16
 203 1041 203 1041 325.5 1111 c 128,-1,17
 448 1181 448 1181 608 1181 c 0,18,19
 767 1181 767 1181 889.5 1111 c 128,-1,20
 1012 1041 1012 1041 1081.5 912.5 c 128,-1,21
 1151 784 1151 784 1151 606 c 2,0,-1
864 558 m 2,22,-1
 864 608 l 2,23,24
 864 775 864 775 796 866 c 128,-1,25
 728 957 728 957 608 957 c 0,26,27
 484 957 484 957 419 866 c 128,-1,28
 354 775 354 775 354 608 c 2,29,-1
 354 558 l 2,30,31
 354 392 354 392 420 299.5 c 128,-1,32
 486 207 486 207 609 207 c 0,33,34
 729 207 729 207 796.5 299.5 c 128,-1,35
 864 392 864 392 864 558 c 2,22,-1
EndSplineSet
EndChar

StartChar: R
Encoding: 82 82 217
Width: 1312
VWidth: 1798
GlyphClass: 2
Flags: W
AnchorPoint: "Anchor-1" 611 -240 basechar 0
AnchorPoint: "Anchor-0" 610 1351 basechar 0
LayerCount: 2
Fore
SplineSet
944 -250 m 1,0,-1
 668 289 l 1,1,-1
 430 289 l 1,2,-1
 430 -250 l 1,3,-1
 130 -250 l 1,4,-1
 130 1206 l 1,5,-1
 673 1206 l 2,6,7
 923 1206 923 1206 1067 1094 c 128,-1,8
 1211 982 1211 982 1211 767 c 0,9,10
 1211 610 1211 610 1140.5 512 c 128,-1,11
 1070 414 1070 414 950 361 c 1,12,-1
 1265 -236 l 1,13,-1
 1265 -250 l 1,14,-1
 944 -250 l 1,0,-1
673 971 m 2,15,-1
 430 971 l 1,16,-1
 430 523 l 1,17,-1
 675 523 l 2,18,19
 793 523 793 523 852 584.5 c 128,-1,20
 911 646 911 646 911 745 c 0,21,22
 911 849 911 849 852 910 c 128,-1,23
 793 971 793 971 673 971 c 2,15,-1
EndSplineSet
Substitution2: "'c2sc' Capitals to Small Capitals lookup 0 subtable" R.smcp
Position2: "'cpsp' Capital Spacing lookup 0 subtable" dx=36 dy=0 dh=72 dv=0
EndChar

StartChar: R.smcp
Encoding: 65664 -1 218
Width: 1147
GlyphClass: 2
Flags: W
AnchorPoint: "Anchor-1" 525 8 basechar 0
AnchorPoint: "Anchor-0" 520 1320 basechar 0
LayerCount: 2
Fore
SplineSet
790 0 m 1,0,-1
 570 406 l 1,1,-1
 388 406 l 1,2,-1
 388 0 l 1,3,-1
 99 0 l 1,4,-1
 99 1165 l 1,5,-1
 586 1165 l 2,6,7
 801 1165 801 1165 929 1076 c 128,-1,8
 1057 987 1057 987 1057 815 c 0,9,10
 1057 677 1057 677 996.5 600.5 c 128,-1,11
 936 524 936 524 837 481 c 1,12,-1
 1101 12 l 1,13,-1
 1101 0 l 1,14,-1
 790 0 l 1,0,-1
586 940 m 2,15,-1
 388 940 l 1,16,-1
 388 631 l 1,17,-1
 588 631 l 2,18,19
 678 631 678 631 723 672 c 128,-1,20
 768 713 768 713 768 786 c 256,21,22
 768 859 768 859 721.5 899.5 c 128,-1,23
 675 940 675 940 586 940 c 2,15,-1
EndSplineSet
EndChar

StartChar: S
Encoding: 83 83 225
Width: 1261
VWidth: 1798
GlyphClass: 2
Flags: W
AnchorPoint: "Anchor-1" 628 -251 basechar 0
AnchorPoint: "Anchor-0" 622 1353 basechar 0
LayerCount: 2
Fore
SplineSet
888 131 m 0,0,1
 888 184 888 184 866 222.5 c 128,-1,2
 844 261 844 261 782.5 295 c 128,-1,3
 721 329 721 329 602 366 c 0,4,5
 469 409 469 409 358 467 c 128,-1,6
 247 525 247 525 180.5 610.5 c 128,-1,7
 114 696 114 696 114 821 c 0,8,9
 114 942 114 942 183.5 1033 c 128,-1,10
 253 1124 253 1124 374.5 1175 c 128,-1,11
 496 1226 496 1226 653 1226 c 0,12,13
 814 1226 814 1226 934 1168 c 128,-1,14
 1054 1110 1054 1110 1120.5 1009 c 128,-1,15
 1187 908 1187 908 1187 778 c 1,16,-1
 889 778 l 1,17,18
 889 873 889 873 829.5 934.5 c 128,-1,19
 770 996 770 996 648 996 c 0,20,21
 530 996 530 996 472 945 c 128,-1,22
 414 894 414 894 414 820 c 0,23,24
 414 747 414 747 488 697 c 128,-1,25
 562 647 562 647 704 603 c 0,26,27
 941 531 941 531 1064.5 421.5 c 128,-1,28
 1188 312 1188 312 1188 133 c 0,29,30
 1188 -57 1188 -57 1043.5 -163.5 c 128,-1,31
 899 -270 899 -270 660 -270 c 0,32,33
 552 -270 552 -270 446.5 -241.5 c 128,-1,34
 341 -213 341 -213 256 -154.5 c 128,-1,35
 171 -96 171 -96 120 -6.5 c 128,-1,36
 69 83 69 83 69 206 c 1,37,-1
 370 206 l 1,38,39
 370 71 370 71 450.5 15 c 128,-1,40
 531 -41 531 -41 660 -41 c 0,41,42
 776 -41 776 -41 832 8 c 128,-1,43
 888 57 888 57 888 131 c 0,0,1
EndSplineSet
Substitution2: "'c2sc' Capitals to Small Capitals lookup 0 subtable" S.smcp
Position2: "'cpsp' Capital Spacing lookup 0 subtable" dx=36 dy=0 dh=72 dv=0
EndChar

StartChar: S.smcp
Encoding: 65668 -1 226
Width: 1099
GlyphClass: 2
Flags: W
AnchorPoint: "Anchor-1" 552 0 basechar 0
AnchorPoint: "Anchor-0" 543 1320 basechar 0
LayerCount: 2
Fore
SplineSet
750 312 m 0,0,1
 750 370 750 370 703 406.5 c 128,-1,2
 656 443 656 443 527 474 c 0,3,4
 307 526 307 526 203 604.5 c 128,-1,5
 99 683 99 683 99 840 c 0,6,7
 99 941 99 941 157 1018 c 128,-1,8
 215 1095 215 1095 316 1138 c 128,-1,9
 417 1181 417 1181 546 1181 c 0,10,11
 688 1181 688 1181 796 1137.5 c 128,-1,12
 904 1094 904 1094 965 1013 c 128,-1,13
 1026 932 1026 932 1026 819 c 1,14,-1
 738 819 l 1,15,16
 738 881 738 881 688.5 927.5 c 128,-1,17
 639 974 639 974 547 974 c 0,18,19
 456 974 456 974 414 934 c 128,-1,20
 372 894 372 894 372 850 c 0,21,22
 372 798 372 798 420.5 765.5 c 128,-1,23
 469 733 469 733 588 702 c 1,24,25
 807 654 807 654 915.5 567.5 c 128,-1,26
 1024 481 1024 481 1024 320 c 0,27,28
 1024 160 1024 160 898 72 c 128,-1,29
 772 -16 772 -16 565 -16 c 0,30,31
 472 -16 472 -16 382 6 c 128,-1,32
 292 28 292 28 219 74 c 128,-1,33
 146 120 146 120 102.5 193.5 c 128,-1,34
 59 267 59 267 59 369 c 1,35,-1
 348 369 l 1,36,37
 348 274 348 274 406.5 232 c 128,-1,38
 465 190 465 190 580 190 c 0,39,40
 676 190 676 190 713 229.5 c 128,-1,41
 750 269 750 269 750 312 c 0,0,1
EndSplineSet
EndChar

StartChar: Schwa
Encoding: 399 399 233
Width: 1425
VWidth: 1798
GlyphClass: 2
Flags: W
AnchorPoint: "Anchor-1" 696 -250 basechar 0
AnchorPoint: "Anchor-0" 661 1353 basechar 0
LayerCount: 2
Fore
SplineSet
704 -271 m 0,0,1
 499 -271 499 -271 359.5 -187.5 c 128,-1,2
 220 -104 220 -104 148.5 49.5 c 128,-1,3
 77 203 77 203 77 411 c 2,4,-1
 77 571 l 1,5,-1
 1030 571 l 1,6,7
 1026 683 1026 683 986 774 c 128,-1,8
 946 865 946 865 858 919 c 128,-1,9
 770 973 770 973 623 973 c 0,10,11
 488 973 488 973 389.5 951 c 128,-1,12
 291 929 291 929 232 907 c 1,13,-1
 184 1145 l 1,14,15
 207 1157 207 1157 274 1176.5 c 128,-1,16
 341 1196 341 1196 436.5 1211.5 c 128,-1,17
 532 1227 532 1227 639 1227 c 0,18,19
 865 1227 865 1227 1018 1140 c 128,-1,20
 1171 1053 1171 1053 1249.5 900 c 128,-1,21
 1328 747 1328 747 1328 549 c 2,22,-1
 1328 403 l 2,23,24
 1328 204 1328 204 1245.5 52.5 c 128,-1,25
 1163 -99 1163 -99 1022 -185 c 128,-1,26
 881 -271 881 -271 704 -271 c 0,0,1
704 -18 m 0,27,28
 849 -18 849 -18 930.5 84 c 128,-1,29
 1012 186 1012 186 1027 336 c 1,30,-1
 376 336 l 1,31,-1
 376 304 l 2,32,33
 376 215 376 215 408 141.5 c 128,-1,34
 440 68 440 68 512.5 25 c 128,-1,35
 585 -18 585 -18 704 -18 c 0,27,28
EndSplineSet
EndChar

StartChar: T
Encoding: 84 84 237
Width: 1269
VWidth: 1798
GlyphClass: 2
Flags: W
AnchorPoint: "Anchor-1" 614 -250 basechar 0
AnchorPoint: "Anchor-0" 612 1350 basechar 0
LayerCount: 2
Fore
SplineSet
1229 1206 m 1,0,-1
 1229 971 l 1,1,-1
 781 971 l 1,2,-1
 781 -250 l 1,3,-1
 482 -250 l 1,4,-1
 482 971 l 1,5,-1
 41 971 l 1,6,-1
 41 1206 l 1,7,-1
 1229 1206 l 1,0,-1
EndSplineSet
Substitution2: "'c2sc' Capitals to Small Capitals lookup 0 subtable" T.smcp
Position2: "'cpsp' Capital Spacing lookup 0 subtable" dx=36 dy=0 dh=72 dv=0
EndChar

StartChar: T.smcp
Encoding: 65674 -1 238
Width: 1107
GlyphClass: 2
Flags: W
AnchorPoint: "Anchor-1" 531 3 basechar 0
AnchorPoint: "Anchor-0" 530 1320 basechar 0
LayerCount: 2
Fore
SplineSet
1073 1165 m 1,0,-1
 1073 940 l 1,1,-1
 694 940 l 1,2,-1
 694 0 l 1,3,-1
 404 0 l 1,4,-1
 404 940 l 1,5,-1
 33 940 l 1,6,-1
 33 1165 l 1,7,-1
 1073 1165 l 1,0,-1
EndSplineSet
EndChar

StartChar: Tbar
Encoding: 358 358 239
Width: 1269
VWidth: 1798
GlyphClass: 2
Flags: W
AnchorPoint: "Anchor-1" 614 -250 basechar 0
AnchorPoint: "Anchor-0" 612 1350 basechar 0
LayerCount: 2
Fore
SplineSet
964 683 m 1,0,-1
 964 505 l 1,1,-1
 781 505 l 1,2,-1
 781 -250 l 1,3,-1
 482 -250 l 1,4,-1
 482 505 l 1,5,-1
 263 505 l 1,6,-1
 263 683 l 1,7,-1
 482 683 l 1,8,-1
 482 971 l 1,9,-1
 41 971 l 1,10,-1
 41 1206 l 1,11,-1
 1229 1206 l 1,12,-1
 1229 971 l 1,13,-1
 781 971 l 1,14,-1
 781 683 l 1,15,-1
 964 683 l 1,0,-1
EndSplineSet
Substitution2: "'c2sc' Capitals to Small Capitals lookup 0 subtable" Tbar.smcp
Position2: "'cpsp' Capital Spacing lookup 0 subtable" dx=36 dy=0 dh=72 dv=0
EndChar

StartChar: Thorn
Encoding: 222 222 244
Width: 1248
VWidth: 1798
GlyphClass: 2
Flags: W
LayerCount: 2
Fore
SplineSet
133 1206 m 1,0,-1
 422 1206 l 1,1,-1
 422 937 l 1,2,-1
 646 937 l 2,3,4
 820 937 820 937 940 879 c 128,-1,5
 1060 821 1060 821 1121.5 720 c 128,-1,6
 1183 619 1183 619 1183 488 c 0,7,8
 1183 358 1183 358 1121.5 257 c 128,-1,9
 1060 156 1060 156 940 98 c 128,-1,10
 820 40 820 40 646 40 c 2,11,-1
 422 40 l 1,12,-1
 422 -250 l 1,13,-1
 133 -250 l 1,14,-1
 133 1206 l 1,0,-1
646 712 m 2,15,-1
 422 712 l 1,16,-1
 422 264 l 1,17,-1
 646 264 l 2,18,19
 779 264 779 264 836.5 332.5 c 128,-1,20
 894 401 894 401 894 486 c 0,21,22
 894 574 894 574 836.5 643 c 128,-1,23
 779 712 779 712 646 712 c 2,15,-1
EndSplineSet
Substitution2: "'c2sc' Capitals to Small Capitals lookup 0 subtable" Thorn.smcp
Position2: "'cpsp' Capital Spacing lookup 0 subtable" dx=36 dy=0 dh=72 dv=0
EndChar

StartChar: Thorn.smcp
Encoding: 65678 -1 245
Width: 1043
GlyphClass: 2
Flags: W
AnchorPoint: "Anchor-1" 450 10 basechar 0
AnchorPoint: "Anchor-0" 526 1320 basechar 0
LayerCount: 2
Fore
SplineSet
100 0 m 1,0,-1
 100 1165 l 1,1,-1
 388 1165 l 1,2,-1
 388 998 l 1,3,-1
 518 998 l 2,4,5
 668 998 668 998 775.5 948 c 128,-1,6
 883 898 883 898 940.5 811 c 128,-1,7
 998 724 998 724 998 612 c 0,8,9
 998 437 998 437 870.5 329.5 c 128,-1,10
 743 222 743 222 518 222 c 2,11,-1
 388 222 l 1,12,-1
 388 0 l 1,13,-1
 100 0 l 1,0,-1
518 773 m 2,14,-1
 388 773 l 1,15,-1
 388 447 l 1,16,-1
 518 447 l 2,17,18
 617 447 617 447 664 493.5 c 128,-1,19
 711 540 711 540 711 610 c 0,20,21
 711 675 711 675 664 724 c 128,-1,22
 617 773 617 773 518 773 c 2,14,-1
EndSplineSet
EndChar

StartChar: U
Encoding: 85 85 246
Width: 1350
VWidth: 1798
GlyphClass: 2
Flags: W
AnchorPoint: "Anchor-1" 666 -250 basechar 0
AnchorPoint: "Anchor-0" 667 1351 basechar 0
LayerCount: 2
Fore
SplineSet
934 1206 m 1,0,-1
 1233 1206 l 1,1,-1
 1233 244 l 2,2,3
 1233 76 1233 76 1161.5 -38.5 c 128,-1,4
 1090 -153 1090 -153 964.5 -211.5 c 128,-1,5
 839 -270 839 -270 676 -270 c 256,6,7
 513 -270 513 -270 386.5 -211.5 c 128,-1,8
 260 -153 260 -153 188.5 -38.5 c 128,-1,9
 117 76 117 76 117 244 c 2,10,-1
 117 1206 l 1,11,-1
 417 1206 l 1,12,-1
 417 244 l 2,13,14
 417 98 417 98 486 31 c 128,-1,15
 555 -36 555 -36 676 -36 c 0,16,17
 798 -36 798 -36 866 31 c 128,-1,18
 934 98 934 98 934 244 c 2,19,-1
 934 1206 l 1,0,-1
EndSplineSet
Substitution2: "'unic' Unicase lookup 2 subtable" U.unic
Substitution2: "'c2sc' Capitals to Small Capitals lookup 0 subtable" U.smcp
Position2: "'cpsp' Capital Spacing lookup 0 subtable" dx=36 dy=0 dh=72 dv=0
EndChar

StartChar: U.smcp
Encoding: 65679 -1 247
Width: 1169
GlyphClass: 2
Flags: W
AnchorPoint: "Anchor-1" 574 0 basechar 0
AnchorPoint: "Anchor-0" 576 1320 basechar 0
LayerCount: 2
Fore
SplineSet
785 1165 m 1,0,-1
 1074 1165 l 1,1,-1
 1074 407 l 2,2,3
 1074 202 1074 202 939.5 93 c 128,-1,4
 805 -16 805 -16 585 -16 c 0,5,6
 367 -16 367 -16 231 93 c 128,-1,7
 95 202 95 202 95 407 c 2,8,-1
 95 1165 l 1,9,-1
 383 1165 l 1,10,-1
 383 407 l 2,11,12
 383 302 383 302 436 255 c 128,-1,13
 489 208 489 208 585 208 c 0,14,15
 682 208 682 208 733.5 255 c 128,-1,16
 785 302 785 302 785 407 c 2,17,-1
 785 1165 l 1,0,-1
EndSplineSet
EndChar

StartChar: U.unic
Encoding: 65680 -1 248
Width: 1446
GlyphClass: 2
Flags: W
AnchorPoint: "Anchor-1" 721 0 basechar 0
AnchorPoint: "Anchor-0" 722 1632 basechar 0
LayerCount: 2
Fore
SplineSet
1033 0 m 1,0,-1
 1021 154 l 1,1,2
 944 73 944 73 834 26.5 c 128,-1,3
 724 -20 724 -20 591 -20 c 0,4,5
 450 -20 450 -20 346.5 32 c 128,-1,6
 243 84 243 84 186.5 199.5 c 128,-1,7
 130 315 130 315 130 505 c 2,8,-1
 130 1456 l 1,9,-1
 429 1456 l 1,10,-1
 429 536 l 2,11,12
 429 361 429 361 501.5 294.5 c 128,-1,13
 574 228 574 228 683 228 c 0,14,15
 753 228 753 228 820.5 260 c 128,-1,16
 888 292 888 292 940 349 c 128,-1,17
 992 406 992 406 1015 481 c 1,18,-1
 1015 1456 l 1,19,-1
 1315 1456 l 1,20,-1
 1315 0 l 1,21,-1
 1033 0 l 1,0,-1
EndSplineSet
EndChar

StartChar: Uhorn
Encoding: 431 431 263
Width: 1459
VWidth: 1798
GlyphClass: 2
Flags: W
AnchorPoint: "Anchor-1" 692 -259 basechar 0
AnchorPoint: "Anchor-0" 694 1362 basechar 0
LayerCount: 2
Fore
SplineSet
934 1206 m 1,0,-1
 1233 1206 l 1,1,-1
 1233 980 l 1,2,3
 1322 987 1322 987 1363.5 1025 c 128,-1,4
 1405 1063 1405 1063 1417 1129.5 c 128,-1,5
 1429 1196 1429 1196 1429 1287 c 1,6,-1
 1619 1287 l 1,7,8
 1619 1145 1619 1145 1584 1044 c 128,-1,9
 1549 943 1549 943 1465 887 c 128,-1,10
 1381 831 1381 831 1233 825 c 1,11,-1
 1233 244 l 2,12,13
 1233 76 1233 76 1161.5 -38.5 c 128,-1,14
 1090 -153 1090 -153 964.5 -211.5 c 128,-1,15
 839 -270 839 -270 676 -270 c 256,16,17
 513 -270 513 -270 386.5 -211.5 c 128,-1,18
 260 -153 260 -153 188.5 -38.5 c 128,-1,19
 117 76 117 76 117 244 c 2,20,-1
 117 1206 l 1,21,-1
 417 1206 l 1,22,-1
 417 244 l 2,23,24
 417 98 417 98 486 31 c 128,-1,25
 555 -36 555 -36 676 -36 c 0,26,27
 798 -36 798 -36 866 31 c 128,-1,28
 934 98 934 98 934 244 c 2,29,-1
 934 1206 l 1,0,-1
EndSplineSet
EndChar

StartChar: Uogonek
Encoding: 370 370 270
Width: 1350
VWidth: 1798
GlyphClass: 2
Flags: W
AnchorPoint: "Anchor-1" 666 -250 basechar 0
AnchorPoint: "Anchor-0" 667 1351 basechar 0
LayerCount: 2
Fore
SplineSet
934 1206 m 1,0,-1
 1233 1206 l 1,1,-1
 1233 244 l 2,2,3
 1233 94 1233 94 1175 -13.5 c 128,-1,4
 1117 -121 1117 -121 1016 -184 c 1,5,-1
 1016 -184 l 1,6,-1
 1015 -185 l 2,7,8
 1006 -190 1006 -190 998 -195 c 0,9,10
 931 -235 931 -235 896 -274.5 c 128,-1,11
 861 -314 861 -314 861 -365 c 0,12,13
 861 -393 861 -393 876 -412 c 128,-1,14
 891 -431 891 -431 927 -431 c 0,15,16
 955 -431 955 -431 974 -424 c 128,-1,17
 993 -417 993 -417 1006 -410 c 1,18,-1
 1037 -563 l 1,19,20
 1012 -578 1012 -578 972.5 -592.5 c 128,-1,21
 933 -607 933 -607 873 -607 c 0,22,23
 779 -607 779 -607 712.5 -554 c 128,-1,24
 646 -501 646 -501 646 -400 c 0,25,26
 646 -367 646 -367 654.5 -334 c 128,-1,27
 663 -301 663 -301 682 -270 c 1,28,29
 679 -270 679 -270 676 -270 c 0,30,31
 513 -270 513 -270 386.5 -211.5 c 128,-1,32
 260 -153 260 -153 188.5 -38.5 c 128,-1,33
 117 76 117 76 117 244 c 2,34,-1
 117 1206 l 1,35,-1
 417 1206 l 1,36,-1
 417 244 l 2,37,38
 417 98 417 98 486 31 c 128,-1,39
 555 -36 555 -36 676 -36 c 0,40,41
 798 -36 798 -36 866 31 c 128,-1,42
 934 98 934 98 934 244 c 2,43,-1
 934 1206 l 1,0,-1
EndSplineSet
Substitution2: "'unic' Unicase lookup 2 subtable" Uogonek.unic
Substitution2: "'c2sc' Capitals to Small Capitals lookup 0 subtable" Uogonek.smcp
Position2: "'cpsp' Capital Spacing lookup 0 subtable" dx=36 dy=0 dh=72 dv=0
EndChar

StartChar: Uogonek.smcp
Encoding: 65694 -1 271
Width: 1169
GlyphClass: 2
Flags: W
AnchorPoint: "Anchor-1" 574 0 basechar 0
AnchorPoint: "Anchor-0" 576 1320 basechar 0
LayerCount: 2
Fore
SplineSet
785 1165 m 1,0,-1
 1074 1165 l 1,1,-1
 1074 407 l 2,2,3
 1074 261 1074 261 1004.5 163.5 c 128,-1,4
 935 66 935 66 814 21 c 1,5,6
 766 -12 766 -12 741.5 -46 c 128,-1,7
 717 -80 717 -80 717 -123 c 0,8,9
 717 -151 717 -151 731.5 -170 c 128,-1,10
 746 -189 746 -189 783 -189 c 0,11,12
 811 -189 811 -189 830 -182 c 128,-1,13
 849 -175 849 -175 862 -168 c 1,14,-1
 893 -321 l 1,15,16
 868 -336 868 -336 828.5 -350.5 c 128,-1,17
 789 -365 789 -365 728 -365 c 0,18,19
 634 -365 634 -365 568 -312.5 c 128,-1,20
 502 -260 502 -260 502 -159 c 0,21,22
 502 -122 502 -122 512.5 -85.5 c 128,-1,23
 523 -49 523 -49 547 -15 c 1,24,25
 344 -6 344 -6 219.5 102.5 c 128,-1,26
 95 211 95 211 95 407 c 2,27,-1
 95 1165 l 1,28,-1
 383 1165 l 1,29,-1
 383 407 l 2,30,31
 383 302 383 302 436 255 c 128,-1,32
 489 208 489 208 585 208 c 0,33,34
 682 208 682 208 733.5 255 c 128,-1,35
 785 302 785 302 785 407 c 2,36,-1
 785 1165 l 1,0,-1
EndSplineSet
EndChar

StartChar: V
Encoding: 86 86 279
Width: 1338
VWidth: 1798
GlyphClass: 2
Flags: W
AnchorPoint: "Anchor-1" 655 -240 basechar 0
AnchorPoint: "Anchor-0" 655 1362 basechar 0
LayerCount: 2
Fore
SplineSet
339 1206 m 1,0,-1
 668 98 l 1,1,-1
 998 1206 l 1,2,-1
 1332 1206 l 1,3,-1
 825 -250 l 1,4,-1
 511 -250 l 1,5,-1
 7 1206 l 1,6,-1
 339 1206 l 1,0,-1
EndSplineSet
Substitution2: "'c2sc' Capitals to Small Capitals lookup 0 subtable" V.smcp
Position2: "'cpsp' Capital Spacing lookup 0 subtable" dx=36 dy=0 dh=72 dv=0
EndChar

StartChar: V.smcp
Encoding: 65700 -1 280
Width: 1159
GlyphClass: 2
Flags: W
AnchorPoint: "Anchor-1" 561 10 basechar 0
AnchorPoint: "Anchor-0" 561 1320 basechar 0
LayerCount: 2
Fore
SplineSet
588 312 m 1,0,-1
 858 1165 l 1,1,-1
 1161 1165 l 1,2,-1
 736 0 l 1,3,-1
 421 0 l 1,4,-1
 -2 1165 l 1,5,-1
 301 1165 l 1,6,-1
 567 315 l 1,7,-1
 578 263 l 1,8,-1
 588 312 l 1,0,-1
EndSplineSet
EndChar

StartChar: W
Encoding: 87 87 281
Width: 1792
VWidth: 1798
GlyphClass: 2
Flags: W
AnchorPoint: "Anchor-1" 922 -240 basechar 0
AnchorPoint: "Anchor-0" 924 1351 basechar 0
LayerCount: 2
Fore
SplineSet
332 1206 m 1,0,-1
 531 191 l 1,1,-1
 771 1206 l 1,2,-1
 1024 1206 l 1,3,-1
 1265 191 l 1,4,-1
 1462 1206 l 1,5,-1
 1759 1206 l 1,6,-1
 1437 -250 l 1,7,-1
 1134 -250 l 1,8,-1
 897 706 l 1,9,-1
 661 -250 l 1,10,-1
 358 -250 l 1,11,-1
 35 1206 l 1,12,-1
 332 1206 l 1,0,-1
EndSplineSet
Substitution2: "'c2sc' Capitals to Small Capitals lookup 0 subtable" W.smcp
Position2: "'cpsp' Capital Spacing lookup 0 subtable" dx=36 dy=0 dh=72 dv=0
EndChar

StartChar: W.smcp
Encoding: 65701 -1 282
Width: 1534
GlyphClass: 2
Flags: W
AnchorPoint: "Anchor-1" 786 10 basechar 0
AnchorPoint: "Anchor-0" 786 1320 basechar 0
LayerCount: 2
Fore
SplineSet
309 1165 m 1,0,-1
 458 382 l 1,1,-1
 638 1165 l 1,2,-1
 892 1165 l 1,3,-1
 1074 384 l 1,4,-1
 1222 1165 l 1,5,-1
 1499 1165 l 1,6,-1
 1230 0 l 1,7,-1
 942 0 l 1,8,-1
 764 727 l 1,9,-1
 590 0 l 1,10,-1
 301 0 l 1,11,-1
 31 1165 l 1,12,-1
 309 1165 l 1,0,-1
EndSplineSet
EndChar

StartChar: X
Encoding: 88 88 289
Width: 1300
VWidth: 1798
GlyphClass: 2
Flags: W
AnchorPoint: "Anchor-1" 645 -240 basechar 0
AnchorPoint: "Anchor-0" 653 1362 basechar 0
LayerCount: 2
Fore
SplineSet
377 1206 m 1,0,-1
 651 698 l 1,1,-1
 925 1206 l 1,2,-1
 1268 1206 l 1,3,-1
 845 484 l 1,4,-1
 1279 -250 l 1,5,-1
 933 -250 l 1,6,-1
 651 268 l 1,7,-1
 369 -250 l 1,8,-1
 21 -250 l 1,9,-1
 457 484 l 1,10,-1
 32 1206 l 1,11,-1
 377 1206 l 1,0,-1
EndSplineSet
Substitution2: "'c2sc' Capitals to Small Capitals lookup 0 subtable" X.smcp
Position2: "'cpsp' Capital Spacing lookup 0 subtable" dx=36 dy=0 dh=72 dv=0
EndChar

StartChar: X.smcp
Encoding: 65707 -1 290
Width: 1123
GlyphClass: 2
Flags: W
AnchorPoint: "Anchor-1" 550 8 basechar 0
AnchorPoint: "Anchor-0" 550 1320 basechar 0
LayerCount: 2
Fore
SplineSet
343 1165 m 1,0,-1
 547 784 l 1,1,-1
 754 1165 l 1,2,-1
 1087 1165 l 1,3,-1
 729 587 l 1,4,-1
 1116 0 l 1,5,-1
 774 0 l 1,6,-1
 551 389 l 1,7,-1
 336 0 l 1,8,-1
 2 0 l 1,9,-1
 371 587 l 1,10,-1
 12 1165 l 1,11,-1
 343 1165 l 1,0,-1
EndSplineSet
EndChar

StartChar: Y
Encoding: 89 89 291
Width: 1268
VWidth: 1798
GlyphClass: 2
Flags: W
AnchorPoint: "Anchor-1" 615 -249 basechar 0
AnchorPoint: "Anchor-0" 618 1350 basechar 0
LayerCount: 2
Fore
SplineSet
330 1206 m 1,0,-1
 634 542 l 1,1,-1
 938 1206 l 1,2,-1
 1265 1206 l 1,3,-1
 786 280 l 1,4,-1
 786 -250 l 1,5,-1
 482 -250 l 1,6,-1
 482 280 l 1,7,-1
 2 1206 l 1,8,-1
 330 1206 l 1,0,-1
EndSplineSet
Substitution2: "'c2sc' Capitals to Small Capitals lookup 0 subtable" Y.smcp
Position2: "'cpsp' Capital Spacing lookup 0 subtable" dx=36 dy=0 dh=72 dv=0
EndChar

StartChar: Y.smcp
Encoding: 65708 -1 292
Width: 1103
GlyphClass: 2
Flags: W
AnchorPoint: "Anchor-1" 533 10 basechar 0
AnchorPoint: "Anchor-0" 533 1320 basechar 0
LayerCount: 2
Fore
SplineSet
311 1165 m 1,0,-1
 551 663 l 1,1,-1
 792 1165 l 1,2,-1
 1104 1165 l 1,3,-1
 692 408 l 1,4,-1
 692 0 l 1,5,-1
 403 0 l 1,6,-1
 403 422 l 1,7,-1
 -2 1165 l 1,8,-1
 311 1165 l 1,0,-1
EndSplineSet
EndChar

StartChar: Z
Encoding: 90 90 301
Width: 1243
VWidth: 1798
GlyphClass: 2
Flags: W
AnchorPoint: "Anchor-1" 613 -240 basechar 0
AnchorPoint: "Anchor-0" 616 1351 basechar 0
LayerCount: 2
Fore
SplineSet
1183 -16 m 1,0,-1
 1183 -250 l 1,1,-1
 73 -250 l 1,2,-1
 73 -78 l 1,3,-1
 801 971 l 1,4,-1
 74 971 l 1,5,-1
 74 1206 l 1,6,-1
 1168 1206 l 1,7,-1
 1168 1039 l 1,8,-1
 444 -16 l 1,9,-1
 1183 -16 l 1,0,-1
EndSplineSet
Substitution2: "'c2sc' Capitals to Small Capitals lookup 0 subtable" Z.smcp
Position2: "'cpsp' Capital Spacing lookup 0 subtable" dx=36 dy=0 dh=72 dv=0
EndChar

StartChar: Z.smcp
Encoding: 65714 -1 302
Width: 1073
GlyphClass: 2
Flags: W
AnchorPoint: "Anchor-1" 533 10 basechar 0
AnchorPoint: "Anchor-0" 533 1320 basechar 0
LayerCount: 2
Fore
SplineSet
1030 224 m 1,0,-1
 1030 0 l 1,1,-1
 58 0 l 1,2,-1
 58 149 l 1,3,-1
 653 940 l 1,4,-1
 56 940 l 1,5,-1
 56 1165 l 1,6,-1
 1021 1165 l 1,7,-1
 1021 1020 l 1,8,-1
 433 224 l 1,9,-1
 1030 224 l 1,0,-1
EndSplineSet
EndChar

StartChar: a
Encoding: 97 97 309
Width: 1096
VWidth: 1798
GlyphClass: 2
Flags: W
AnchorPoint: "Anchor-1" 502 -250 basechar 0
AnchorPoint: "Anchor-0" 582 1040 basechar 0
LayerCount: 2
Fore
SplineSet
738 -250 m 1,0,1
 719 -211 719 -211 708 -149 c 1,2,3
 665 -199 665 -199 598 -234.5 c 128,-1,4
 531 -270 531 -270 433 -270 c 0,5,6
 330 -270 330 -270 246.5 -228 c 128,-1,7
 163 -186 163 -186 114.5 -113 c 128,-1,8
 66 -40 66 -40 66 54 c 0,9,10
 66 224 66 224 192 316.5 c 128,-1,11
 318 409 318 409 567 409 c 2,12,-1
 696 409 l 1,13,-1
 696 476 l 2,14,15
 696 553 696 553 657.5 599 c 128,-1,16
 619 645 619 645 535 645 c 0,17,18
 462 645 462 645 420.5 608.5 c 128,-1,19
 379 572 379 572 379 510 c 1,20,-1
 91 510 l 1,21,22
 91 603 91 603 147.5 680.5 c 128,-1,23
 204 758 204 758 307.5 805 c 128,-1,24
 411 852 411 852 551 852 c 0,25,26
 676 852 676 852 774.5 810 c 128,-1,27
 873 768 873 768 929.5 684 c 128,-1,28
 986 600 986 600 986 474 c 2,29,-1
 986 11 l 2,30,31
 986 -78 986 -78 997 -135 c 128,-1,32
 1008 -192 1008 -192 1029 -233 c 1,33,-1
 1029 -250 l 1,34,-1
 738 -250 l 1,0,1
496 -55 m 0,35,36
 570 -55 570 -55 622 -21 c 128,-1,37
 674 13 674 13 696 55 c 1,38,-1
 696 246 l 1,39,-1
 575 246 l 2,40,41
 460 246 460 246 407.5 197 c 128,-1,42
 355 148 355 148 355 74 c 0,43,44
 355 18 355 18 393 -18.5 c 128,-1,45
 431 -55 431 -55 496 -55 c 0,35,36
EndSplineSet
Substitution2: "'unic' Unicase lookup 2 subtable" A.unic
Substitution2: "'smcp' Lowercase to Small Capitals lookup 1 subtable" A.smcp
EndChar

StartChar: acute
Encoding: 180 180 313
Width: 676
VWidth: 1798
GlyphClass: 2
Flags: W
LayerCount: 2
Fore
SplineSet
101 978 m 1,0,-1
 297 1286 l 1,1,-1
 610 1286 l 1,2,-1
 335 978 l 1,3,-1
 101 978 l 1,0,-1
EndSplineSet
EndChar

StartChar: acutecomb
Encoding: 769 769 314
Width: 0
VWidth: 1798
GlyphClass: 4
Flags: W
AnchorPoint: "Anchor-3" -566 1391 basemark 0
AnchorPoint: "Anchor-3" -566 1040 mark 0
AnchorPoint: "Anchor-0" -566 1040 mark 0
LayerCount: 2
Fore
SplineSet
-680 978 m 1,0,-1
 -484 1286 l 1,1,-1
 -171 1286 l 1,2,-1
 -446 978 l 1,3,-1
 -680 978 l 1,0,-1
EndSplineSet
EndChar

StartChar: ae
Encoding: 230 230 316
Width: 1730
VWidth: 1798
GlyphClass: 2
Flags: W
AnchorPoint: "Anchor-0" 859 1041 basechar 0
LayerCount: 2
Fore
SplineSet
1246 -270 m 0,0,1
 1120 -270 1120 -270 1023 -231 c 128,-1,2
 926 -192 926 -192 861 -122 c 1,3,4
 807 -180 807 -180 709.5 -225 c 128,-1,5
 612 -270 612 -270 469 -270 c 0,6,7
 274 -270 274 -270 170.5 -178 c 128,-1,8
 67 -86 67 -86 67 68 c 0,9,10
 67 226 67 226 193.5 312.5 c 128,-1,11
 320 399 320 399 564 399 c 2,12,-1
 727 399 l 1,13,-1
 727 457 l 2,14,15
 727 537 727 537 686 582 c 128,-1,16
 645 627 645 627 568 627 c 0,17,18
 483 627 483 627 436.5 588.5 c 128,-1,19
 390 550 390 550 390 496 c 1,20,-1
 102 515 l 1,21,22
 102 613 102 613 160 689 c 128,-1,23
 218 765 218 765 324 808.5 c 128,-1,24
 430 852 430 852 572 852 c 0,25,26
 784 852 784 852 899 743 c 1,27,28
 960 795 960 795 1041.5 824 c 128,-1,29
 1123 853 1123 853 1224 852 c 0,30,31
 1437 852 1437 852 1557.5 720.5 c 128,-1,32
 1678 589 1678 589 1678 363 c 2,33,-1
 1678 205 l 1,34,-1
 1010 205 l 1,35,36
 1019 97 1019 97 1082.5 26 c 128,-1,37
 1146 -45 1146 -45 1278 -45 c 0,38,39
 1382 -45 1382 -45 1448 -20.5 c 128,-1,40
 1514 4 1514 4 1572 35 c 1,41,-1
 1648 -149 l 1,42,43
 1596 -189 1596 -189 1490 -229.5 c 128,-1,44
 1384 -270 1384 -270 1246 -270 c 0,0,1
1224 627 m 0,45,46
 1125 627 1125 627 1075 562 c 128,-1,47
 1025 497 1025 497 1012 394 c 1,48,-1
 1394 394 l 1,49,-1
 1394 422 l 2,50,51
 1394 513 1394 513 1353 570 c 128,-1,52
 1312 627 1312 627 1224 627 c 0,45,46
524 -64 m 0,53,54
 578 -64 578 -64 634 -39.5 c 128,-1,55
 690 -15 690 -15 727 18 c 1,56,-1
 727 216 l 1,57,-1
 566 216 l 2,58,59
 462 216 462 216 408.5 169.5 c 128,-1,60
 355 123 355 123 355 64 c 0,61,62
 355 7 355 7 396.5 -28.5 c 128,-1,63
 438 -64 438 -64 524 -64 c 0,53,54
EndSplineSet
Substitution2: "'unic' Unicase lookup 2 subtable" AE
Substitution2: "'smcp' Lowercase to Small Capitals lookup 1 subtable" AE.smcp
EndChar

StartChar: afii57636
Encoding: 8362 8362 321
Width: 1786
GlyphClass: 2
Flags: W
LayerCount: 2
Fore
SplineSet
112 1082 m 1,0,-1
 862 1082 l 2,1,2
 1074 1082 1074 1082 1158 983 c 128,-1,3
 1242 884 1242 884 1242 672 c 2,4,-1
 1242 363 l 1,5,-1
 954 363 l 1,6,-1
 954 673 l 2,7,8
 954 791 954 791 903 824 c 128,-1,9
 852 857 852 857 768 857 c 2,10,-1
 400 857 l 1,11,-1
 400 0 l 1,12,-1
 112 0 l 1,13,-1
 112 1082 l 1,0,-1
1097 0 m 2,14,-1
 543 0 l 1,15,-1
 543 720 l 1,16,-1
 832 720 l 1,17,-1
 832 225 l 1,18,-1
 1200 225 l 2,19,20
 1284 225 1284 225 1335 258 c 128,-1,21
 1386 291 1386 291 1386 409 c 2,22,-1
 1386 1082 l 1,23,-1
 1675 1082 l 1,24,-1
 1675 410 l 2,25,26
 1675 304 1675 304 1625.5 226.5 c 128,-1,27
 1576 149 1576 149 1492.5 99 c 128,-1,28
 1409 49 1409 49 1306 24.5 c 128,-1,29
 1203 0 1203 0 1097 0 c 2,14,-1
EndSplineSet
EndChar

StartChar: ampersand
Encoding: 38 38 325
Width: 1346
VWidth: 1798
GlyphClass: 2
Flags: W
LayerCount: 2
Fore
SplineSet
994 -250 m 1,0,-1
 918 -162 l 1,1,2
 754 -271 754 -271 545 -271 c 0,3,4
 399 -271 399 -271 292.5 -218 c 128,-1,5
 186 -165 186 -165 128.5 -72 c 128,-1,6
 71 21 71 21 71 141 c 0,7,8
 71 270 71 270 145 355 c 128,-1,9
 219 440 219 440 335 524 c 1,10,11
 271 610 271 610 234 687 c 128,-1,12
 197 764 197 764 197 847 c 0,13,14
 197 1019 197 1019 305 1123 c 128,-1,15
 413 1227 413 1227 593 1227 c 0,16,17
 706 1227 706 1227 789 1180.5 c 128,-1,18
 872 1134 872 1134 917.5 1058 c 128,-1,19
 963 982 963 982 963 891 c 0,20,21
 963 789 963 789 908 710.5 c 128,-1,22
 853 632 853 632 768 570 c 2,23,-1
 674 503 l 1,24,-1
 931 204 l 1,25,26
 959 259 959 259 974.5 323.5 c 128,-1,27
 990 388 990 388 990 460 c 1,28,-1
 1234 460 l 1,29,30
 1234 328 1234 328 1203.5 212.5 c 128,-1,31
 1173 97 1173 97 1103 4 c 1,32,-1
 1321 -250 l 1,33,-1
 994 -250 l 1,0,-1
454 851 m 0,34,35
 454 806 454 806 478.5 759 c 128,-1,36
 503 712 503 712 544 660 c 1,37,-1
 621 710 l 2,38,39
 683 751 683 751 704 789 c 128,-1,40
 725 827 725 827 725 874 c 256,41,42
 725 921 725 921 690 961.5 c 128,-1,43
 655 1002 655 1002 592 1002 c 0,44,45
 524 1002 524 1002 489 957.5 c 128,-1,46
 454 913 454 913 454 851 c 0,34,35
360 157 m 0,47,48
 360 70 360 70 415 12 c 128,-1,49
 470 -46 470 -46 560 -46 c 0,50,51
 667 -46 667 -46 764 16 c 1,52,-1
 469 357 l 1,53,-1
 449 343 l 1,54,55
 394 291 394 291 377 244.5 c 128,-1,56
 360 198 360 198 360 157 c 0,47,48
EndSplineSet
Substitution2: "'smcp' Lowercase to Small Capitals lookup 1 subtable" ampersand.smcp
Substitution2: "'c2sc' Capitals to Small Capitals lookup 0 subtable" ampersand.smcp
Position2: "'cpsp' Capital Spacing lookup 0 subtable" dx=36 dy=0 dh=72 dv=0
EndChar

StartChar: ampersand.smcp
Encoding: 65718 -1 326
Width: 1338
GlyphClass: 2
Flags: W
LayerCount: 2
Fore
SplineSet
533 -19 m 0,0,1
 327 -19 327 -19 207 69.5 c 128,-1,2
 87 158 87 158 87 294 c 0,3,4
 87 395 87 395 143 461.5 c 128,-1,5
 199 528 199 528 296 590 c 2,6,-1
 329 611 l 1,7,8
 261 680 261 680 221.5 744.5 c 128,-1,9
 182 809 182 809 182 897 c 0,10,11
 182 973 182 973 223.5 1037.5 c 128,-1,12
 265 1102 265 1102 344.5 1141.5 c 128,-1,13
 424 1181 424 1181 537 1181 c 0,14,15
 704 1181 704 1181 803 1099 c 128,-1,16
 902 1017 902 1017 902 883 c 0,17,18
 902 802 902 802 851.5 735.5 c 128,-1,19
 801 669 801 669 725 621 c 2,20,-1
 665 581 l 1,21,-1
 879 368 l 1,22,23
 931 453 931 453 931 567 c 1,24,-1
 1177 567 l 1,25,26
 1177 449 1177 449 1141.5 359 c 128,-1,27
 1106 269 1106 269 1047 201 c 1,28,-1
 1249 0 l 1,29,-1
 936 0 l 1,30,-1
 875 62 l 1,31,32
 722 -19 722 -19 533 -19 c 0,0,1
429 869 m 0,33,34
 429 835 429 835 452.5 802 c 128,-1,35
 476 769 476 769 515 731 c 1,36,-1
 557 758 l 2,37,38
 616 794 616 794 634 821.5 c 128,-1,39
 652 849 652 849 652 879 c 0,40,41
 652 914 652 914 622 941.5 c 128,-1,42
 592 969 592 969 539 969 c 0,43,44
 484 969 484 969 456.5 939 c 128,-1,45
 429 909 429 909 429 869 c 0,33,34
375 324 m 0,46,47
 375 269 375 269 418 236.5 c 128,-1,48
 461 204 461 204 537 204 c 0,49,50
 631 204 631 204 706 231 c 1,51,-1
 480 459 l 1,52,-1
 448 438 l 2,53,54
 404 408 404 408 389.5 379 c 128,-1,55
 375 350 375 350 375 324 c 0,46,47
EndSplineSet
EndChar

StartChar: aogonek
Encoding: 261 261 327
Width: 1096
VWidth: 1798
GlyphClass: 2
Flags: W
AnchorPoint: "Anchor-1" 502 -250 basechar 0
AnchorPoint: "Anchor-0" 582 1040 basechar 0
LayerCount: 2
Fore
SplineSet
1003 -628 m 1,0,1
 978 -643 978 -643 938 -657.5 c 128,-1,2
 898 -672 898 -672 838 -672 c 0,3,4
 744 -672 744 -672 678 -619.5 c 128,-1,5
 612 -567 612 -567 612 -466 c 0,6,7
 612 -408 612 -408 639.5 -351.5 c 128,-1,8
 667 -295 667 -295 736 -245 c 1,9,10
 718 -207 718 -207 708 -149 c 1,11,12
 665 -199 665 -199 598 -234.5 c 128,-1,13
 531 -270 531 -270 433 -270 c 0,14,15
 330 -270 330 -270 246.5 -228 c 128,-1,16
 163 -186 163 -186 114.5 -113 c 128,-1,17
 66 -40 66 -40 66 54 c 0,18,19
 66 224 66 224 192 316.5 c 128,-1,20
 318 409 318 409 567 409 c 2,21,-1
 696 409 l 1,22,-1
 696 476 l 2,23,24
 696 553 696 553 657.5 599 c 128,-1,25
 619 645 619 645 535 645 c 0,26,27
 462 645 462 645 420.5 608.5 c 128,-1,28
 379 572 379 572 379 510 c 1,29,-1
 91 510 l 1,30,31
 91 603 91 603 147.5 680.5 c 128,-1,32
 204 758 204 758 307.5 805 c 128,-1,33
 411 852 411 852 551 852 c 0,34,35
 676 852 676 852 774.5 810 c 128,-1,36
 873 768 873 768 929.5 684 c 128,-1,37
 986 600 986 600 986 474 c 2,38,-1
 986 11 l 2,39,40
 986 -78 986 -78 997 -135 c 128,-1,41
 1008 -192 1008 -192 1029 -233 c 1,42,-1
 1029 -250 l 1,43,-1
 981 -250 l 1,44,45
 906 -293 906 -293 866.5 -334.5 c 128,-1,46
 827 -376 827 -376 827 -431 c 0,47,48
 827 -459 827 -459 841.5 -477.5 c 128,-1,49
 856 -496 856 -496 893 -496 c 0,50,51
 921 -496 921 -496 940 -489 c 128,-1,52
 959 -482 959 -482 972 -475 c 1,53,-1
 1003 -628 l 1,0,1
496 -55 m 0,54,55
 570 -55 570 -55 622 -21 c 128,-1,56
 674 13 674 13 696 55 c 1,57,-1
 696 246 l 1,58,-1
 575 246 l 2,59,60
 460 246 460 246 407.5 197 c 128,-1,61
 355 148 355 148 355 74 c 0,62,63
 355 18 355 18 393 -18.5 c 128,-1,64
 431 -55 431 -55 496 -55 c 0,54,55
EndSplineSet
Substitution2: "'locl' Localized Forms in Latin lookup 8 subtable" aogonek.NAV
Substitution2: "'unic' Unicase lookup 2 subtable" Aogonek.unic
Substitution2: "'smcp' Lowercase to Small Capitals lookup 1 subtable" Aogonek.smcp
EndChar

StartChar: approxequal
Encoding: 8776 8776 329
Width: 1182
GlyphClass: 2
Flags: W
LayerCount: 2
Fore
SplineSet
102 682 m 1,0,-1
 101 912 l 1,1,2
 148 962 148 962 215 990.5 c 128,-1,3
 282 1019 282 1019 347 1019 c 0,4,5
 427 1021 427 1021 480.5 999.5 c 128,-1,6
 534 978 534 978 597 946 c 0,7,8
 656 916 656 916 705.5 896.5 c 128,-1,9
 755 877 755 877 829 877 c 0,10,11
 894 877 894 877 952.5 910.5 c 128,-1,12
 1011 944 1011 944 1058 1003 c 1,13,-1
 1058 773 l 1,14,15
 1011 723 1011 723 956.5 694.5 c 128,-1,16
 902 666 902 666 837 666 c 0,17,18
 763 666 763 666 713 685.5 c 128,-1,19
 663 705 663 705 604 735 c 0,20,21
 541 767 541 767 487.5 788.5 c 128,-1,22
 434 810 434 810 354 808 c 0,23,24
 289 808 289 808 219 774.5 c 128,-1,25
 149 741 149 741 102 682 c 1,0,-1
101 262 m 1,26,-1
 101 493 l 1,27,28
 148 543 148 543 211 571.5 c 128,-1,29
 274 600 274 600 339 600 c 0,30,31
 419 602 419 602 472 580.5 c 128,-1,32
 525 559 525 559 588 527 c 0,33,34
 647 497 647 497 697.5 477.5 c 128,-1,35
 748 458 748 458 822 458 c 0,36,37
 887 458 887 458 949 491.5 c 128,-1,38
 1011 525 1011 525 1058 584 c 1,39,-1
 1058 354 l 1,40,41
 1011 304 1011 304 952.5 275.5 c 128,-1,42
 894 247 894 247 829 247 c 0,43,44
 755 247 755 247 705.5 266.5 c 128,-1,45
 656 286 656 286 597 316 c 0,46,47
 534 348 534 348 480.5 369.5 c 128,-1,48
 427 391 427 391 347 389 c 0,49,50
 282 389 282 389 215 355.5 c 128,-1,51
 148 322 148 322 101 262 c 1,26,-1
EndSplineSet
EndChar

StartChar: arabic_2dots
Encoding: 65720 -1 330
Width: 517
GlyphClass: 1
Flags: W
LayerCount: 2
Fore
SplineSet
425 266 m 1,0,-1
 591 102 l 1,1,-1
 425 -64 l 1,2,-1
 261 102 l 1,3,-1
 425 266 l 1,0,-1
89 266 m 1,4,-1
 255 102 l 1,5,-1
 89 -64 l 1,6,-1
 -75 102 l 1,7,-1
 89 266 l 1,4,-1
EndSplineSet
EndChar

StartChar: arabic_3dots
Encoding: 65721 -1 331
Width: 528
GlyphClass: 1
Flags: W
LayerCount: 2
Fore
SplineSet
255 477 m 1,0,-1
 411 321 l 1,1,-1
 255 165 l 1,2,-1
 99 321 l 1,3,-1
 255 477 l 1,0,-1
429 222 m 1,4,-1
 585 66 l 1,5,-1
 429 -90 l 1,6,-1
 274 66 l 1,7,-1
 429 222 l 1,4,-1
81 222 m 1,8,-1
 237 66 l 1,9,-1
 81 -90 l 1,10,-1
 -75 66 l 1,11,-1
 81 222 l 1,8,-1
EndSplineSet
EndChar

StartChar: arabic_3dots_a
Encoding: 65722 -1 332
Width: 528
GlyphClass: 1
Flags: W
LayerCount: 2
Fore
SplineSet
429 291 m 1,0,-1
 585 135 l 1,1,-1
 429 -21 l 1,2,-1
 274 135 l 1,3,-1
 429 291 l 1,0,-1
81 291 m 1,4,-1
 237 135 l 1,5,-1
 81 -21 l 1,6,-1
 -75 135 l 1,7,-1
 81 291 l 1,4,-1
255 35 m 1,8,-1
 411 -120 l 1,9,-1
 255 -276 l 1,10,-1
 99 -120 l 1,11,-1
 255 35 l 1,8,-1
EndSplineSet
EndChar

StartChar: arabic_dot
Encoding: 65723 -1 333
Width: 197
GlyphClass: 1
Flags: W
LayerCount: 2
Fore
SplineSet
96 275 m 1,0,-1
 269 102 l 1,1,-1
 96 -71 l 1,2,-1
 -77 102 l 1,3,-1
 96 275 l 1,0,-1
EndSplineSet
EndChar

StartChar: arabic_gaf_bar
Encoding: 65724 -1 334
Width: 787
GlyphClass: 1
Flags: W
LayerCount: 2
Fore
SplineSet
-62 1561 m 1,0,-1
 -62 1704 l 1,1,-1
 741 2031 l 1,2,-1
 741 1887 l 1,3,-1
 -62 1561 l 1,0,-1
EndSplineSet
EndChar

StartChar: asciicircum
Encoding: 94 94 337
Width: 897
VWidth: 1798
GlyphClass: 2
Flags: W
LayerCount: 2
Fore
SplineSet
626 479 m 1,0,-1
 450 942 l 1,1,-1
 273 479 l 1,2,-1
 45 479 l 1,3,-1
 344 1206 l 1,4,-1
 555 1206 l 1,5,-1
 853 479 l 1,6,-1
 626 479 l 1,0,-1
EndSplineSet
EndChar

StartChar: asciitilde
Encoding: 126 126 338
Width: 1327
VWidth: 1798
GlyphClass: 2
Flags: W
LayerCount: 2
Fore
SplineSet
1007 543 m 1,0,-1
 1219 542 l 1,1,2
 1219 418 1219 418 1176.5 325 c 128,-1,3
 1134 232 1134 232 1059.5 180.5 c 128,-1,4
 985 129 985 129 888 129 c 0,5,6
 807 129 807 129 744 161 c 128,-1,7
 681 193 681 193 609 261 c 0,8,9
 567 303 567 303 529.5 325 c 128,-1,10
 492 347 492 347 451 347 c 0,11,12
 392 347 392 347 356 295.5 c 128,-1,13
 320 244 320 244 320 166 c 1,14,-1
 106 168 l 1,15,16
 106 356 106 356 198 465.5 c 128,-1,17
 290 575 290 575 436 575 c 0,18,19
 516 575 516 575 582.5 541.5 c 128,-1,20
 649 508 649 508 716 443 c 0,21,22
 760 400 760 400 796.5 379 c 128,-1,23
 833 358 833 358 873 358 c 0,24,25
 932 358 932 358 969.5 411 c 128,-1,26
 1007 464 1007 464 1007 543 c 1,0,-1
EndSplineSet
EndChar

StartChar: asterisk
Encoding: 42 42 339
Width: 930
VWidth: 1798
GlyphClass: 2
Flags: W
LayerCount: 2
Fore
SplineSet
126 442 m 1,0,-1
 345 715 l 1,1,-1
 27 805 l 1,2,-1
 87 981 l 1,3,-1
 399 857 l 1,4,-1
 380 1206 l 1,5,-1
 574 1206 l 1,6,-1
 553 850 l 1,7,-1
 859 973 l 1,8,-1
 918 794 l 1,9,-1
 595 704 l 1,10,-1
 807 437 l 1,11,-1
 650 327 l 1,12,-1
 466 619 l 1,13,-1
 283 336 l 1,14,-1
 126 442 l 1,0,-1
EndSplineSet
EndChar

StartChar: at
Encoding: 64 64 340
Width: 1836
VWidth: 1798
GlyphClass: 2
Flags: W
LayerCount: 2
Fore
SplineSet
1749 285 m 0,0,1
 1745 183 1745 183 1719 84.5 c 128,-1,2
 1693 -14 1693 -14 1640.5 -94.5 c 128,-1,3
 1588 -175 1588 -175 1506.5 -223 c 128,-1,4
 1425 -271 1425 -271 1311 -271 c 0,5,6
 1226 -271 1226 -271 1163.5 -232.5 c 128,-1,7
 1101 -194 1101 -194 1069 -124 c 1,8,9
 969 -268 969 -268 805 -268 c 0,10,11
 660 -268 660 -268 580 -145 c 128,-1,12
 500 -22 500 -22 519 180 c 0,13,14
 538 351 538 351 603.5 477 c 128,-1,15
 669 603 669 603 768.5 671.5 c 128,-1,16
 868 740 868 740 986 740 c 0,17,18
 1101 740 1101 740 1166.5 707 c 128,-1,19
 1232 674 1232 674 1292 631 c 1,20,-1
 1242 55 l 2,21,22
 1235 -14 1235 -14 1250 -50.5 c 128,-1,23
 1265 -87 1265 -87 1292 -100.5 c 128,-1,24
 1319 -114 1319 -114 1348 -114 c 0,25,26
 1413 -114 1413 -114 1461.5 -62 c 128,-1,27
 1510 -10 1510 -10 1538.5 79 c 128,-1,28
 1567 168 1567 168 1570 278 c 0,29,30
 1581 500 1581 500 1519 664 c 128,-1,31
 1457 828 1457 828 1319 918 c 128,-1,32
 1181 1008 1181 1008 962 1008 c 0,33,34
 757 1008 757 1008 607.5 905 c 128,-1,35
 458 802 458 802 373.5 622.5 c 128,-1,36
 289 443 289 443 279 214 c 0,37,38
 262 -150 262 -150 425 -342 c 128,-1,39
 588 -534 588 -534 896 -534 c 0,40,41
 983 -534 983 -534 1073.5 -514.5 c 128,-1,42
 1164 -495 1164 -495 1226 -465 c 1,43,-1
 1264 -614 l 1,44,45
 1194 -659 1194 -659 1089.5 -681 c 128,-1,46
 985 -703 985 -703 892 -703 c 0,47,48
 627 -703 627 -703 442.5 -597 c 128,-1,49
 258 -491 258 -491 165 -286 c 128,-1,50
 72 -81 72 -81 83 214 c 0,51,52
 92 420 92 420 157.5 593.5 c 128,-1,53
 223 767 223 767 338 896 c 128,-1,54
 453 1025 453 1025 611.5 1096 c 128,-1,55
 770 1167 770 1167 966 1167 c 0,56,57
 1227 1167 1227 1167 1405.5 1056.5 c 128,-1,58
 1584 946 1584 946 1672 748 c 128,-1,59
 1760 550 1760 550 1749 285 c 0,0,1
739 180 m 0,60,61
 729 47 729 47 763 -23 c 128,-1,62
 797 -93 797 -93 873 -93 c 0,63,64
 911 -93 911 -93 959.5 -57.5 c 128,-1,65
 1008 -22 1008 -22 1043 81 c 1,66,-1
 1085 556 l 1,67,68
 1046 569 1046 569 1004 569 c 0,69,70
 888 569 888 569 823.5 470 c 128,-1,71
 759 371 759 371 739 180 c 0,60,61
EndSplineSet
EndChar

StartChar: b
Encoding: 98 98 342
Width: 1152
VWidth: 1798
GlyphClass: 2
Flags: W
AnchorPoint: "Anchor-1" 598 -260 basechar 0
AnchorPoint: "Anchor-0" 634 1361 basechar 0
LayerCount: 2
Fore
SplineSet
1085 302 m 2,0,-1
 1085 281 l 2,1,2
 1085 120 1085 120 1039 -4.5 c 128,-1,3
 993 -129 993 -129 899.5 -199.5 c 128,-1,4
 806 -270 806 -270 665 -270 c 0,5,6
 572 -270 572 -270 503 -234 c 128,-1,7
 434 -198 434 -198 385 -134 c 1,8,-1
 371 -250 l 1,9,-1
 112 -250 l 1,10,-1
 112 1286 l 1,11,-1
 400 1286 l 1,12,-1
 400 735 l 1,13,14
 448 790 448 790 513 821 c 128,-1,15
 578 852 578 852 663 852 c 0,16,17
 805 852 805 852 898.5 781.5 c 128,-1,18
 992 711 992 711 1038.5 587 c 128,-1,19
 1085 463 1085 463 1085 302 c 2,0,-1
797 281 m 2,20,-1
 797 302 l 2,21,22
 797 390 797 390 779.5 463.5 c 128,-1,23
 762 537 762 537 717.5 581.5 c 128,-1,24
 673 626 673 626 591 626 c 0,25,26
 517 626 517 626 471 595 c 128,-1,27
 425 564 425 564 400 510 c 1,28,-1
 400 71 l 1,29,30
 425 17 425 17 471.5 -13.5 c 128,-1,31
 518 -44 518 -44 593 -44 c 0,32,33
 675 -44 675 -44 719 -1.5 c 128,-1,34
 763 41 763 41 780 114.5 c 128,-1,35
 797 188 797 188 797 281 c 2,20,-1
EndSplineSet
Substitution2: "'unic' Unicase lookup 2 subtable" B
Substitution2: "'smcp' Lowercase to Small Capitals lookup 1 subtable" B.smcp
EndChar

StartChar: backslash
Encoding: 92 92 343
Width: 863
VWidth: 1798
GlyphClass: 2
Flags: W
LayerCount: 2
Fore
SplineSet
606 -375 m 1,0,-1
 -1 1206 l 1,1,-1
 295 1206 l 1,2,-1
 903 -375 l 1,3,-1
 606 -375 l 1,0,-1
EndSplineSet
EndChar

StartChar: bar
Encoding: 124 124 344
Width: 516
VWidth: 1798
GlyphClass: 2
Flags: W
LayerCount: 2
Fore
SplineSet
346 1206 m 1,0,-1
 346 -520 l 1,1,-1
 174 -520 l 1,2,-1
 174 1206 l 1,3,-1
 346 1206 l 1,0,-1
EndSplineSet
EndChar

StartChar: braceleft
Encoding: 123 123 345
Width: 675
VWidth: 1798
GlyphClass: 2
Flags: W
LayerCount: 2
Fore
SplineSet
641 -455 m 1,0,-1
 585 -612 l 1,1,2
 448 -573 448 -573 369.5 -503.5 c 128,-1,3
 291 -434 291 -434 258.5 -342.5 c 128,-1,4
 226 -251 226 -251 226 -146 c 2,5,-1
 226 58 l 2,6,7
 226 153 226 153 184.5 210 c 128,-1,8
 143 267 143 267 48 267 c 1,9,-1
 48 468 l 1,10,11
 143 468 143 468 184.5 525 c 128,-1,12
 226 582 226 582 226 678 c 2,13,-1
 226 882 l 2,14,15
 226 987 226 987 258.5 1078.5 c 128,-1,16
 291 1170 291 1170 369.5 1239.5 c 128,-1,17
 448 1309 448 1309 585 1347 c 1,18,-1
 641 1191 l 1,19,20
 550 1158 550 1158 517 1074.5 c 128,-1,21
 484 991 484 991 484 882 c 2,22,-1
 484 678 l 2,23,24
 484 578 484 578 441 496.5 c 128,-1,25
 398 415 398 415 305 368 c 1,26,27
 398 321 398 321 441 239 c 128,-1,28
 484 157 484 157 484 58 c 2,29,-1
 484 -146 l 2,30,31
 484 -255 484 -255 517 -338.5 c 128,-1,32
 550 -422 550 -422 641 -455 c 1,0,-1
EndSplineSet
EndChar

StartChar: braceright
Encoding: 125 125 346
Width: 675
VWidth: 1798
GlyphClass: 2
Flags: W
LayerCount: 2
Fore
SplineSet
90 -612 m 1,0,-1
 34 -455 l 1,1,2
 126 -422 126 -422 158 -338.5 c 128,-1,3
 190 -255 190 -255 190 -146 c 2,4,-1
 190 58 l 2,5,6
 190 159 190 159 234.5 240.5 c 128,-1,7
 279 322 279 322 376 368 c 1,8,9
 279 414 279 414 234.5 495.5 c 128,-1,10
 190 577 190 577 190 678 c 2,11,-1
 190 882 l 2,12,13
 190 991 190 991 158 1074.5 c 128,-1,14
 126 1158 126 1158 34 1191 c 1,15,-1
 90 1347 l 1,16,17
 228 1309 228 1309 306 1239.5 c 128,-1,18
 384 1170 384 1170 416.5 1078.5 c 128,-1,19
 449 987 449 987 449 882 c 2,20,-1
 449 678 l 2,21,22
 449 582 449 582 491 525 c 128,-1,23
 533 468 533 468 627 468 c 1,24,-1
 627 267 l 1,25,26
 533 267 533 267 491 210 c 128,-1,27
 449 153 449 153 449 58 c 2,28,-1
 449 -146 l 2,29,30
 449 -251 449 -251 416.5 -342.5 c 128,-1,31
 384 -434 384 -434 306 -503.5 c 128,-1,32
 228 -573 228 -573 90 -612 c 1,0,-1
EndSplineSet
EndChar

StartChar: bracketleft
Encoding: 91 91 347
Width: 566
VWidth: 1798
GlyphClass: 2
Flags: W
LayerCount: 2
Fore
SplineSet
551 1227 m 1,0,-1
 409 1227 l 1,1,-1
 409 -372 l 1,2,-1
 551 -372 l 1,3,-1
 551 -587 l 1,4,-1
 144 -587 l 1,5,-1
 144 1442 l 1,6,-1
 551 1442 l 1,7,-1
 551 1227 l 1,0,-1
EndSplineSet
Position2: "Single Positioning lookup 9 subtable" dx=0 dy=0 dh=100 dv=0
Position2: "Single Positioning lookup 8 subtable" dx=0 dy=0 dh=160 dv=0
EndChar

StartChar: bracketright
Encoding: 93 93 348
Width: 566
VWidth: 1798
GlyphClass: 2
Flags: W
LayerCount: 2
Fore
SplineSet
12 1442 m 1,0,-1
 420 1442 l 1,1,-1
 420 -587 l 1,2,-1
 12 -587 l 1,3,-1
 12 -372 l 1,4,-1
 155 -372 l 1,5,-1
 155 1227 l 1,6,-1
 12 1227 l 1,7,-1
 12 1442 l 1,0,-1
EndSplineSet
EndChar

StartChar: breve
Encoding: 728 728 349
Width: 911
VWidth: 1798
GlyphClass: 2
Flags: W
LayerCount: 2
Fore
SplineSet
596 1274 m 1,0,-1
 800 1274 l 1,1,2
 800 1144 800 1144 706.5 1062 c 128,-1,3
 613 980 613 980 454 980 c 0,4,5
 294 980 294 980 200 1062 c 128,-1,6
 106 1144 106 1144 106 1274 c 1,7,-1
 310 1274 l 1,8,9
 310 1222 310 1222 342.5 1181 c 128,-1,10
 375 1140 375 1140 454 1140 c 0,11,12
 531 1140 531 1140 563.5 1181 c 128,-1,13
 596 1222 596 1222 596 1274 c 1,0,-1
EndSplineSet
EndChar

StartChar: brokenbar
Encoding: 166 166 350
Width: 514
VWidth: 1798
GlyphClass: 2
Flags: W
LayerCount: 2
Fore
SplineSet
386 1206 m 1,0,-1
 386 448 l 1,1,-1
 128 448 l 1,2,-1
 128 1206 l 1,3,-1
 386 1206 l 1,0,-1
386 -520 m 1,4,-1
 128 -520 l 1,5,-1
 128 274 l 1,6,-1
 386 274 l 1,7,-1
 386 -520 l 1,4,-1
EndSplineSet
EndChar

StartChar: bullet
Encoding: 8226 8226 351
Width: 736
GlyphClass: 2
Flags: W
LayerCount: 2
Fore
SplineSet
136 728 m 2,0,-1
 136 766 l 2,1,2
 136 866 136 866 200.5 929.5 c 128,-1,3
 265 993 265 993 372 993 c 0,4,5
 484 993 484 993 547.5 929.5 c 128,-1,6
 611 866 611 866 611 766 c 2,7,-1
 611 728 l 2,8,9
 611 629 611 629 547.5 566 c 128,-1,10
 484 503 484 503 374 503 c 0,11,12
 265 503 265 503 200.5 566 c 128,-1,13
 136 629 136 629 136 728 c 2,0,-1
EndSplineSet
EndChar

StartChar: c
Encoding: 99 99 352
Width: 1067
VWidth: 1798
GlyphClass: 2
Flags: W
AnchorPoint: "Anchor-1" 533 -260 basechar 0
AnchorPoint: "Anchor-0" 533 1040 basechar 0
LayerCount: 2
Fore
SplineSet
559 -45 m 0,0,1
 639 -45 639 -45 690 0.5 c 128,-1,2
 741 46 741 46 742 122 c 1,3,-1
 1013 122 l 1,4,5
 1012 8 1012 8 952 -80.5 c 128,-1,6
 892 -169 892 -169 791 -219.5 c 128,-1,7
 690 -270 690 -270 565 -270 c 0,8,9
 398 -270 398 -270 287 -197 c 128,-1,10
 176 -124 176 -124 121 0 c 128,-1,11
 66 124 66 124 66 276 c 2,12,-1
 66 305 l 2,13,14
 66 458 66 458 121 582 c 128,-1,15
 176 706 176 706 286.5 779 c 128,-1,16
 397 852 397 852 563 852 c 0,17,18
 696 852 696 852 797 801 c 128,-1,19
 898 750 898 750 955 655.5 c 128,-1,20
 1012 561 1012 561 1013 432 c 1,21,-1
 742 432 l 1,22,23
 741 513 741 513 693.5 570 c 128,-1,24
 646 627 646 627 558 627 c 0,25,26
 474 627 474 627 430 581.5 c 128,-1,27
 386 536 386 536 370 462.5 c 128,-1,28
 354 389 354 389 354 305 c 2,29,-1
 354 276 l 2,30,31
 354 191 354 191 370 118 c 128,-1,32
 386 45 386 45 430 0 c 128,-1,33
 474 -45 474 -45 559 -45 c 0,0,1
EndSplineSet
Substitution2: "'unic' Unicase lookup 2 subtable" C
Substitution2: "'smcp' Lowercase to Small Capitals lookup 1 subtable" C.smcp
EndChar

StartChar: caron
Encoding: 711 711 354
Width: 961
VWidth: 1798
GlyphClass: 2
Flags: W
LayerCount: 2
Fore
SplineSet
330 1286 m 1,0,-1
 478 1141 l 1,1,-1
 626 1286 l 1,2,-1
 872 1286 l 1,3,-1
 872 1276 l 1,4,-1
 570 996 l 1,5,-1
 387 996 l 1,6,-1
 84 1277 l 1,7,-1
 84 1286 l 1,8,-1
 330 1286 l 1,0,-1
EndSplineSet
EndChar

StartChar: cedilla
Encoding: 184 184 358
Width: 550
VWidth: 1798
GlyphClass: 2
Flags: W
LayerCount: 2
Fore
SplineSet
128 -243 m 1,0,-1
 345 -243 l 1,1,-1
 334 -302 l 1,2,3
 390 -312 390 -312 437.5 -350 c 128,-1,4
 485 -388 485 -388 485 -475 c 0,5,6
 485 -581 485 -581 396 -645.5 c 128,-1,7
 307 -710 307 -710 134 -710 c 1,8,-1
 127 -550 l 1,9,10
 176 -550 176 -550 208.5 -530.5 c 128,-1,11
 241 -511 241 -511 241 -465 c 0,12,13
 241 -424 241 -424 207 -407.5 c 128,-1,14
 173 -391 173 -391 97 -386 c 1,15,-1
 128 -243 l 1,0,-1
EndSplineSet
EndChar

StartChar: cent
Encoding: 162 162 359
Width: 1181
VWidth: 1798
GlyphClass: 2
Flags: W
LayerCount: 2
Fore
SplineSet
594 -45 m 0,0,1
 674 -45 674 -45 725 0.5 c 128,-1,2
 776 46 776 46 777 122 c 1,3,-1
 1048 122 l 1,4,5
 1047 23 1047 23 1001.5 -56.5 c 128,-1,6
 956 -136 956 -136 877.5 -189.5 c 128,-1,7
 799 -243 799 -243 698 -261 c 1,8,-1
 698 -495 l 1,9,-1
 502 -495 l 1,10,-1
 502 -262 l 1,11,12
 368 -241 368 -241 279 -165 c 128,-1,13
 190 -89 190 -89 145.5 25 c 128,-1,14
 101 139 101 139 101 276 c 2,15,-1
 101 305 l 2,16,17
 101 442 101 442 145.5 556.5 c 128,-1,18
 190 671 190 671 279 747 c 128,-1,19
 368 823 368 823 502 845 c 1,20,-1
 502 1068 l 1,21,-1
 698 1068 l 1,22,-1
 698 844 l 1,23,24
 855 817 855 817 951 708.5 c 128,-1,25
 1047 600 1047 600 1048 432 c 1,26,-1
 777 432 l 1,27,28
 776 513 776 513 729 570 c 128,-1,29
 682 627 682 627 593 627 c 0,30,31
 509 627 509 627 465 581.5 c 128,-1,32
 421 536 421 536 405 462.5 c 128,-1,33
 389 389 389 389 389 305 c 2,34,-1
 389 276 l 2,35,36
 389 191 389 191 405 118 c 128,-1,37
 421 45 421 45 465 0 c 128,-1,38
 509 -45 509 -45 594 -45 c 0,0,1
EndSplineSet
EndChar

StartChar: circumflex
Encoding: 710 710 360
Width: 1011
VWidth: 1798
GlyphClass: 2
Flags: W
LayerCount: 2
Fore
SplineSet
585 1286 m 1,0,-1
 887 1008 l 1,1,-1
 887 996 l 1,2,-1
 658 996 l 1,3,-1
 501 1142 l 1,4,-1
 346 996 l 1,5,-1
 121 996 l 1,6,-1
 121 1011 l 1,7,-1
 418 1286 l 1,8,-1
 585 1286 l 1,0,-1
EndSplineSet
EndChar

StartChar: colon
Encoding: 58 58 361
Width: 611
VWidth: 1798
GlyphClass: 2
Flags: W
LayerCount: 2
Fore
SplineSet
131 508 m 0,0,1
 131 579 131 579 182.5 627.5 c 128,-1,2
 234 676 234 676 306 676 c 256,3,4
 378 676 378 676 428.5 627.5 c 128,-1,5
 479 579 479 579 479 508 c 256,6,7
 479 437 479 437 428 388.5 c 128,-1,8
 377 340 377 340 306 340 c 0,9,10
 232 340 232 340 181.5 388 c 128,-1,11
 131 436 131 436 131 508 c 0,0,1
131 -81 m 0,12,13
 131 -10 131 -10 182.5 38 c 128,-1,14
 234 86 234 86 306 86 c 256,15,16
 378 86 378 86 428.5 38 c 128,-1,17
 479 -10 479 -10 479 -81 c 0,18,19
 479 -153 479 -153 428 -201 c 128,-1,20
 377 -249 377 -249 306 -249 c 0,21,22
 232 -249 232 -249 181.5 -201.5 c 128,-1,23
 131 -154 131 -154 131 -81 c 0,12,13
EndSplineSet
EndChar

StartChar: comma
Encoding: 44 44 362
Width: 504
VWidth: 1798
GlyphClass: 2
Flags: W
LayerCount: 2
Fore
SplineSet
385 -7 m 1,0,-1
 384 -200 l 2,1,2
 384 -312 384 -312 329 -424 c 128,-1,3
 274 -536 274 -536 188 -609 c 1,4,-1
 38 -532 l 1,5,6
 75 -464 75 -464 109 -392 c 128,-1,7
 143 -320 143 -320 143 -214 c 2,8,-1
 143 -7 l 1,9,-1
 385 -7 l 1,0,-1
EndSplineSet
EndChar

StartChar: commaaccent
Encoding: 65725 -1 363
Width: 466
GlyphClass: 1
Flags: W
LayerCount: 2
Fore
SplineSet
338 270 m 1,0,-1
 338 198 l 2,1,2
 338 104 338 104 297 7.5 c 128,-1,3
 256 -89 256 -89 195 -151 c 1,4,-1
 53 -73 l 1,5,6
 88 -19 88 -19 108 40.5 c 128,-1,7
 128 100 128 100 128 184 c 2,8,-1
 128 270 l 1,9,-1
 338 270 l 1,0,-1
EndSplineSet
EndChar

StartChar: commaaccentrotate
Encoding: 65726 -1 364
Width: 509
GlyphClass: 1
Flags: W
LayerCount: 2
Fore
SplineSet
132 1104 m 1,0,-1
 132 1240 l 2,1,2
 132 1344 132 1344 171.5 1430.5 c 128,-1,3
 211 1517 211 1517 273 1560 c 1,4,-1
 422 1484 l 1,5,6
 397 1437 397 1437 375.5 1372.5 c 128,-1,7
 354 1308 354 1308 354 1229 c 2,8,-1
 353 1104 l 1,9,-1
 132 1104 l 1,0,-1
EndSplineSet
EndChar

StartChar: copyright
Encoding: 169 169 365
Width: 1609
VWidth: 1798
GlyphClass: 2
Flags: W
LayerCount: 2
Fore
SplineSet
88 479 m 256,0,1
 88 638 88 638 143 774 c 128,-1,2
 198 910 198 910 296 1011.5 c 128,-1,3
 394 1113 394 1113 522.5 1169.5 c 128,-1,4
 651 1226 651 1226 798 1226 c 256,5,6
 945 1226 945 1226 1073.5 1169.5 c 128,-1,7
 1202 1113 1202 1113 1299.5 1011.5 c 128,-1,8
 1397 910 1397 910 1452.5 774 c 128,-1,9
 1508 638 1508 638 1508 479 c 256,10,11
 1508 320 1508 320 1452.5 184 c 128,-1,12
 1397 48 1397 48 1299.5 -54 c 128,-1,13
 1202 -156 1202 -156 1073.5 -213 c 128,-1,14
 945 -270 945 -270 798 -270 c 256,15,16
 651 -270 651 -270 522.5 -213 c 128,-1,17
 394 -156 394 -156 296 -54 c 128,-1,18
 198 48 198 48 143 184 c 128,-1,19
 88 320 88 320 88 479 c 256,0,1
208 479 m 256,20,21
 208 346 208 346 254 232 c 128,-1,22
 300 118 300 118 381 33 c 128,-1,23
 462 -52 462 -52 569 -99.5 c 128,-1,24
 676 -147 676 -147 798 -147 c 256,25,26
 920 -147 920 -147 1026.5 -99.5 c 128,-1,27
 1133 -52 1133 -52 1214 33 c 128,-1,28
 1295 118 1295 118 1341 232 c 128,-1,29
 1387 346 1387 346 1387 479 c 256,30,31
 1387 612 1387 612 1341 725.5 c 128,-1,32
 1295 839 1295 839 1214 924 c 128,-1,33
 1133 1009 1133 1009 1026.5 1056 c 128,-1,34
 920 1103 920 1103 798 1103 c 256,35,36
 676 1103 676 1103 569 1056 c 128,-1,37
 462 1009 462 1009 381 924 c 128,-1,38
 300 839 300 839 254 725.5 c 128,-1,39
 208 612 208 612 208 479 c 256,20,21
965 347 m 1,40,-1
 1118 347 l 1,41,42
 1118 190 1118 190 1028 111.5 c 128,-1,43
 938 33 938 33 784 33 c 0,44,45
 624 33 624 33 530 140.5 c 128,-1,46
 436 248 436 248 436 420 c 2,47,-1
 436 537 l 2,48,49
 436 709 436 709 530 816.5 c 128,-1,50
 624 924 624 924 784 924 c 0,51,52
 938 924 938 924 1028.5 846 c 128,-1,53
 1119 768 1119 768 1119 611 c 1,54,-1
 966 611 l 1,55,56
 966 708 966 708 919.5 750 c 128,-1,57
 873 792 873 792 784 792 c 0,58,59
 687 792 687 792 637 720.5 c 128,-1,60
 587 649 587 649 587 538 c 2,61,-1
 587 420 l 2,62,63
 587 308 587 308 637 236.5 c 128,-1,64
 687 165 687 165 784 165 c 0,65,66
 873 165 873 165 919 206.5 c 128,-1,67
 965 248 965 248 965 347 c 1,40,-1
EndSplineSet
EndChar

StartChar: crossbar
Encoding: 65727 -1 366
Width: 977
GlyphClass: 1
Flags: W
LayerCount: 2
Fore
SplineSet
840 829 m 1,0,-1
 840 651 l 1,1,-1
 140 651 l 1,2,-1
 140 829 l 1,3,-1
 840 829 l 1,0,-1
EndSplineSet
EndChar

StartChar: currency
Encoding: 164 164 367
Width: 1418
VWidth: 1798
GlyphClass: 2
Flags: W
LayerCount: 2
Fore
SplineSet
116 358 m 0,0,1
 116 462 116 462 145 555 c 128,-1,2
 174 648 174 648 226 725 c 1,3,-1
 81 873 l 1,4,-1
 218 1014 l 1,5,-1
 362 867 l 1,6,7
 435 923 435 923 524 953.5 c 128,-1,8
 613 984 613 984 711 984 c 0,9,10
 810 984 810 984 899.5 953 c 128,-1,11
 989 922 989 922 1063 866 c 1,12,-1
 1208 1015 l 1,13,-1
 1347 873 l 1,14,-1
 1198 721 l 1,15,16
 1249 645 1249 645 1277.5 553 c 128,-1,17
 1306 461 1306 461 1306 358 c 0,18,19
 1306 260 1306 260 1280 171 c 128,-1,20
 1254 82 1254 82 1207 7 c 1,21,-1
 1347 -135 l 1,22,-1
 1208 -277 l 1,23,-1
 1075 -141 l 1,24,25
 1000 -202 1000 -202 907 -236 c 128,-1,26
 814 -270 814 -270 711 -270 c 0,27,28
 609 -270 609 -270 516.5 -236.5 c 128,-1,29
 424 -203 424 -203 349 -142 c 1,30,-1
 218 -276 l 1,31,-1
 81 -135 l 1,32,-1
 218 4 l 1,33,34
 170 79 170 79 143 168.5 c 128,-1,35
 116 258 116 258 116 358 c 0,0,1
297 358 m 256,36,37
 297 234 297 234 352.5 134 c 128,-1,38
 408 34 408 34 502 -25 c 128,-1,39
 596 -84 596 -84 711 -84 c 256,40,41
 826 -84 826 -84 919.5 -25 c 128,-1,42
 1013 34 1013 34 1068.5 134 c 128,-1,43
 1124 234 1124 234 1124 358 c 256,44,45
 1124 482 1124 482 1068.5 581.5 c 128,-1,46
 1013 681 1013 681 919.5 739.5 c 128,-1,47
 826 798 826 798 711 798 c 256,48,49
 596 798 596 798 502 739.5 c 128,-1,50
 408 681 408 681 352.5 581.5 c 128,-1,51
 297 482 297 482 297 358 c 256,36,37
EndSplineSet
EndChar

StartChar: d
Encoding: 100 100 368
Width: 1153
VWidth: 1798
GlyphClass: 2
Flags: W
AnchorPoint: "Anchor-1" 617 -250 basechar 0
AnchorPoint: "Anchor-0" 549 1362 basechar 0
LayerCount: 2
Fore
SplineSet
67 278 m 2,0,-1
 67 299 l 2,1,2
 67 464 67 464 116.5 588.5 c 128,-1,3
 166 713 166 713 260.5 782.5 c 128,-1,4
 355 852 355 852 490 852 c 0,5,6
 573 852 573 852 637.5 821 c 128,-1,7
 702 790 702 790 751 734 c 1,8,-1
 751 1286 l 1,9,-1
 1041 1286 l 1,10,-1
 1041 -250 l 1,11,-1
 780 -250 l 1,12,-1
 766 -134 l 1,13,14
 716 -198 716 -198 647 -234 c 128,-1,15
 578 -270 578 -270 488 -270 c 0,16,17
 354 -270 354 -270 260 -198.5 c 128,-1,18
 166 -127 166 -127 116.5 -3 c 128,-1,19
 67 121 67 121 67 278 c 2,0,-1
355 299 m 2,20,-1
 355 278 l 2,21,22
 355 189 355 189 375 116 c 128,-1,23
 395 43 395 43 440 0 c 128,-1,24
 485 -43 485 -43 561 -43 c 0,25,26
 631 -43 631 -43 678 -12 c 128,-1,27
 725 19 725 19 751 73 c 1,28,-1
 751 511 l 1,29,30
 725 565 725 565 678.5 595.5 c 128,-1,31
 632 626 632 626 563 626 c 0,32,33
 487 626 487 626 441.5 582.5 c 128,-1,34
 396 539 396 539 375.5 465 c 128,-1,35
 355 391 355 391 355 299 c 2,20,-1
EndSplineSet
Substitution2: "'unic' Unicase lookup 2 subtable" D
Substitution2: "'smcp' Lowercase to Small Capitals lookup 1 subtable" D.smcp
EndChar

StartChar: dagger
Encoding: 8224 8224 369
Width: 1102
GlyphClass: 2
Flags: W
LayerCount: 2
Fore
SplineSet
1046 1082 m 1,0,-1
 1046 850 l 1,1,-1
 693 850 l 1,2,-1
 693 0 l 1,3,-1
 405 0 l 1,4,-1
 405 850 l 1,5,-1
 57 850 l 1,6,-1
 57 1082 l 1,7,-1
 405 1082 l 1,8,-1
 405 1456 l 1,9,-1
 693 1456 l 1,10,-1
 693 1082 l 1,11,-1
 1046 1082 l 1,0,-1
EndSplineSet
EndChar

StartChar: daggerdbl
Encoding: 8225 8225 370
Width: 1186
GlyphClass: 2
Flags: W
LayerCount: 2
Fore
SplineSet
1088 225 m 1,0,-1
 1088 0 l 1,1,-1
 734 0 l 1,2,-1
 734 -416 l 1,3,-1
 445 -416 l 1,4,-1
 445 0 l 1,5,-1
 99 0 l 1,6,-1
 99 225 l 1,7,-1
 445 225 l 1,8,-1
 445 857 l 1,9,-1
 99 857 l 1,10,-1
 99 1082 l 1,11,-1
 445 1082 l 1,12,-1
 445 1456 l 1,13,-1
 734 1456 l 1,14,-1
 734 1082 l 1,15,-1
 1088 1082 l 1,16,-1
 1088 857 l 1,17,-1
 734 857 l 1,18,-1
 734 225 l 1,19,-1
 1088 225 l 1,0,-1
EndSplineSet
EndChar

StartChar: dcroat
Encoding: 273 273 372
Width: 1290
VWidth: 1798
GlyphClass: 2
Flags: W
AnchorPoint: "Anchor-1" 617 -250 basechar 0
AnchorPoint: "Anchor-0" 549 1361 basechar 0
LayerCount: 2
Fore
SplineSet
67 278 m 2,0,-1
 67 299 l 2,1,2
 67 464 67 464 116.5 588.5 c 128,-1,3
 166 713 166 713 260.5 782.5 c 128,-1,4
 355 852 355 852 490 852 c 0,5,6
 573 852 573 852 637.5 821 c 128,-1,7
 702 790 702 790 751 734 c 1,8,-1
 751 971 l 1,9,-1
 496 971 l 1,10,-1
 496 1149 l 1,11,-1
 751 1149 l 1,12,-1
 751 1286 l 1,13,-1
 1041 1286 l 1,14,-1
 1041 1149 l 1,15,-1
 1196 1149 l 1,16,-1
 1196 971 l 1,17,-1
 1041 971 l 1,18,-1
 1041 -250 l 1,19,-1
 780 -250 l 1,20,-1
 766 -134 l 1,21,22
 716 -198 716 -198 647 -234 c 128,-1,23
 578 -270 578 -270 488 -270 c 0,24,25
 354 -270 354 -270 260 -198.5 c 128,-1,26
 166 -127 166 -127 116.5 -3 c 128,-1,27
 67 121 67 121 67 278 c 2,0,-1
355 299 m 2,28,-1
 355 278 l 2,29,30
 355 189 355 189 375 116 c 128,-1,31
 395 43 395 43 440 0 c 128,-1,32
 485 -43 485 -43 561 -43 c 0,33,34
 631 -43 631 -43 678 -12 c 128,-1,35
 725 19 725 19 751 73 c 1,36,-1
 751 511 l 1,37,38
 725 565 725 565 678.5 595.5 c 128,-1,39
 632 626 632 626 563 626 c 0,40,41
 487 626 487 626 441.5 582.5 c 128,-1,42
 396 539 396 539 375.5 465 c 128,-1,43
 355 391 355 391 355 299 c 2,28,-1
EndSplineSet
Substitution2: "'unic' Unicase lookup 2 subtable" Dcroat
Substitution2: "'smcp' Lowercase to Small Capitals lookup 1 subtable" Dcroat.smcp
EndChar

StartChar: degree
Encoding: 176 176 373
Width: 798
VWidth: 1798
GlyphClass: 2
Flags: W
LayerCount: 2
Fore
SplineSet
128 952 m 256,0,1
 128 1027 128 1027 165 1089.5 c 128,-1,2
 202 1152 202 1152 264 1189 c 128,-1,3
 326 1226 326 1226 400 1226 c 256,4,5
 474 1226 474 1226 534.5 1189 c 128,-1,6
 595 1152 595 1152 631 1089.5 c 128,-1,7
 667 1027 667 1027 667 952 c 256,8,9
 667 877 667 877 631 816 c 128,-1,10
 595 755 595 755 534.5 718.5 c 128,-1,11
 474 682 474 682 400 682 c 256,12,13
 326 682 326 682 264 718.5 c 128,-1,14
 202 755 202 755 165 816 c 128,-1,15
 128 877 128 877 128 952 c 256,0,1
272 952 m 0,16,17
 272 898 272 898 310 862 c 128,-1,18
 348 826 348 826 400 826 c 256,19,20
 452 826 452 826 487 861.5 c 128,-1,21
 522 897 522 897 522 952 c 0,22,23
 522 1008 522 1008 487 1044.5 c 128,-1,24
 452 1081 452 1081 400 1081 c 256,25,26
 348 1081 348 1081 310 1044.5 c 128,-1,27
 272 1008 272 1008 272 952 c 0,16,17
EndSplineSet
EndChar

StartChar: dieresis
Encoding: 168 168 374
Width: 963
VWidth: 1798
GlyphClass: 2
Flags: W
LayerCount: 2
Fore
SplineSet
97 1117 m 0,0,1
 97 1170 97 1170 136.5 1206 c 128,-1,2
 176 1242 176 1242 234 1242 c 0,3,4
 294 1242 294 1242 333 1206 c 128,-1,5
 372 1170 372 1170 372 1117 c 0,6,7
 372 1065 372 1065 333 1029 c 128,-1,8
 294 993 294 993 234 993 c 0,9,10
 176 993 176 993 136.5 1029 c 128,-1,11
 97 1065 97 1065 97 1117 c 0,0,1
588 1116 m 0,12,13
 588 1169 588 1169 627 1205 c 128,-1,14
 666 1241 666 1241 725 1241 c 256,15,16
 784 1241 784 1241 823.5 1205 c 128,-1,17
 863 1169 863 1169 863 1116 c 0,18,19
 863 1064 863 1064 823.5 1028.5 c 128,-1,20
 784 993 784 993 725 993 c 256,21,22
 666 993 666 993 627 1028.5 c 128,-1,23
 588 1064 588 1064 588 1116 c 0,12,13
EndSplineSet
EndChar

StartChar: divide
Encoding: 247 247 375
Width: 1191
VWidth: 1798
GlyphClass: 2
Flags: W
LayerCount: 2
Fore
SplineSet
450 635 m 0,0,1
 450 697 450 697 494 741 c 128,-1,2
 538 785 538 785 600 785 c 256,3,4
 662 785 662 785 705.5 741 c 128,-1,5
 749 697 749 697 749 635 c 0,6,7
 749 574 749 574 705.5 529.5 c 128,-1,8
 662 485 662 485 600 485 c 256,9,10
 538 485 538 485 494 528.5 c 128,-1,11
 450 572 450 572 450 635 c 0,0,1
120 163 m 1,12,-1
 120 382 l 1,13,-1
 1071 382 l 1,14,-1
 1071 163 l 1,15,-1
 120 163 l 1,12,-1
450 -95 m 0,16,17
 450 -33 450 -33 494 11.5 c 128,-1,18
 538 56 538 56 600 56 c 256,19,20
 662 56 662 56 705.5 11.5 c 128,-1,21
 749 -33 749 -33 749 -95 c 0,22,23
 749 -156 749 -156 705.5 -200 c 128,-1,24
 662 -244 662 -244 600 -244 c 256,25,26
 538 -244 538 -244 494 -201 c 128,-1,27
 450 -158 450 -158 450 -95 c 0,16,17
EndSplineSet
EndChar

StartChar: dollar
Encoding: 36 36 376
Width: 1175
VWidth: 1798
GlyphClass: 2
Flags: W
LayerCount: 2
Fore
SplineSet
792 132 m 0,0,1
 792 217 792 217 744.5 267 c 128,-1,2
 697 317 697 317 583 360 c 0,3,4
 453 409 453 409 354.5 466 c 128,-1,5
 256 523 256 523 201 607.5 c 128,-1,6
 146 692 146 692 146 822 c 0,7,8
 146 992 146 992 255.5 1099 c 128,-1,9
 365 1206 365 1206 545 1224 c 1,10,-1
 545 1437 l 1,11,-1
 701 1437 l 1,12,-1
 701 1221 l 1,13,14
 875 1196 875 1196 977.5 1076 c 128,-1,15
 1080 956 1080 956 1080 757 c 1,16,-1
 793 757 l 1,17,18
 793 878 793 878 742.5 940 c 128,-1,19
 692 1002 692 1002 609 1002 c 0,20,21
 518 1002 518 1002 476.5 950 c 128,-1,22
 435 898 435 898 435 821 c 0,23,24
 435 745 435 745 479 696 c 128,-1,25
 523 647 523 647 644 598 c 0,26,27
 774 548 774 548 872 490 c 128,-1,28
 970 432 970 432 1025 348 c 128,-1,29
 1080 264 1080 264 1080 134 c 0,30,31
 1080 -41 1080 -41 971 -144.5 c 128,-1,32
 862 -248 862 -248 682 -267 c 1,33,-1
 682 -465 l 1,34,-1
 526 -465 l 1,35,-1
 526 -267 l 1,36,37
 415 -256 415 -256 315.5 -205.5 c 128,-1,38
 216 -155 216 -155 154 -55 c 128,-1,39
 92 45 92 45 92 205 c 1,40,-1
 380 205 l 1,41,42
 380 108 380 108 412.5 53.5 c 128,-1,43
 445 -1 445 -1 496 -23.5 c 128,-1,44
 547 -46 547 -46 602 -46 c 0,45,46
 697 -46 697 -46 744.5 4.5 c 128,-1,47
 792 55 792 55 792 132 c 0,0,1
EndSplineSet
Substitution2: "'c2sc' Capitals to Small Capitals lookup 0 subtable" dollar.smcp
Position2: "'cpsp' Capital Spacing lookup 0 subtable" dx=36 dy=0 dh=72 dv=0
EndChar

StartChar: dollar.smcp
Encoding: 65728 -1 377
Width: 1099
GlyphClass: 2
Flags: W
LayerCount: 2
Fore
SplineSet
750 312 m 0,0,1
 750 370 750 370 703 406.5 c 128,-1,2
 656 443 656 443 527 474 c 0,3,4
 307 526 307 526 203 604.5 c 128,-1,5
 99 683 99 683 99 840 c 0,6,7
 99 980 99 980 208 1072 c 128,-1,8
 317 1164 317 1164 488 1179 c 1,9,-1
 488 1395 l 1,10,-1
 644 1395 l 1,11,-1
 644 1175 l 1,12,13
 816 1154 816 1154 921 1060.5 c 128,-1,14
 1026 967 1026 967 1026 819 c 1,15,-1
 738 819 l 1,16,17
 738 881 738 881 688.5 927.5 c 128,-1,18
 639 974 639 974 547 974 c 0,19,20
 456 974 456 974 414 934 c 128,-1,21
 372 894 372 894 372 850 c 0,22,23
 372 798 372 798 420.5 765.5 c 128,-1,24
 469 733 469 733 588 702 c 1,25,26
 807 654 807 654 915.5 567.5 c 128,-1,27
 1024 481 1024 481 1024 320 c 0,28,29
 1024 176 1024 176 921 90 c 128,-1,30
 818 4 818 4 644 -12 c 1,31,-1
 644 -237 l 1,32,-1
 488 -237 l 1,33,-1
 488 -12 l 1,34,35
 377 -2 377 -2 279 41.5 c 128,-1,36
 181 85 181 85 120 166 c 128,-1,37
 59 247 59 247 59 369 c 1,38,-1
 348 369 l 1,39,40
 348 274 348 274 406.5 232 c 128,-1,41
 465 190 465 190 580 190 c 0,42,43
 676 190 676 190 713 229.5 c 128,-1,44
 750 269 750 269 750 312 c 0,0,1
EndSplineSet
EndChar

StartChar: dotaccent
Encoding: 729 729 378
Width: 542
VWidth: 1798
GlyphClass: 2
Flags: W
LayerCount: 2
Fore
SplineSet
118 1125 m 256,0,1
 118 1183 118 1183 158.5 1221 c 128,-1,2
 199 1259 199 1259 266 1259 c 0,3,4
 334 1259 334 1259 374 1221 c 128,-1,5
 414 1183 414 1183 414 1125 c 256,6,7
 414 1067 414 1067 374 1029.5 c 128,-1,8
 334 992 334 992 266 992 c 0,9,10
 199 992 199 992 158.5 1029.5 c 128,-1,11
 118 1067 118 1067 118 1125 c 256,0,1
EndSplineSet
EndChar

StartChar: dotbelow
Encoding: 803 803 379
Width: 0
VWidth: 1798
GlyphClass: 4
Flags: W
AnchorPoint: "Anchor-2" -597 -604 basemark 0
AnchorPoint: "Anchor-2" -597 -250 mark 0
AnchorPoint: "Anchor-1" -597 -250 mark 0
LayerCount: 2
Fore
SplineSet
-761 -485 m 0,0,1
 -761 -427 -761 -427 -716.5 -388.5 c 128,-1,2
 -672 -350 -672 -350 -599 -350 c 0,3,4
 -525 -350 -525 -350 -481 -388.5 c 128,-1,5
 -437 -427 -437 -427 -437 -485 c 0,6,7
 -437 -542 -437 -542 -481 -581 c 128,-1,8
 -525 -620 -525 -620 -599 -620 c 0,9,10
 -672 -620 -672 -620 -716.5 -581 c 128,-1,11
 -761 -542 -761 -542 -761 -485 c 0,0,1
EndSplineSet
EndChar

StartChar: dotlessi
Encoding: 305 305 380
Width: 559
VWidth: 1798
GlyphClass: 2
Flags: W
AnchorPoint: "Anchor-1" 249 -240 basechar 0
AnchorPoint: "Anchor-0" 252 1038 basechar 0
LayerCount: 2
Fore
SplineSet
423 832 m 1,0,-1
 423 -250 l 1,1,-1
 134 -250 l 1,2,-1
 134 832 l 1,3,-1
 423 832 l 1,0,-1
EndSplineSet
Substitution2: "'smcp' Lowercase to Small Capitals lookup 1 subtable" I.smcp
EndChar

StartChar: e
Encoding: 101 101 381
Width: 1106
VWidth: 1798
GlyphClass: 2
Flags: W
AnchorPoint: "Anchor-1" 568 -250 basechar 0
AnchorPoint: "Anchor-0" 565 1040 basechar 0
LayerCount: 2
Fore
SplineSet
610 -270 m 0,0,1
 442 -270 442 -270 321 -199.5 c 128,-1,2
 200 -129 200 -129 135.5 -10 c 128,-1,3
 71 109 71 109 71 254 c 2,4,-1
 71 294 l 2,5,6
 71 458 71 458 132.5 584 c 128,-1,7
 194 710 194 710 307.5 781 c 128,-1,8
 421 852 421 852 578 852 c 0,9,10
 808 852 808 852 931 706.5 c 128,-1,11
 1054 561 1054 561 1054 322 c 2,12,-1
 1054 202 l 1,13,-1
 363 202 l 1,14,15
 377 92 377 92 446 23.5 c 128,-1,16
 515 -45 515 -45 628 -45 c 0,17,18
 706 -45 706 -45 773.5 -14.5 c 128,-1,19
 841 16 841 16 890 78 c 1,20,-1
 1030 -74 l 1,21,22
 979 -148 979 -148 873.5 -209 c 128,-1,23
 768 -270 768 -270 610 -270 c 0,0,1
575 627 m 0,24,25
 481 627 481 627 431 563 c 128,-1,26
 381 499 381 499 366 394 c 1,27,-1
 771 394 l 1,28,-1
 771 416 l 2,29,30
 770 505 770 505 722.5 566 c 128,-1,31
 675 627 675 627 575 627 c 0,24,25
EndSplineSet
Substitution2: "'unic' Unicase lookup 2 subtable" E.unic
Substitution2: "'smcp' Lowercase to Small Capitals lookup 1 subtable" E.smcp
EndChar

StartChar: eight
Encoding: 56 56 389
Width: 1175
VWidth: 1798
GlyphClass: 2
Flags: W
LayerCount: 2
Fore
SplineSet
1081 149 m 0,0,1
 1081 12 1081 12 1017 -81.5 c 128,-1,2
 953 -175 953 -175 841.5 -222.5 c 128,-1,3
 730 -270 730 -270 589 -270 c 256,4,5
 448 -270 448 -270 336 -222.5 c 128,-1,6
 224 -175 224 -175 159 -81.5 c 128,-1,7
 94 12 94 12 94 149 c 0,8,9
 94 270 94 270 157 360.5 c 128,-1,10
 220 451 220 451 327 501 c 1,11,12
 234 549 234 549 180 631.5 c 128,-1,13
 126 714 126 714 126 820 c 0,14,15
 126 952 126 952 185.5 1042.5 c 128,-1,16
 245 1133 245 1133 349.5 1180 c 128,-1,17
 454 1227 454 1227 587 1227 c 0,18,19
 722 1227 722 1227 826.5 1180 c 128,-1,20
 931 1133 931 1133 990.5 1042.5 c 128,-1,21
 1050 952 1050 952 1050 820 c 0,22,23
 1050 714 1050 714 996 631.5 c 128,-1,24
 942 549 942 549 848 500 c 1,25,26
 955 451 955 451 1018 360.5 c 128,-1,27
 1081 270 1081 270 1081 149 c 0,0,1
762 807 m 0,28,29
 762 895 762 895 716 948.5 c 128,-1,30
 670 1002 670 1002 587 1002 c 0,31,32
 506 1002 506 1002 460.5 950 c 128,-1,33
 415 898 415 898 415 807 c 0,34,35
 415 718 415 718 460.5 663.5 c 128,-1,36
 506 609 506 609 589 609 c 256,37,38
 672 609 672 609 717 663.5 c 128,-1,39
 762 718 762 718 762 807 c 0,28,29
791 168 m 256,40,41
 791 268 791 268 735 326 c 128,-1,42
 679 384 679 384 587 384 c 0,43,44
 496 384 496 384 439.5 326 c 128,-1,45
 383 268 383 268 383 168 c 256,46,47
 383 68 383 68 439 11.5 c 128,-1,48
 495 -45 495 -45 589 -45 c 0,49,50
 682 -45 682 -45 736.5 11.5 c 128,-1,51
 791 68 791 68 791 168 c 256,40,41
EndSplineSet
Substitution2: "'ss01' Style Set 1 lookup 35 subtable" uni06F8
Substitution2: "'numr' Numerators lookup 21 subtable" eight.frac
Substitution2: "'dnom' Denominators lookup 20 subtable" eight.sup
Substitution2: "'frac' Diagonal Fractions lookup 19 subtable" eight.frac
Substitution2: "Single Substitution lookup 18 subtable" eight.sup
Substitution2: "'lnum' Lining Figures lookup 15 subtable" eight.pnum
Substitution2: "'onum' Oldstyle Figures lookup 14 subtable" eight.tnum
Substitution2: "'c2sc' Capitals to Small Capitals lookup 0 subtable" eight.smcp
Position2: "'cpsp' Capital Spacing lookup 0 subtable" dx=36 dy=0 dh=72 dv=0
EndChar

StartChar: eight.smcp
Encoding: 65731 -1 392
Width: 1064
GlyphClass: 2
Flags: W
LayerCount: 2
Fore
SplineSet
986 321 m 0,0,1
 986 209 986 209 927 134 c 128,-1,2
 868 59 868 59 766 21.5 c 128,-1,3
 664 -16 664 -16 533 -16 c 0,4,5
 404 -16 404 -16 301 21.5 c 128,-1,6
 198 59 198 59 138 134 c 128,-1,7
 78 209 78 209 78 321 c 0,8,9
 78 418 78 418 131.5 489 c 128,-1,10
 185 560 185 560 276 600 c 1,11,12
 197 640 197 640 151.5 704 c 128,-1,13
 106 768 106 768 106 852 c 0,14,15
 106 960 106 960 161 1033.5 c 128,-1,16
 216 1107 216 1107 312 1144.5 c 128,-1,17
 408 1182 408 1182 531 1182 c 0,18,19
 719 1182 719 1182 838 1098 c 128,-1,20
 957 1014 957 1014 957 852 c 0,21,22
 957 768 957 768 912.5 703.5 c 128,-1,23
 868 639 868 639 789 600 c 1,24,25
 880 560 880 560 933 489 c 128,-1,26
 986 418 986 418 986 321 c 0,0,1
669 835 m 256,27,28
 669 892 669 892 634 924.5 c 128,-1,29
 599 957 599 957 531 957 c 0,30,31
 466 957 466 957 430.5 925 c 128,-1,32
 395 893 395 893 395 835 c 0,33,34
 395 778 395 778 430.5 742.5 c 128,-1,35
 466 707 466 707 533 707 c 0,36,37
 601 707 601 707 635 742.5 c 128,-1,38
 669 778 669 778 669 835 c 256,27,28
698 347 m 0,39,40
 698 413 698 413 651.5 447.5 c 128,-1,41
 605 482 605 482 531 482 c 0,42,43
 458 482 458 482 412.5 447.5 c 128,-1,44
 367 413 367 413 367 347 c 0,45,46
 367 283 367 283 413 245.5 c 128,-1,47
 459 208 459 208 533 208 c 256,48,49
 607 208 607 208 652.5 245.5 c 128,-1,50
 698 283 698 283 698 347 c 0,39,40
EndSplineSet
EndChar

StartChar: eight.sup
Encoding: 65732 -1 393
Width: 763
GlyphClass: 2
Flags: W
LayerCount: 2
Fore
SplineSet
691 218 m 0,0,1
 691 103 691 103 603.5 46 c 128,-1,2
 516 -11 516 -11 382 -11 c 0,3,4
 249 -11 249 -11 160.5 46 c 128,-1,5
 72 103 72 103 72 218 c 0,6,7
 72 284 72 284 107.5 331.5 c 128,-1,8
 143 379 143 379 203 407 c 1,9,10
 151 433 151 433 120.5 476.5 c 128,-1,11
 90 520 90 520 90 577 c 0,12,13
 90 687 90 687 172.5 744 c 128,-1,14
 255 801 255 801 380 801 c 0,15,16
 508 801 508 801 590 744 c 128,-1,17
 672 687 672 687 672 577 c 0,18,19
 672 520 672 520 642.5 476.5 c 128,-1,20
 613 433 613 433 560 406 c 1,21,22
 621 379 621 379 656 331.5 c 128,-1,23
 691 284 691 284 691 218 c 0,0,1
469 563 m 0,24,25
 469 640 469 640 380 640 c 0,26,27
 293 640 293 640 293 563 c 0,28,29
 293 528 293 528 316 505.5 c 128,-1,30
 339 483 339 483 382 483 c 0,31,32
 426 483 426 483 447.5 505.5 c 128,-1,33
 469 528 469 528 469 563 c 0,24,25
489 237 m 0,34,35
 489 280 489 280 458 301 c 128,-1,36
 427 322 427 322 380 322 c 0,37,38
 334 322 334 322 304.5 301 c 128,-1,39
 275 280 275 280 275 237 c 0,40,41
 275 197 275 197 305 173.5 c 128,-1,42
 335 150 335 150 382 150 c 256,43,44
 429 150 429 150 459 173.5 c 128,-1,45
 489 197 489 197 489 237 c 0,34,35
EndSplineSet
EndChar

StartChar: emdash
Encoding: 8212 8212 397
Width: 1600
GlyphClass: 2
Flags: W
LayerCount: 2
Fore
SplineSet
1477 413 m 1,0,-1
 123 413 l 1,1,-1
 123 624 l 1,2,-1
 1477 624 l 1,3,-1
 1477 413 l 1,0,-1
EndSplineSet
EndChar

StartChar: endash
Encoding: 8211 8211 398
Width: 1345
GlyphClass: 2
Flags: W
LayerCount: 2
Fore
SplineSet
1222 413 m 1,0,-1
 123 413 l 1,1,-1
 123 624 l 1,2,-1
 1222 624 l 1,3,-1
 1222 413 l 1,0,-1
EndSplineSet
EndChar

StartChar: eng
Encoding: 331 331 399
Width: 1155
VWidth: 1798
GlyphClass: 2
Flags: W
AnchorPoint: "Anchor-1" 563 -240 basechar 0
AnchorPoint: "Anchor-0" 573 1040 basechar 0
LayerCount: 2
Fore
SplineSet
1047 -289 m 2,0,1
 1047 -482 1047 -482 945.5 -584.5 c 128,-1,2
 844 -687 844 -687 665 -687 c 0,3,4
 627 -687 627 -687 592.5 -683.5 c 128,-1,5
 558 -680 558 -680 520 -670 c 1,6,-1
 534 -447 l 1,7,8
 579 -459 579 -459 634 -459 c 0,9,10
 758 -459 758 -459 758 -289 c 2,11,-1
 758 411 l 2,12,13
 758 533 758 533 715 579.5 c 128,-1,14
 672 626 672 626 594 626 c 0,15,16
 527 626 527 626 477.5 601 c 128,-1,17
 428 576 428 576 396 533 c 1,18,-1
 396 -250 l 1,19,-1
 108 -250 l 1,20,-1
 108 832 l 1,21,-1
 377 832 l 1,22,-1
 390 679 l 1,23,24
 442 760 442 760 521 806 c 128,-1,25
 600 852 600 852 700 852 c 0,26,27
 855 852 855 852 951 751 c 128,-1,28
 1047 650 1047 650 1047 411 c 2,29,-1
 1047 -289 l 2,0,1
EndSplineSet
Substitution2: "'unic' Unicase lookup 2 subtable" Eng
Substitution2: "'smcp' Lowercase to Small Capitals lookup 1 subtable" Eng.smcp
EndChar

StartChar: eogonek
Encoding: 281 281 400
Width: 1106
VWidth: 1798
GlyphClass: 2
Flags: W
AnchorPoint: "Anchor-1" 568 -250 basechar 0
AnchorPoint: "Anchor-0" 565 1040 basechar 0
LayerCount: 2
Fore
SplineSet
880 -596 m 1,0,1
 855 -611 855 -611 815.5 -625.5 c 128,-1,2
 776 -640 776 -640 716 -640 c 0,3,4
 622 -640 622 -640 555.5 -587.5 c 128,-1,5
 489 -535 489 -535 489 -434 c 0,6,7
 489 -391 489 -391 503.5 -349 c 128,-1,8
 518 -307 518 -307 552 -268 c 1,9,10
 401 -255 401 -255 293.5 -182.5 c 128,-1,11
 186 -110 186 -110 128.5 3.5 c 128,-1,12
 71 117 71 117 71 254 c 2,13,-1
 71 294 l 2,14,15
 71 458 71 458 132.5 584 c 128,-1,16
 194 710 194 710 307.5 781 c 128,-1,17
 421 852 421 852 578 852 c 0,18,19
 808 852 808 852 931 706.5 c 128,-1,20
 1054 561 1054 561 1054 322 c 2,21,-1
 1054 202 l 1,22,-1
 363 202 l 1,23,24
 377 92 377 92 446 23.5 c 128,-1,25
 515 -45 515 -45 628 -45 c 0,26,27
 706 -45 706 -45 773.5 -14.5 c 128,-1,28
 841 16 841 16 890 78 c 1,29,-1
 1030 -74 l 1,30,31
 1003 -114 1003 -114 959.5 -151.5 c 128,-1,32
 916 -189 916 -189 857 -217 c 1,33,-1
 859 -218 l 1,34,35
 784 -261 784 -261 744.5 -302.5 c 128,-1,36
 705 -344 705 -344 705 -399 c 0,37,38
 705 -427 705 -427 719.5 -445.5 c 128,-1,39
 734 -464 734 -464 770 -464 c 0,40,41
 799 -464 799 -464 817.5 -457 c 128,-1,42
 836 -450 836 -450 849 -443 c 1,43,-1
 880 -596 l 1,0,1
575 627 m 0,44,45
 481 627 481 627 431 563 c 128,-1,46
 381 499 381 499 366 394 c 1,47,-1
 771 394 l 1,48,-1
 771 416 l 2,49,50
 770 505 770 505 722.5 566 c 128,-1,51
 675 627 675 627 575 627 c 0,44,45
EndSplineSet
Substitution2: "'locl' Localized Forms in Latin lookup 8 subtable" eogonek.NAV
Substitution2: "'unic' Unicase lookup 2 subtable" Eogonek.unic
Substitution2: "'smcp' Lowercase to Small Capitals lookup 1 subtable" Eogonek.smcp
EndChar

StartChar: equal
Encoding: 61 61 402
Width: 1151
VWidth: 1798
GlyphClass: 2
Flags: W
LayerCount: 2
Fore
SplineSet
1025 360 m 1,0,-1
 137 360 l 1,1,-1
 137 572 l 1,2,-1
 1025 572 l 1,3,-1
 1025 360 l 1,0,-1
1025 -42 m 1,4,-1
 137 -42 l 1,5,-1
 137 169 l 1,6,-1
 1025 169 l 1,7,-1
 1025 -42 l 1,4,-1
EndSplineSet
EndChar

StartChar: estimated
Encoding: 8494 8494 403
Width: 1296
GlyphClass: 2
Flags: W
LayerCount: 2
Fore
SplineSet
1040 198 m 1,0,-1
 1042 94 l 1,1,2
 958 42 958 42 864 11 c 128,-1,3
 770 -20 770 -20 672 -20 c 0,4,5
 563 -20 563 -20 468 24 c 128,-1,6
 373 68 373 68 301 145 c 128,-1,7
 229 222 229 222 188.5 324 c 128,-1,8
 148 426 148 426 148 541 c 0,9,10
 148 657 148 657 192.5 758.5 c 128,-1,11
 237 860 237 860 312 937 c 128,-1,12
 387 1014 387 1014 480.5 1058 c 128,-1,13
 574 1102 574 1102 672 1102 c 0,14,15
 809 1102 809 1102 921.5 1031.5 c 128,-1,16
 1034 961 1034 961 1100.5 839 c 128,-1,17
 1167 717 1167 717 1167 561 c 2,18,-1
 1167 514 l 1,19,-1
 399 514 l 1,20,-1
 399 186 l 1,21,22
 454 135 454 135 524 105.5 c 128,-1,23
 594 76 594 76 672 76 c 0,24,25
 765 76 765 76 858.5 105.5 c 128,-1,26
 952 135 952 135 1040 198 c 1,0,-1
672 1008 m 0,27,28
 597 1008 597 1008 526.5 975 c 128,-1,29
 456 942 456 942 399 886 c 1,30,-1
 399 609 l 1,31,-1
 939 609 l 1,32,-1
 939 895 l 1,33,34
 887 947 887 947 818 977.5 c 128,-1,35
 749 1008 749 1008 672 1008 c 0,27,28
EndSplineSet
EndChar

StartChar: eth
Encoding: 240 240 404
Width: 1177
VWidth: 1798
GlyphClass: 2
Flags: W
LayerCount: 2
Fore
SplineSet
236 1113 m 1,0,-1
 327 1330 l 1,1,2
 564 1280 564 1280 742 1149 c 1,3,-1
 913 1258 l 1,4,-1
 989 1146 l 1,5,-1
 849 1057 l 1,6,7
 971 934 971 934 1039 768 c 128,-1,8
 1107 602 1107 602 1107 399 c 2,9,-1
 1107 324 l 2,10,11
 1107 148 1107 148 1039.5 14 c 128,-1,12
 972 -120 972 -120 855 -195 c 128,-1,13
 738 -270 738 -270 588 -270 c 256,14,15
 438 -270 438 -270 324.5 -204.5 c 128,-1,16
 211 -139 211 -139 148 -28.5 c 128,-1,17
 85 82 85 82 85 218 c 0,18,19
 85 443 85 443 203.5 579.5 c 128,-1,20
 322 716 322 716 536 716 c 0,21,22
 606 716 606 716 669 696 c 128,-1,23
 732 676 732 676 783 639 c 1,24,25
 757 722 757 722 714.5 789 c 128,-1,26
 672 856 672 856 617 909 c 1,27,-1
 425 787 l 1,28,-1
 349 899 l 1,29,-1
 504 998 l 1,30,31
 443 1037 443 1037 375 1065.5 c 128,-1,32
 307 1094 307 1094 236 1113 c 1,0,-1
373 218 m 0,33,34
 373 111 373 111 430.5 33 c 128,-1,35
 488 -45 488 -45 592 -45 c 0,36,37
 703 -45 703 -45 760 53 c 128,-1,38
 817 151 817 151 817 297 c 2,39,-1
 817 401 l 2,40,41
 817 410 817 410 817 419 c 1,42,43
 789 453 789 453 735 478.5 c 128,-1,44
 681 504 681 504 600 504 c 0,45,46
 487 504 487 504 430 427.5 c 128,-1,47
 373 351 373 351 373 218 c 0,33,34
EndSplineSet
Substitution2: "'unic' Unicase lookup 2 subtable" Eth
Substitution2: "'smcp' Lowercase to Small Capitals lookup 1 subtable" Eth.smcp
EndChar

StartChar: exclam
Encoding: 33 33 405
Width: 597
VWidth: 1798
GlyphClass: 2
Flags: W
LayerCount: 2
Fore
SplineSet
162 1151 m 1,0,-1
 441 1151 l 1,1,-1
 421 229 l 1,2,-1
 182 229 l 1,3,-1
 162 1151 l 1,0,-1
125 -81 m 0,4,5
 125 -10 125 -10 176 38 c 128,-1,6
 227 86 227 86 299 86 c 256,7,8
 371 86 371 86 422 38 c 128,-1,9
 473 -10 473 -10 473 -81 c 0,10,11
 473 -153 473 -153 421.5 -201 c 128,-1,12
 370 -249 370 -249 299 -249 c 0,13,14
 226 -249 226 -249 175.5 -201.5 c 128,-1,15
 125 -154 125 -154 125 -81 c 0,4,5
EndSplineSet
EndChar

StartChar: exclamdown
Encoding: 161 161 407
Width: 579
VWidth: 1798
GlyphClass: 2
Flags: W
LayerCount: 2
Fore
SplineSet
452 703 m 256,0,1
 452 640 452 640 408 597.5 c 128,-1,2
 364 555 364 555 290 555 c 0,3,4
 217 555 217 555 172.5 597.5 c 128,-1,5
 128 640 128 640 128 703 c 256,6,7
 128 766 128 766 172.5 809 c 128,-1,8
 217 852 217 852 290 852 c 0,9,10
 364 852 364 852 408 809 c 128,-1,11
 452 766 452 766 452 703 c 256,0,1
137 -618 m 1,12,-1
 171 393 l 1,13,-1
 410 393 l 1,14,-1
 444 -618 l 1,15,-1
 137 -618 l 1,12,-1
EndSplineSet
EndChar

StartChar: f
Encoding: 102 102 408
Width: 733
VWidth: 1798
GlyphClass: 2
Flags: W
AnchorPoint: "Anchor-1" 330 -240 basechar 0
AnchorPoint: "Anchor-0" 502 1504 basechar 0
LayerCount: 2
Fore
SplineSet
479 -250 m 1,0,-1
 189 -250 l 1,1,-1
 189 628 l 1,2,-1
 28 628 l 1,3,-1
 28 832 l 1,4,-1
 189 832 l 1,5,-1
 189 928 l 2,6,7
 189 1113 189 1113 296 1210 c 128,-1,8
 403 1307 403 1307 585 1307 c 0,9,10
 625 1307 625 1307 662 1301.5 c 128,-1,11
 699 1296 699 1296 734 1288 c 1,12,-1
 731 1071 l 1,13,14
 694 1080 694 1080 642 1080 c 0,15,16
 479 1080 479 1080 479 928 c 2,17,-1
 479 832 l 1,18,-1
 695 832 l 1,19,-1
 695 628 l 1,20,-1
 479 628 l 1,21,-1
 479 -250 l 1,0,-1
EndSplineSet
Substitution2: "'unic' Unicase lookup 2 subtable" F
Substitution2: "'smcp' Lowercase to Small Capitals lookup 1 subtable" F.smcp
EndChar

StartChar: f_f_i
Encoding: 64259 64259 410
Width: 1904
GlyphClass: 3
Flags: W
LayerCount: 2
Fore
SplineSet
479 0 m 1,0,-1
 189 0 l 1,1,-1
 189 878 l 1,2,-1
 28 878 l 1,3,-1
 28 1082 l 1,4,-1
 189 1082 l 1,5,-1
 189 1178 l 2,6,7
 189 1363 189 1363 296 1460 c 128,-1,8
 403 1557 403 1557 585 1557 c 0,9,10
 625 1557 625 1557 662 1551.5 c 128,-1,11
 699 1546 699 1546 734 1538 c 1,12,-1
 731 1321 l 1,13,14
 694 1330 694 1330 642 1330 c 0,15,16
 479 1330 479 1330 479 1178 c 2,17,-1
 479 1082 l 1,18,-1
 839 1082 l 1,19,-1
 839 1131 l 2,20,21
 839 1338 839 1338 963.5 1447.5 c 128,-1,22
 1088 1557 1088 1557 1312 1557 c 0,23,24
 1398 1557 1398 1557 1477.5 1540.5 c 128,-1,25
 1557 1524 1557 1524 1642 1498 c 1,26,-1
 1601 1268 l 1,27,28
 1546 1284 1546 1284 1482.5 1299 c 128,-1,29
 1419 1314 1419 1314 1330 1314 c 0,30,31
 1127 1314 1127 1314 1127 1131 c 2,32,-1
 1127 1082 l 1,33,-1
 1342 1082 l 1,34,-1
 1342 878 l 1,35,-1
 1127 878 l 1,36,-1
 1127 0 l 1,37,-1
 839 0 l 1,38,-1
 839 878 l 1,39,-1
 479 878 l 1,40,-1
 479 0 l 1,0,-1
1777 1082 m 1,41,-1
 1777 0 l 1,42,-1
 1487 0 l 1,43,-1
 1487 1082 l 1,44,-1
 1777 1082 l 1,41,-1
EndSplineSet
Ligature2: "'liga' Standard Ligatures in Latin lookup 10 subtable" f f i
EndChar

StartChar: f_f_l
Encoding: 64260 64260 411
Width: 1904
GlyphClass: 3
Flags: W
LayerCount: 2
Fore
SplineSet
479 0 m 1,0,-1
 189 0 l 1,1,-1
 189 878 l 1,2,-1
 28 878 l 1,3,-1
 28 1082 l 1,4,-1
 189 1082 l 1,5,-1
 189 1178 l 2,6,7
 189 1363 189 1363 296 1460 c 128,-1,8
 403 1557 403 1557 585 1557 c 0,9,10
 625 1557 625 1557 662 1551.5 c 128,-1,11
 699 1546 699 1546 734 1538 c 1,12,-1
 731 1321 l 1,13,14
 694 1330 694 1330 642 1330 c 0,15,16
 479 1330 479 1330 479 1178 c 2,17,-1
 479 1082 l 1,18,-1
 839 1082 l 1,19,-1
 839 1165 l 2,20,21
 839 1356 839 1356 956 1456.5 c 128,-1,22
 1073 1557 1073 1557 1285 1557 c 0,23,24
 1344 1557 1344 1557 1432.5 1552 c 128,-1,25
 1521 1547 1521 1547 1613.5 1539 c 128,-1,26
 1706 1531 1706 1531 1777 1523 c 1,27,-1
 1777 0 l 1,28,-1
 1487 0 l 1,29,-1
 1487 1320 l 1,30,31
 1444 1325 1444 1325 1403.5 1327.5 c 128,-1,32
 1363 1330 1363 1330 1324 1330 c 0,33,34
 1230 1330 1230 1330 1178.5 1287.5 c 128,-1,35
 1127 1245 1127 1245 1127 1165 c 2,36,-1
 1127 1082 l 1,37,-1
 1344 1082 l 1,38,-1
 1344 878 l 1,39,-1
 1127 878 l 1,40,-1
 1127 0 l 1,41,-1
 839 0 l 1,42,-1
 839 878 l 1,43,-1
 479 878 l 1,44,-1
 479 0 l 1,0,-1
EndSplineSet
Ligature2: "'liga' Standard Ligatures in Latin lookup 11 subtable" f f l
EndChar

StartChar: f_l
Encoding: 64258 64258 412
Width: 1255
GlyphClass: 3
Flags: W
LayerCount: 2
Fore
SplineSet
479 0 m 1,0,-1
 189 0 l 1,1,-1
 189 878 l 1,2,-1
 28 878 l 1,3,-1
 28 1082 l 1,4,-1
 189 1082 l 1,5,-1
 189 1165 l 2,6,7
 189 1356 189 1356 306.5 1456.5 c 128,-1,8
 424 1557 424 1557 636 1557 c 0,9,10
 695 1557 695 1557 783.5 1552 c 128,-1,11
 872 1547 872 1547 964.5 1539 c 128,-1,12
 1057 1531 1057 1531 1127 1523 c 1,13,-1
 1127 0 l 1,14,-1
 839 0 l 1,15,-1
 839 1320 l 1,16,17
 796 1325 796 1325 755.5 1327.5 c 128,-1,18
 715 1330 715 1330 676 1330 c 0,19,20
 479 1330 479 1330 479 1165 c 2,21,-1
 479 1082 l 1,22,-1
 695 1082 l 1,23,-1
 695 878 l 1,24,-1
 479 878 l 1,25,-1
 479 0 l 1,0,-1
EndSplineSet
Ligature2: "'liga' Standard Ligatures in Latin lookup 11 subtable" f l
EndChar

StartChar: fi
Encoding: 64257 64257 413
Width: 1249
GlyphClass: 3
Flags: W
LayerCount: 2
Fore
SplineSet
472 0 m 1,0,-1
 183 0 l 1,1,-1
 183 878 l 1,2,-1
 22 878 l 1,3,-1
 22 1082 l 1,4,-1
 183 1082 l 1,5,-1
 183 1131 l 2,6,7
 183 1338 183 1338 308 1447.5 c 128,-1,8
 433 1557 433 1557 657 1557 c 0,9,10
 742 1557 742 1557 822 1540.5 c 128,-1,11
 902 1524 902 1524 987 1498 c 1,12,-1
 945 1268 l 1,13,14
 890 1284 890 1284 827 1299 c 128,-1,15
 764 1314 764 1314 675 1314 c 0,16,17
 472 1314 472 1314 472 1131 c 2,18,-1
 472 1082 l 1,19,-1
 687 1082 l 1,20,-1
 687 878 l 1,21,-1
 472 878 l 1,22,-1
 472 0 l 1,0,-1
1121 1082 m 1,23,-1
 1121 0 l 1,24,-1
 832 0 l 1,25,-1
 832 1082 l 1,26,-1
 1121 1082 l 1,23,-1
EndSplineSet
Ligature2: "'liga' Standard Ligatures in Latin lookup 10 subtable" f i
EndChar

StartChar: figuredash
Encoding: 8210 8210 414
Width: 1025
GlyphClass: 2
Flags: W
LayerCount: 2
Fore
SplineSet
902 413 m 1,0,-1
 123 413 l 1,1,-1
 123 624 l 1,2,-1
 902 624 l 1,3,-1
 902 413 l 1,0,-1
EndSplineSet
EndChar

StartChar: five
Encoding: 53 53 415
Width: 1175
VWidth: 1798
GlyphClass: 2
Flags: W
LayerCount: 2
Fore
SplineSet
371 413 m 1,0,-1
 141 468 l 1,1,-1
 224 1206 l 1,2,-1
 1042 1206 l 1,3,-1
 1042 973 l 1,4,-1
 461 973 l 1,5,-1
 425 650 l 1,6,7
 454 667 454 667 513 686.5 c 128,-1,8
 572 706 572 706 645 706 c 0,9,10
 856 706 856 706 973 577 c 128,-1,11
 1090 448 1090 448 1090 217 c 0,12,13
 1090 87 1090 87 1037 -24 c 128,-1,14
 984 -135 984 -135 875 -202.5 c 128,-1,15
 766 -270 766 -270 598 -270 c 0,16,17
 473 -270 473 -270 361 -220 c 128,-1,18
 249 -170 249 -170 178.5 -75 c 128,-1,19
 108 20 108 20 105 154 c 1,20,-1
 391 154 l 1,21,22
 399 60 399 60 454 7.5 c 128,-1,23
 509 -45 509 -45 597 -45 c 0,24,25
 707 -45 707 -45 754 34.5 c 128,-1,26
 801 114 801 114 801 232 c 0,27,28
 801 349 801 349 743.5 422 c 128,-1,29
 686 495 686 495 567 495 c 0,30,31
 487 495 487 495 443.5 470 c 128,-1,32
 400 445 400 445 371 413 c 1,0,-1
EndSplineSet
Substitution2: "'ss01' Style Set 1 lookup 35 subtable" uni06F5
Substitution2: "'numr' Numerators lookup 21 subtable" five.frac
Substitution2: "'dnom' Denominators lookup 20 subtable" five.sup
Substitution2: "'frac' Diagonal Fractions lookup 19 subtable" five.frac
Substitution2: "Single Substitution lookup 18 subtable" five.sup
Substitution2: "'onum' Oldstyle Figures lookup 14 subtable" five.tnum
Substitution2: "'c2sc' Capitals to Small Capitals lookup 0 subtable" five.smcp
Position2: "'cpsp' Capital Spacing lookup 0 subtable" dx=36 dy=0 dh=72 dv=0
EndChar

StartChar: five.onum
Encoding: 65737 -1 417
Width: 1131
GlyphClass: 1
Flags: W
LayerCount: 2
Fore
SplineSet
381 366 m 1,0,-1
 141 383 l 1,1,-1
 214 1164 l 1,2,-1
 1041 1164 l 1,3,-1
 1041 931 l 1,4,-1
 449 931 l 1,5,-1
 411 617 l 1,6,7
 450 640 450 640 505.5 652.5 c 128,-1,8
 561 665 561 665 637 665 c 0,9,10
 850 666 850 666 965 536 c 128,-1,11
 1080 406 1080 406 1080 176 c 0,12,13
 1080 37 1080 37 1019.5 -83.5 c 128,-1,14
 959 -204 959 -204 836 -278.5 c 128,-1,15
 713 -353 713 -353 525 -353 c 0,16,17
 413 -353 413 -353 305 -322.5 c 128,-1,18
 197 -292 197 -292 105 -233 c 1,19,-1
 192 -28 l 1,20,21
 243 -67 243 -67 320.5 -96.5 c 128,-1,22
 398 -126 398 -126 495 -126 c 0,23,24
 602 -126 602 -126 667 -84 c 128,-1,25
 732 -42 732 -42 762 26.5 c 128,-1,26
 792 95 792 95 792 174 c 0,27,28
 792 295 792 295 736 374.5 c 128,-1,29
 680 454 680 454 561 454 c 0,30,31
 497 454 497 454 452.5 430 c 128,-1,32
 408 406 408 406 381 366 c 1,0,-1
EndSplineSet
EndChar

StartChar: five.smcp
Encoding: 65738 -1 418
Width: 1064
GlyphClass: 2
Flags: W
LayerCount: 2
Fore
SplineSet
336 512 m 1,0,-1
 107 567 l 1,1,-1
 186 1165 l 1,2,-1
 921 1165 l 1,3,-1
 921 942 l 1,4,-1
 420 942 l 1,5,-1
 389 724 l 1,6,7
 411 734 411 734 467 750 c 128,-1,8
 523 766 523 766 587 766 c 0,9,10
 780 766 780 766 882.5 667 c 128,-1,11
 985 568 985 568 985 389 c 0,12,13
 985 285 985 285 936.5 192 c 128,-1,14
 888 99 888 99 788 41.5 c 128,-1,15
 688 -16 688 -16 534 -16 c 0,16,17
 419 -16 419 -16 315.5 25 c 128,-1,18
 212 66 212 66 147 143 c 128,-1,19
 82 220 82 220 79 327 c 1,20,-1
 368 327 l 1,21,22
 371 263 371 263 416 235.5 c 128,-1,23
 461 208 461 208 534 208 c 0,24,25
 629 208 629 208 663 262 c 128,-1,26
 697 316 697 316 697 390 c 0,27,28
 697 472 697 472 650.5 521.5 c 128,-1,29
 604 571 604 571 510 571 c 0,30,31
 434 571 434 571 396 550.5 c 128,-1,32
 358 530 358 530 336 512 c 1,0,-1
EndSplineSet
EndChar

StartChar: five.sup
Encoding: 65739 -1 419
Width: 763
GlyphClass: 2
Flags: W
LayerCount: 2
Fore
SplineSet
249 343 m 1,0,-1
 88 383 l 1,1,-1
 142 789 l 1,2,-1
 645 789 l 1,3,-1
 645 632 l 1,4,-1
 307 632 l 1,5,-1
 286 492 l 1,6,7
 300 497 300 497 338 508 c 128,-1,8
 376 519 376 519 418 519 c 0,9,10
 550 519 550 519 619.5 453 c 128,-1,11
 689 387 689 387 689 265 c 0,12,13
 689 195 689 195 656 131.5 c 128,-1,14
 623 68 623 68 554.5 28.5 c 128,-1,15
 486 -11 486 -11 381 -11 c 0,16,17
 302 -11 302 -11 231.5 17.5 c 128,-1,18
 161 46 161 46 116 98.5 c 128,-1,19
 71 151 71 151 70 223 c 1,20,-1
 274 223 l 1,21,22
 276 183 276 183 304.5 166.5 c 128,-1,23
 333 150 333 150 381 150 c 0,24,25
 444 150 444 150 465 184.5 c 128,-1,26
 486 219 486 219 486 265 c 0,27,28
 486 318 486 318 456 350 c 128,-1,29
 426 382 426 382 365 382 c 0,30,31
 314 382 314 382 288.5 368 c 128,-1,32
 263 354 263 354 249 343 c 1,0,-1
EndSplineSet
EndChar

StartChar: florin
Encoding: 402 402 422
Width: 739
VWidth: 1798
GlyphClass: 2
Flags: W
LayerCount: 2
Fore
SplineSet
684 832 m 1,0,-1
 684 628 l 1,1,-1
 473 628 l 1,2,-1
 473 -302 l 2,3,4
 473 -489 473 -489 375.5 -588 c 128,-1,5
 278 -687 278 -687 107 -687 c 0,6,7
 68 -687 68 -687 34 -683.5 c 128,-1,8
 0 -680 0 -680 -38 -670 c 1,9,-1
 -23 -450 l 1,10,11
 -8 -454 -8 -454 21 -458 c 128,-1,12
 50 -462 50 -462 68 -462 c 0,13,14
 133 -462 133 -462 159 -421 c 128,-1,15
 185 -380 185 -380 185 -302 c 2,16,-1
 185 628 l 1,17,-1
 23 628 l 1,18,-1
 23 832 l 1,19,-1
 185 832 l 1,20,-1
 185 928 l 2,21,22
 185 1113 185 1113 290.5 1210 c 128,-1,23
 396 1307 396 1307 584 1307 c 0,24,25
 625 1307 625 1307 664.5 1301 c 128,-1,26
 704 1295 704 1295 744 1286 c 1,27,-1
 719 1070 l 1,28,29
 698 1075 698 1075 674.5 1077.5 c 128,-1,30
 651 1080 651 1080 619 1080 c 0,31,32
 473 1080 473 1080 473 928 c 2,33,-1
 473 832 l 1,34,-1
 684 832 l 1,0,-1
EndSplineSet
EndChar

StartChar: four
Encoding: 52 52 423
Width: 1175
VWidth: 1798
GlyphClass: 2
Flags: W
LayerCount: 2
Fore
SplineSet
1120 294 m 1,0,-1
 1120 68 l 1,1,-1
 955 68 l 1,2,-1
 955 -250 l 1,3,-1
 667 -250 l 1,4,-1
 667 68 l 1,5,-1
 71 68 l 1,6,-1
 57 243 l 1,7,-1
 664 1206 l 1,8,-1
 955 1206 l 1,9,-1
 955 294 l 1,10,-1
 1120 294 l 1,0,-1
343 294 m 1,11,-1
 667 294 l 1,12,-1
 667 828 l 1,13,-1
 645 791 l 1,14,-1
 343 294 l 1,11,-1
EndSplineSet
Substitution2: "'ss01' Style Set 1 lookup 35 subtable" uni06F4
Substitution2: "'numr' Numerators lookup 21 subtable" four.frac
Substitution2: "'dnom' Denominators lookup 20 subtable" four.sup
Substitution2: "'frac' Diagonal Fractions lookup 19 subtable" four.frac
Substitution2: "Single Substitution lookup 18 subtable" four.sup
Substitution2: "'onum' Oldstyle Figures lookup 14 subtable" four.tnum
Substitution2: "'c2sc' Capitals to Small Capitals lookup 0 subtable" four.smcp
Position2: "'cpsp' Capital Spacing lookup 0 subtable" dx=36 dy=0 dh=72 dv=0
EndChar

StartChar: four.onum
Encoding: 65742 -1 425
Width: 1194
GlyphClass: 1
Flags: W
LayerCount: 2
Fore
SplineSet
1139 226 m 1,0,-1
 1139 -1 l 1,1,-1
 975 -1 l 1,2,-1
 975 -304 l 1,3,-1
 687 -304 l 1,4,-1
 687 -1 l 1,5,-1
 57 -1 l 1,6,-1
 44 175 l 1,7,-1
 684 1164 l 1,8,-1
 975 1164 l 1,9,-1
 975 226 l 1,10,-1
 1139 226 l 1,0,-1
331 226 m 1,11,-1
 687 226 l 1,12,-1
 687 785 l 1,13,-1
 664 746 l 1,14,-1
 331 226 l 1,11,-1
EndSplineSet
EndChar

StartChar: four.smcp
Encoding: 65743 -1 426
Width: 1064
GlyphClass: 2
Flags: W
LayerCount: 2
Fore
SplineSet
1012 468 m 1,0,-1
 1012 242 l 1,1,-1
 874 242 l 1,2,-1
 874 0 l 1,3,-1
 586 0 l 1,4,-1
 586 242 l 1,5,-1
 69 242 l 1,6,-1
 53 424 l 1,7,-1
 586 1165 l 1,8,-1
 874 1165 l 1,9,-1
 874 468 l 1,10,-1
 1012 468 l 1,0,-1
331 468 m 1,11,-1
 586 468 l 1,12,-1
 586 817 l 1,13,-1
 565 785 l 1,14,-1
 331 468 l 1,11,-1
EndSplineSet
EndChar

StartChar: four.sup
Encoding: 65744 -1 427
Width: 763
GlyphClass: 2
Flags: W
LayerCount: 2
Fore
SplineSet
705 324 m 1,0,-1
 705 161 l 1,1,-1
 616 161 l 1,2,-1
 616 0 l 1,3,-1
 413 0 l 1,4,-1
 413 161 l 1,5,-1
 66 161 l 1,6,-1
 54 292 l 1,7,-1
 412 789 l 1,8,-1
 616 789 l 1,9,-1
 616 324 l 1,10,-1
 705 324 l 1,0,-1
248 324 m 1,11,-1
 413 324 l 1,12,-1
 413 546 l 1,13,-1
 397 521 l 1,14,-1
 248 324 l 1,11,-1
EndSplineSet
EndChar

StartChar: fraction
Encoding: 8260 8260 429
Width: 912
GlyphClass: 2
Flags: W
LayerCount: 2
Fore
SplineSet
880 1248 m 1,0,-1
 169 110 l 1,1,-1
 30 184 l 1,2,-1
 741 1322 l 1,3,-1
 880 1248 l 1,0,-1
EndSplineSet
EndChar

StartChar: g
Encoding: 103 103 431
Width: 1170
VWidth: 1798
GlyphClass: 2
Flags: W
AnchorPoint: "Anchor-1" 554 -697 basechar 0
AnchorPoint: "Anchor-0" 556 1040 basechar 0
LayerCount: 2
Fore
SplineSet
69 278 m 2,0,-1
 69 299 l 2,1,2
 69 464 69 464 122 588.5 c 128,-1,3
 175 713 175 713 273.5 782.5 c 128,-1,4
 372 852 372 852 507 852 c 0,5,6
 603 852 603 852 671 820 c 128,-1,7
 739 788 739 788 785 729 c 1,8,-1
 797 832 l 1,9,-1
 1058 832 l 1,10,-1
 1058 -214 l 2,11,12
 1058 -362 1058 -362 992.5 -465 c 128,-1,13
 927 -568 927 -568 810 -622 c 128,-1,14
 693 -676 693 -676 538 -676 c 0,15,16
 471 -676 471 -676 395 -658 c 128,-1,17
 319 -640 319 -640 250.5 -602 c 128,-1,18
 182 -564 182 -564 136 -506 c 1,19,-1
 263 -336 l 1,20,21
 313 -394 313 -394 379 -426.5 c 128,-1,22
 445 -459 445 -459 525 -459 c 0,23,24
 641 -459 641 -459 705 -395.5 c 128,-1,25
 769 -332 769 -332 769 -216 c 2,26,-1
 769 -155 l 1,27,28
 721 -209 721 -209 656 -239.5 c 128,-1,29
 591 -270 591 -270 505 -270 c 0,30,31
 371 -270 371 -270 273 -198.5 c 128,-1,32
 175 -127 175 -127 122 -3 c 128,-1,33
 69 121 69 121 69 278 c 2,0,-1
357 299 m 2,34,-1
 357 278 l 2,35,36
 357 144 357 144 411 50.5 c 128,-1,37
 465 -43 465 -43 578 -43 c 0,38,39
 648 -43 648 -43 695 -16 c 128,-1,40
 742 11 742 11 769 58 c 1,41,-1
 769 525 l 1,42,43
 742 573 742 573 695.5 599.5 c 128,-1,44
 649 626 649 626 580 626 c 0,45,46
 467 626 467 626 412 531 c 128,-1,47
 357 436 357 436 357 299 c 2,34,-1
EndSplineSet
Substitution2: "'salt' Stylistic Alternatives lookup 13 subtable" g.alt
Substitution2: "'unic' Unicase lookup 2 subtable" G
Substitution2: "'smcp' Lowercase to Small Capitals lookup 1 subtable" G.smcp
EndChar

StartChar: g.alt
Encoding: 65746 -1 432
Width: 1083
GlyphClass: 2
Flags: W
LayerCount: 2
Fore
SplineSet
51 714 m 2,0,-1
 51 736 l 2,1,2
 51 845 51 845 109.5 927 c 128,-1,3
 168 1009 168 1009 274 1055.5 c 128,-1,4
 380 1102 380 1102 520 1102 c 0,5,6
 611 1102 611 1102 690 1082 c 1,7,-1
 1051 1082 l 1,8,-1
 1053 931 l 1,9,-1
 930 931 l 1,10,11
 991 846 991 846 991 736 c 2,12,-1
 991 714 l 2,13,14
 991 612 991 612 933 528.5 c 128,-1,15
 875 445 875 445 769.5 396 c 128,-1,16
 664 347 664 347 522 347 c 0,17,18
 447 347 447 347 378 362 c 1,19,20
 367 350 367 350 359.5 334.5 c 128,-1,21
 352 319 352 319 352 299 c 0,22,23
 352 253 352 253 388.5 238.5 c 128,-1,24
 425 224 425 224 479 224 c 2,25,-1
 664 224 l 2,26,27
 846 224 846 224 947.5 146.5 c 128,-1,28
 1049 69 1049 69 1049 -77 c 0,29,30
 1049 -159 1049 -159 984 -242.5 c 128,-1,31
 919 -326 919 -326 795 -382 c 128,-1,32
 671 -438 671 -438 494 -438 c 0,33,34
 333 -438 333 -438 221.5 -399.5 c 128,-1,35
 110 -361 110 -361 53 -298 c 128,-1,36
 -4 -235 -4 -235 -4 -162 c 0,37,38
 -4 -70 -4 -70 55 -7.5 c 128,-1,39
 114 55 114 55 192 89 c 1,40,41
 146 138 146 138 146 213 c 0,42,43
 146 280 146 280 181 326 c 128,-1,44
 216 372 216 372 262 403 c 1,45,46
 163 451 163 451 107 533 c 128,-1,47
 51 615 51 615 51 714 c 2,0,-1
338 736 m 2,48,-1
 338 714 l 2,49,50
 338 653 338 653 386.5 605.5 c 128,-1,51
 435 558 435 558 522 558 c 0,52,53
 608 558 608 558 656 605.5 c 128,-1,54
 704 653 704 653 704 714 c 2,55,-1
 704 736 l 2,56,57
 704 801 704 801 655 845.5 c 128,-1,58
 606 890 606 890 520 890 c 0,59,60
 435 890 435 890 386.5 845.5 c 128,-1,61
 338 801 338 801 338 736 c 2,48,-1
267 -96 m 0,62,63
 267 -149 267 -149 322.5 -188 c 128,-1,64
 378 -227 378 -227 494 -227 c 0,65,66
 635 -227 635 -227 698.5 -182 c 128,-1,67
 762 -137 762 -137 762 -91 c 0,68,69
 762 -49 762 -49 732 -18 c 128,-1,70
 702 13 702 13 619 13 c 2,71,-1
 425 13 l 2,72,73
 377 13 377 13 335 21 c 1,74,75
 306 4 306 4 286.5 -26.5 c 128,-1,76
 267 -57 267 -57 267 -96 c 0,62,63
EndSplineSet
EndChar

StartChar: germandbls
Encoding: 223 223 437
Width: 1294
VWidth: 1798
GlyphClass: 2
Flags: W
LayerCount: 2
Fore
SplineSet
424 849 m 2,0,-1
 424 -250 l 1,1,-1
 137 -250 l 1,2,-1
 137 853 l 2,3,4
 137 1079 137 1079 264.5 1194 c 128,-1,5
 392 1309 392 1309 611 1309 c 0,6,7
 727 1309 727 1309 822.5 1268 c 128,-1,8
 918 1227 918 1227 975 1146 c 128,-1,9
 1032 1065 1032 1065 1032 943 c 0,10,11
 1032 868 1032 868 1016 823 c 128,-1,12
 1000 778 1000 778 979.5 745 c 128,-1,13
 959 712 959 712 943 675.5 c 128,-1,14
 927 639 927 639 927 580 c 0,15,16
 927 538 927 538 957 500.5 c 128,-1,17
 987 463 987 463 1032 424 c 128,-1,18
 1077 385 1077 385 1121.5 339 c 128,-1,19
 1166 293 1166 293 1196 235 c 128,-1,20
 1226 177 1226 177 1226 102 c 0,21,22
 1226 -76 1226 -76 1110 -173 c 128,-1,23
 994 -270 994 -270 779 -270 c 0,24,25
 702 -270 702 -270 621.5 -253.5 c 128,-1,26
 541 -237 541 -237 500 -212 c 1,27,-1
 554 9 l 1,28,29
 586 -8 586 -8 644 -26.5 c 128,-1,30
 702 -45 702 -45 773 -45 c 0,31,32
 852 -45 852 -45 895.5 -6 c 128,-1,33
 939 33 939 33 939 97 c 0,34,35
 939 147 939 147 908.5 185.5 c 128,-1,36
 878 224 878 224 833.5 260.5 c 128,-1,37
 789 297 789 297 744 338.5 c 128,-1,38
 699 380 699 380 668.5 435.5 c 128,-1,39
 638 491 638 491 638 569 c 0,40,41
 638 636 638 636 654.5 679 c 128,-1,42
 671 722 671 722 692 757 c 128,-1,43
 713 792 713 792 729.5 831 c 128,-1,44
 746 870 746 870 746 928 c 0,45,46
 746 1000 746 1000 701.5 1042.5 c 128,-1,47
 657 1085 657 1085 589 1085 c 0,48,49
 513 1085 513 1085 468.5 1032.5 c 128,-1,50
 424 980 424 980 424 849 c 2,0,-1
EndSplineSet
Substitution2: "'smcp' Lowercase to Small Capitals lookup 1 subtable" Germandbls.smcp
EndChar

StartChar: grave
Encoding: 96 96 438
Width: 676
VWidth: 1798
GlyphClass: 2
Flags: W
LayerCount: 2
Fore
SplineSet
369 1286 m 1,0,-1
 566 978 l 1,1,-1
 330 978 l 1,2,-1
 56 1286 l 1,3,-1
 369 1286 l 1,0,-1
EndSplineSet
EndChar

StartChar: gravecomb
Encoding: 768 768 439
Width: 0
VWidth: 1798
GlyphClass: 4
Flags: W
AnchorPoint: "Anchor-3" -530 1391 basemark 0
AnchorPoint: "Anchor-3" -530 1040 mark 0
AnchorPoint: "Anchor-0" -530 1040 mark 0
LayerCount: 2
Fore
SplineSet
-580 1286 m 1,0,-1
 -383 978 l 1,1,-1
 -619 978 l 1,2,-1
 -894 1286 l 1,3,-1
 -580 1286 l 1,0,-1
EndSplineSet
EndChar

StartChar: greater
Encoding: 62 62 440
Width: 1057
VWidth: 1798
GlyphClass: 2
Flags: W
LayerCount: 2
Fore
SplineSet
119 162 m 1,0,-1
 702 375 l 1,1,-1
 119 583 l 1,2,-1
 119 852 l 1,3,-1
 990 486 l 1,4,-1
 990 259 l 1,5,-1
 119 -107 l 1,6,-1
 119 162 l 1,0,-1
EndSplineSet
EndChar

StartChar: greaterequal
Encoding: 8805 8805 441
Width: 1057
GlyphClass: 2
Flags: W
LayerCount: 2
Fore
SplineSet
119 529 m 1,0,-1
 703 710 l 1,1,-1
 119 887 l 1,2,-1
 119 1111 l 1,3,-1
 990 803 l 1,4,-1
 990 614 l 1,5,-1
 119 306 l 1,6,-1
 119 529 l 1,0,-1
983 212 m 1,7,-1
 983 1 l 1,8,-1
 118 1 l 1,9,-1
 118 212 l 1,10,-1
 983 212 l 1,7,-1
EndSplineSet
EndChar

StartChar: guillemotleft
Encoding: 171 171 442
Width: 965
VWidth: 1798
GlyphClass: 2
Flags: W
LayerCount: 2
Fore
SplineSet
489 -151 m 1,0,-1
 354 -277 l 1,1,2
 217 -122 217 -122 151.5 1.5 c 128,-1,3
 86 125 86 125 86 243 c 0,4,5
 86 360 86 360 151.5 484 c 128,-1,6
 217 608 217 608 354 762 c 1,7,-1
 489 634 l 1,8,9
 404 507 404 507 362 416.5 c 128,-1,10
 320 326 320 326 320 242 c 0,11,12
 320 159 320 159 362.5 68 c 128,-1,13
 405 -23 405 -23 489 -151 c 1,0,-1
876 -151 m 1,14,-1
 741 -277 l 1,15,16
 604 -122 604 -122 535.5 1.5 c 128,-1,17
 467 125 467 125 467 243 c 0,18,19
 467 360 467 360 535.5 484 c 128,-1,20
 604 608 604 608 741 762 c 1,21,-1
 876 634 l 1,22,23
 791 507 791 507 749 416.5 c 128,-1,24
 707 326 707 326 707 242 c 0,25,26
 707 159 707 159 749 68 c 128,-1,27
 791 -23 791 -23 876 -151 c 1,14,-1
EndSplineSet
EndChar

StartChar: guillemotright
Encoding: 187 187 443
Width: 965
VWidth: 1798
GlyphClass: 2
Flags: W
LayerCount: 2
Fore
SplineSet
476 -151 m 1,0,1
 561 -23 561 -23 603 68 c 128,-1,2
 645 159 645 159 645 242 c 0,3,4
 645 326 645 326 603 416.5 c 128,-1,5
 561 507 561 507 476 634 c 1,6,-1
 611 762 l 1,7,8
 748 608 748 608 813.5 484 c 128,-1,9
 879 360 879 360 879 243 c 0,10,11
 879 125 879 125 813.5 1.5 c 128,-1,12
 748 -122 748 -122 611 -277 c 1,13,-1
 476 -151 l 1,0,1
89 -151 m 1,14,15
 174 -23 174 -23 216 68 c 128,-1,16
 258 159 258 159 258 242 c 0,17,18
 258 326 258 326 216 416.5 c 128,-1,19
 174 507 174 507 89 634 c 1,20,-1
 224 762 l 1,21,22
 361 608 361 608 430 484 c 128,-1,23
 499 360 499 360 499 243 c 0,24,25
 499 125 499 125 430 1.5 c 128,-1,26
 361 -122 361 -122 224 -277 c 1,27,-1
 89 -151 l 1,14,15
EndSplineSet
EndChar

StartChar: guilsinglleft
Encoding: 8249 8249 444
Width: 639
GlyphClass: 2
Flags: W
LayerCount: 2
Fore
SplineSet
573 926 m 1,0,-1
 333 527 l 1,1,-1
 573 128 l 1,2,-1
 388 128 l 1,3,-1
 108 518 l 1,4,-1
 108 537 l 1,5,-1
 388 926 l 1,6,-1
 573 926 l 1,0,-1
EndSplineSet
EndChar

StartChar: guilsinglright
Encoding: 8250 8250 445
Width: 619
GlyphClass: 2
Flags: W
LayerCount: 2
Fore
SplineSet
81 127 m 1,0,-1
 321 526 l 1,1,-1
 81 925 l 1,2,-1
 267 925 l 1,3,-1
 547 536 l 1,4,-1
 547 517 l 1,5,-1
 267 127 l 1,6,-1
 81 127 l 1,0,-1
EndSplineSet
EndChar

StartChar: h
Encoding: 104 104 446
Width: 1147
VWidth: 1798
GlyphClass: 2
Flags: W
AnchorPoint: "Anchor-1" 588 -240 basechar 0
AnchorPoint: "Anchor-0" 501 1361 basechar 0
LayerCount: 2
Fore
SplineSet
393 1286 m 1,0,-1
 393 712 l 1,1,2
 446 778 446 778 520 815 c 128,-1,3
 594 852 594 852 683 852 c 0,4,5
 844 852 844 852 942.5 757 c 128,-1,6
 1041 662 1041 662 1041 434 c 2,7,-1
 1041 -250 l 1,8,-1
 751 -250 l 1,9,-1
 751 436 l 2,10,11
 751 544 751 544 705.5 585 c 128,-1,12
 660 626 660 626 577 626 c 0,13,14
 509 626 509 626 464 598.5 c 128,-1,15
 419 571 419 571 393 524 c 1,16,-1
 393 -250 l 1,17,-1
 105 -250 l 1,18,-1
 105 1286 l 1,19,-1
 393 1286 l 1,0,-1
EndSplineSet
Substitution2: "'unic' Unicase lookup 2 subtable" H
Substitution2: "'smcp' Lowercase to Small Capitals lookup 1 subtable" H.smcp
EndChar

StartChar: hbar
Encoding: 295 295 447
Width: 1177
VWidth: 1798
GlyphClass: 2
Flags: W
AnchorPoint: "Anchor-1" 588 -240 basechar 0
AnchorPoint: "Anchor-0" 501 1361 basechar 0
LayerCount: 2
Fore
SplineSet
680 1147 m 1,0,-1
 680 968 l 1,1,-1
 423 968 l 1,2,-1
 423 712 l 1,3,4
 476 778 476 778 550 815 c 128,-1,5
 624 852 624 852 713 852 c 0,6,7
 874 852 874 852 972.5 757 c 128,-1,8
 1071 662 1071 662 1071 434 c 2,9,-1
 1071 -250 l 1,10,-1
 781 -250 l 1,11,-1
 781 436 l 2,12,13
 781 544 781 544 735.5 585 c 128,-1,14
 690 626 690 626 607 626 c 0,15,16
 539 626 539 626 494 598.5 c 128,-1,17
 449 571 449 571 423 524 c 1,18,-1
 423 -250 l 1,19,-1
 135 -250 l 1,20,-1
 135 968 l 1,21,-1
 -21 968 l 1,22,-1
 -21 1147 l 1,23,-1
 135 1147 l 1,24,-1
 135 1286 l 1,25,-1
 423 1286 l 1,26,-1
 423 1147 l 1,27,-1
 680 1147 l 1,0,-1
EndSplineSet
Substitution2: "'unic' Unicase lookup 2 subtable" Hbar
Substitution2: "'smcp' Lowercase to Small Capitals lookup 1 subtable" Hbar.smcp
EndChar

StartChar: hook
Encoding: 777 777 449
Width: 0
VWidth: 1798
GlyphClass: 4
Flags: W
AnchorPoint: "Anchor-3" -590 1471 basemark 0
AnchorPoint: "Anchor-3" -590 1024 mark 0
AnchorPoint: "Anchor-0" -590 1024 mark 0
LayerCount: 2
Fore
SplineSet
-502 1015 m 1,0,-1
 -719 1015 l 1,1,-1
 -735 1149 l 1,2,3
 -661 1153 -661 1153 -628 1168.5 c 128,-1,4
 -595 1184 -595 1184 -595 1216 c 0,5,6
 -595 1257 -595 1257 -636 1271.5 c 128,-1,7
 -677 1286 -677 1286 -739 1286 c 1,8,-1
 -732 1418 l 1,9,10
 -544 1418 -544 1418 -447.5 1366 c 128,-1,11
 -351 1314 -351 1314 -351 1224 c 0,12,13
 -351 1155 -351 1155 -398.5 1121.5 c 128,-1,14
 -446 1088 -446 1088 -502 1080 c 1,15,-1
 -502 1015 l 1,0,-1
EndSplineSet
EndChar

StartChar: hungarumlaut
Encoding: 733 733 450
Width: 845
VWidth: 1798
GlyphClass: 2
Flags: W
LayerCount: 2
Fore
SplineSet
412 984 m 1,0,-1
 638 1285 l 1,1,-1
 894 1285 l 1,2,-1
 627 984 l 1,3,-1
 412 984 l 1,0,-1
58 984 m 1,4,-1
 247 1285 l 1,5,-1
 500 1285 l 1,6,-1
 269 984 l 1,7,-1
 58 984 l 1,4,-1
EndSplineSet
EndChar

StartChar: hyphen
Encoding: 45 45 451
Width: 982
VWidth: 1798
GlyphClass: 2
Flags: W
LayerCount: 2
Fore
SplineSet
862 159 m 1,0,-1
 120 159 l 1,1,-1
 120 378 l 1,2,-1
 862 378 l 1,3,-1
 862 159 l 1,0,-1
EndSplineSet
EndChar

StartChar: hyphendot
Encoding: 8231 8231 453
Width: 531
GlyphClass: 2
Flags: W
LayerCount: 2
Fore
SplineSet
104 626 m 256,0,1
 104 689 104 689 148 730 c 128,-1,2
 192 771 192 771 266 771 c 256,3,4
 340 771 340 771 384 730 c 128,-1,5
 428 689 428 689 428 626 c 256,6,7
 428 563 428 563 384 522 c 128,-1,8
 340 481 340 481 266 481 c 256,9,10
 192 481 192 481 148 522 c 128,-1,11
 104 563 104 563 104 626 c 256,0,1
EndSplineSet
EndChar

StartChar: i
Encoding: 105 105 455
Width: 542
VWidth: 1798
GlyphClass: 2
Flags: W
AnchorPoint: "Anchor-1" 249 -240 basechar 0
AnchorPoint: "Anchor-0" 251 1350 basechar 0
LayerCount: 2
Fore
SplineSet
109 1114 m 256,0,1
 109 1177 109 1177 153 1218 c 128,-1,2
 197 1259 197 1259 271 1259 c 256,3,4
 345 1259 345 1259 389 1218 c 128,-1,5
 433 1177 433 1177 433 1114 c 256,6,7
 433 1051 433 1051 389 1010 c 128,-1,8
 345 969 345 969 271 969 c 256,9,10
 197 969 197 969 153 1010 c 128,-1,11
 109 1051 109 1051 109 1114 c 256,0,1
416 832 m 1,12,-1
 416 -250 l 1,13,-1
 127 -250 l 1,14,-1
 127 832 l 1,15,-1
 416 832 l 1,12,-1
EndSplineSet
Substitution2: "Single Substitution lookup 3 subtable" uni0069.ccmp
Substitution2: "'unic' Unicase lookup 2 subtable" I
Substitution2: "'smcp' Lowercase to Small Capitals lookup 1 subtable" I.smcp
EndChar

StartChar: infinity
Encoding: 8734 8734 463
Width: 2150
GlyphClass: 2
Flags: W
LayerCount: 2
Fore
SplineSet
96 530 m 2,0,-1
 96 551 l 2,1,2
 96 705 96 705 158.5 829.5 c 128,-1,3
 221 954 221 954 336 1028 c 128,-1,4
 451 1102 451 1102 608 1102 c 0,5,6
 724 1102 724 1102 812.5 1058 c 128,-1,7
 901 1014 901 1014 965 944 c 128,-1,8
 1029 874 1029 874 1073 795 c 1,9,10
 1117 874 1117 874 1181 944 c 128,-1,11
 1245 1014 1245 1014 1333.5 1058 c 128,-1,12
 1422 1102 1422 1102 1538 1102 c 0,13,14
 1695 1102 1695 1102 1810 1028 c 128,-1,15
 1925 954 1925 954 1988 829.5 c 128,-1,16
 2051 705 2051 705 2051 551 c 2,17,-1
 2051 530 l 2,18,19
 2051 377 2051 377 1988 252 c 128,-1,20
 1925 127 1925 127 1809.5 53.5 c 128,-1,21
 1694 -20 1694 -20 1536 -20 c 0,22,23
 1421 -20 1421 -20 1333 25.5 c 128,-1,24
 1245 71 1245 71 1181 143 c 128,-1,25
 1117 215 1117 215 1073 296 c 1,26,27
 1029 215 1029 215 965 143 c 128,-1,28
 901 71 901 71 813 25.5 c 128,-1,29
 725 -20 725 -20 610 -20 c 0,30,31
 452 -20 452 -20 336.5 53.5 c 128,-1,32
 221 127 221 127 158.5 252 c 128,-1,33
 96 377 96 377 96 530 c 2,0,-1
376 551 m 2,34,-1
 376 530 l 2,35,36
 376 396 376 396 440 304 c 128,-1,37
 504 212 504 212 626 212 c 0,38,39
 701 212 701 212 756.5 253 c 128,-1,40
 812 294 812 294 849 351 c 128,-1,41
 886 408 886 408 905.5 460 c 128,-1,42
 925 512 925 512 928 533 c 2,43,-1
 928 562 l 2,44,45
 925 582 925 582 905.5 631.5 c 128,-1,46
 886 681 886 681 849.5 736 c 128,-1,47
 813 791 813 791 757 830.5 c 128,-1,48
 701 870 701 870 624 870 c 0,49,50
 544 870 544 870 488.5 826.5 c 128,-1,51
 433 783 433 783 404.5 711 c 128,-1,52
 376 639 376 639 376 551 c 2,34,-1
1770 530 m 2,53,-1
 1770 551 l 2,54,55
 1770 639 1770 639 1741.5 711 c 128,-1,56
 1713 783 1713 783 1657.5 826.5 c 128,-1,57
 1602 870 1602 870 1522 870 c 0,58,59
 1445 870 1445 870 1389 830.5 c 128,-1,60
 1333 791 1333 791 1296 736 c 128,-1,61
 1259 681 1259 681 1240 631.5 c 128,-1,62
 1221 582 1221 582 1218 562 c 2,63,-1
 1218 533 l 2,64,65
 1221 512 1221 512 1240.5 460 c 128,-1,66
 1260 408 1260 408 1297 351 c 128,-1,67
 1334 294 1334 294 1389.5 253 c 128,-1,68
 1445 212 1445 212 1520 212 c 0,69,70
 1641 212 1641 212 1705.5 304 c 128,-1,71
 1770 396 1770 396 1770 530 c 2,53,-1
EndSplineSet
EndChar

StartChar: integral
Encoding: 8747 8747 464
Width: 594
GlyphClass: 2
Flags: W
LayerCount: 2
Fore
SplineSet
432 -51 m 2,0,1
 432 -244 432 -244 330.5 -340.5 c 128,-1,2
 229 -437 229 -437 50 -437 c 0,3,4
 -24 -437 -24 -437 -95 -419 c 1,5,-1
 -80 -200 l 1,6,7
 -60 -204 -60 -204 -40 -208 c 128,-1,8
 -20 -212 -20 -212 8 -212 c 0,9,10
 74 -212 74 -212 108.5 -174 c 128,-1,11
 143 -136 143 -136 143 -51 c 2,12,-1
 143 1180 l 2,13,14
 143 1364 143 1364 249 1461 c 128,-1,15
 355 1558 355 1558 542 1558 c 0,16,17
 583 1558 583 1558 622 1552 c 128,-1,18
 661 1546 661 1546 701 1537 c 1,19,-1
 678 1322 l 1,20,21
 656 1327 656 1327 634 1330 c 128,-1,22
 612 1333 612 1333 580 1333 c 0,23,24
 432 1333 432 1333 432 1180 c 2,25,-1
 432 -51 l 2,0,1
EndSplineSet
EndChar

StartChar: j
Encoding: 106 106 467
Width: 533
VWidth: 1798
GlyphClass: 2
Flags: W
AnchorPoint: "Anchor-1" 190 -709 basechar 0
AnchorPoint: "Anchor-0" 223 1350 basechar 0
LayerCount: 2
Fore
SplineSet
105 1114 m 256,0,1
 105 1177 105 1177 149.5 1218 c 128,-1,2
 194 1259 194 1259 267 1259 c 0,3,4
 341 1259 341 1259 385 1218 c 128,-1,5
 429 1177 429 1177 429 1114 c 256,6,7
 429 1051 429 1051 385 1010 c 128,-1,8
 341 969 341 969 267 969 c 0,9,10
 194 969 194 969 149.5 1010 c 128,-1,11
 105 1051 105 1051 105 1114 c 256,0,1
128 832 m 1,12,-1
 417 832 l 1,13,-1
 417 -315 l 2,14,15
 417 -496 417 -496 319 -591.5 c 128,-1,16
 221 -687 221 -687 45 -687 c 0,17,18
 -30 -687 -30 -687 -101 -670 c 1,19,-1
 -100 -449 l 1,20,21
 -53 -458 -53 -458 -8 -458 c 0,22,23
 128 -458 128 -458 128 -315 c 2,24,-1
 128 832 l 1,12,-1
EndSplineSet
Substitution2: "Single Substitution lookup 3 subtable" uni006A.ccmp
Substitution2: "'unic' Unicase lookup 2 subtable" J
Substitution2: "'smcp' Lowercase to Small Capitals lookup 1 subtable" J.smcp
EndChar

StartChar: k
Encoding: 107 107 469
Width: 1094
VWidth: 1798
GlyphClass: 2
Flags: W
AnchorPoint: "Anchor-1" 529 -179 basechar 0
AnchorPoint: "Anchor-0" 549 1361 basechar 0
LayerCount: 2
Fore
SplineSet
783 -250 m 1,0,-1
 504 186 l 1,1,-1
 400 81 l 1,2,-1
 400 -250 l 1,3,-1
 112 -250 l 1,4,-1
 112 1287 l 1,5,-1
 400 1287 l 1,6,-1
 400 433 l 1,7,-1
 455 503 l 1,8,-1
 736 832 l 1,9,-1
 1082 832 l 1,10,-1
 689 384 l 1,11,-1
 1115 -250 l 1,12,-1
 783 -250 l 1,0,-1
EndSplineSet
Substitution2: "'unic' Unicase lookup 2 subtable" K
Substitution2: "'smcp' Lowercase to Small Capitals lookup 1 subtable" K.smcp
EndChar

StartChar: kgreenlandic
Encoding: 312 312 471
Width: 1210
VWidth: 1798
GlyphClass: 2
Flags: W
AnchorPoint: "Anchor-1" 590 -240 basechar 0
AnchorPoint: "Anchor-0" 590 1040 basechar 0
LayerCount: 2
Fore
SplineSet
802 -250 m 1,0,-1
 538 155 l 1,1,-1
 418 155 l 1,2,-1
 418 -250 l 1,3,-1
 130 -250 l 1,4,-1
 130 832 l 1,5,-1
 418 832 l 1,6,-1
 418 421 l 1,7,-1
 509 421 l 1,8,-1
 789 832 l 1,9,-1
 1154 832 l 1,10,-1
 776 315 l 1,11,-1
 1171 -250 l 1,12,-1
 802 -250 l 1,0,-1
EndSplineSet
EndChar

StartChar: l
Encoding: 108 108 472
Width: 542
VWidth: 1798
GlyphClass: 2
Flags: W
AnchorPoint: "Anchor-1" 249 -240 basechar 0
AnchorPoint: "Anchor-0" 249 1447 basechar 0
LayerCount: 2
Fore
SplineSet
416 1286 m 1,0,-1
 416 -250 l 1,1,-1
 127 -250 l 1,2,-1
 127 1286 l 1,3,-1
 416 1286 l 1,0,-1
EndSplineSet
Substitution2: "'unic' Unicase lookup 2 subtable" L
Substitution2: "'smcp' Lowercase to Small Capitals lookup 1 subtable" L.smcp
EndChar

StartChar: less
Encoding: 60 60 478
Width: 1044
VWidth: 1798
GlyphClass: 2
Flags: W
LayerCount: 2
Fore
SplineSet
918 582 m 1,0,-1
 345 371 l 1,1,-1
 918 164 l 1,2,-1
 918 -107 l 1,3,-1
 54 259 l 1,4,-1
 54 486 l 1,5,-1
 918 852 l 1,6,-1
 918 582 l 1,0,-1
EndSplineSet
EndChar

StartChar: lessequal
Encoding: 8804 8804 479
Width: 1044
GlyphClass: 2
Flags: W
LayerCount: 2
Fore
SplineSet
918 878 m 1,0,-1
 345 700 l 1,1,-1
 918 524 l 1,2,-1
 918 299 l 1,3,-1
 54 607 l 1,4,-1
 54 796 l 1,5,-1
 918 1103 l 1,6,-1
 918 878 l 1,0,-1
925 213 m 1,7,-1
 925 1 l 1,8,-1
 60 1 l 1,9,-1
 60 213 l 1,10,-1
 925 213 l 1,7,-1
EndSplineSet
EndChar

StartChar: lira
Encoding: 8356 8356 480
Width: 1217
GlyphClass: 2
Flags: W
LayerCount: 2
Fore
SplineSet
841 624 m 1,0,-1
 841 469 l 1,1,-1
 571 469 l 1,2,-1
 572 434 l 2,3,4
 572 373 572 373 557.5 323.5 c 128,-1,5
 543 274 543 274 508 234 c 1,6,-1
 1160 234 l 1,7,-1
 1161 0 l 1,8,-1
 102 0 l 1,9,-1
 102 234 l 1,10,-1
 198 234 l 1,11,12
 245 245 245 245 256.5 302 c 128,-1,13
 268 359 268 359 268 418 c 2,14,-1
 266 469 l 1,15,-1
 103 469 l 1,16,-1
 103 624 l 1,17,-1
 262 624 l 1,18,-1
 258 737 l 1,19,-1
 103 737 l 1,20,-1
 103 892 l 1,21,-1
 253 892 l 1,22,-1
 249 1039 l 1,23,24
 249 1246 249 1246 373.5 1360.5 c 128,-1,25
 498 1475 498 1475 700 1475 c 0,26,27
 919 1475 919 1475 1036.5 1361 c 128,-1,28
 1154 1247 1154 1247 1154 1061 c 1,29,-1
 869 1061 l 1,30,31
 869 1162 869 1162 818.5 1202 c 128,-1,32
 768 1242 768 1242 700 1242 c 0,33,34
 633 1242 633 1242 590 1191 c 128,-1,35
 547 1140 547 1140 547 1039 c 1,36,-1
 553 892 l 1,37,-1
 841 892 l 1,38,-1
 841 737 l 1,39,-1
 559 737 l 1,40,-1
 564 624 l 1,41,-1
 841 624 l 1,0,-1
EndSplineSet
Substitution2: "'c2sc' Capitals to Small Capitals lookup 0 subtable" lira.smcp
Position2: "'cpsp' Capital Spacing lookup 0 subtable" dx=36 dy=0 dh=72 dv=0
EndChar

StartChar: lira.smcp
Encoding: 65749 -1 481
Width: 1172
GlyphClass: 2
Flags: W
LayerCount: 2
Fore
SplineSet
509 732 m 2,0,-1
 510 716 l 1,1,-1
 879 716 l 1,2,-1
 879 552 l 1,3,-1
 518 552 l 1,4,-1
 520 505 l 2,5,6
 521 491 521 491 521 478 c 1,7,-1
 879 478 l 1,8,-1
 879 315 l 1,9,-1
 483 315 l 1,10,11
 459 266 459 266 418 225 c 1,12,-1
 1088 225 l 1,13,-1
 1088 0 l 1,14,-1
 134 0 l 1,15,-1
 134 225 l 1,16,-1
 144 225 l 1,17,18
 170 232 170 232 186.5 256 c 128,-1,19
 203 280 203 280 213 315 c 1,20,-1
 65 315 l 1,21,-1
 65 478 l 1,22,-1
 228 478 l 1,23,24
 228 484 228 484 228 491 c 2,25,-1
 226 552 l 1,26,-1
 65 552 l 1,27,-1
 65 716 l 1,28,-1
 221 716 l 1,29,-1
 221 732 l 1,30,31
 214 945 214 945 328.5 1063 c 128,-1,32
 443 1181 443 1181 640 1181 c 0,33,34
 857 1181 857 1181 963.5 1073 c 128,-1,35
 1070 965 1070 965 1070 789 c 1,36,-1
 780 789 l 1,37,38
 780 882 780 882 742 919.5 c 128,-1,39
 704 957 704 957 642 957 c 0,40,41
 574 957 574 957 538.5 899.5 c 128,-1,42
 503 842 503 842 509 732 c 2,0,-1
EndSplineSet
EndChar

StartChar: logicalnot
Encoding: 172 172 482
Width: 1128
VWidth: 1798
GlyphClass: 2
Flags: W
LayerCount: 2
Fore
SplineSet
960 554 m 1,0,-1
 960 125 l 1,1,-1
 765 125 l 1,2,-1
 765 386 l 1,3,-1
 126 386 l 1,4,-1
 126 554 l 1,5,-1
 960 554 l 1,0,-1
EndSplineSet
EndChar

StartChar: longs
Encoding: 383 383 483
Width: 529
VWidth: 1798
GlyphClass: 2
Flags: W
AnchorPoint: "Anchor-1" 248 -240 basechar 0
AnchorPoint: "Anchor-0" 428 1504 basechar 0
LayerCount: 2
Fore
SplineSet
404 -250 m 1,0,-1
 116 -250 l 1,1,-1
 116 928 l 2,2,3
 116 1113 116 1113 222 1210 c 128,-1,4
 328 1307 328 1307 515 1307 c 0,5,6
 556 1307 556 1307 595 1301 c 128,-1,7
 634 1295 634 1295 675 1286 c 1,8,-1
 651 1072 l 1,9,10
 629 1077 629 1077 606.5 1079.5 c 128,-1,11
 584 1082 584 1082 552 1082 c 0,12,13
 481 1082 481 1082 442.5 1042 c 128,-1,14
 404 1002 404 1002 404 928 c 2,15,-1
 404 -250 l 1,0,-1
EndSplineSet
EndChar

StartChar: longst
Encoding: 65750 -1 484
Width: 1324
GlyphClass: 3
Flags: W
LayerCount: 2
Fore
SplineSet
588 1557 m 0,0,1
 731 1557 731 1557 859.5 1523.5 c 128,-1,2
 988 1490 988 1490 1085 1452 c 1,3,-1
 1085 1082 l 1,4,-1
 1270 1082 l 1,5,-1
 1270 878 l 1,6,-1
 1085 878 l 1,7,-1
 1085 326 l 2,8,9
 1085 256 1085 256 1112.5 233 c 128,-1,10
 1140 210 1140 210 1197 210 c 0,11,12
 1224 210 1224 210 1245 212.5 c 128,-1,13
 1266 215 1266 215 1282 218 c 1,14,-1
 1283 6 l 1,15,16
 1246 -6 1246 -6 1203 -13 c 128,-1,17
 1160 -20 1160 -20 1108 -20 c 0,18,19
 965 -20 965 -20 880.5 52.5 c 128,-1,20
 796 125 796 125 796 297 c 2,21,-1
 796 878 l 1,22,-1
 640 878 l 1,23,-1
 640 1082 l 1,24,-1
 796 1082 l 1,25,-1
 796 1303 l 1,26,27
 776 1314 776 1314 729 1323 c 128,-1,28
 682 1332 682 1332 626 1332 c 0,29,30
 554 1332 554 1332 516 1292 c 128,-1,31
 478 1252 478 1252 478 1178 c 2,32,-1
 478 0 l 1,33,-1
 189 0 l 1,34,-1
 189 878 l 1,35,-1
 28 878 l 1,36,-1
 28 1082 l 1,37,-1
 189 1082 l 1,38,-1
 189 1178 l 2,39,40
 189 1363 189 1363 295 1460 c 128,-1,41
 401 1557 401 1557 588 1557 c 0,0,1
EndSplineSet
Ligature2: "'dlig' Discretionary Ligatures lookup 12 subtable" longs t
EndChar

StartChar: lozenge
Encoding: 9674 9674 485
Width: 1043
GlyphClass: 2
Flags: W
LayerCount: 2
Fore
SplineSet
32 727 m 1,0,-1
 399 1456 l 1,1,-1
 647 1456 l 1,2,-1
 1015 727 l 1,3,-1
 648 0 l 1,4,-1
 401 0 l 1,5,-1
 32 727 l 1,0,-1
319 727 m 1,6,-1
 525 295 l 1,7,-1
 728 727 l 1,8,-1
 524 1163 l 1,9,-1
 319 727 l 1,6,-1
EndSplineSet
EndChar

StartChar: lslash
Encoding: 322 322 486
Width: 628
VWidth: 1798
GlyphClass: 2
Flags: W
AnchorPoint: "Anchor-1" 280 -240 basechar 0
AnchorPoint: "Anchor-0" 280 1447 basechar 0
LayerCount: 2
Fore
SplineSet
595 705 m 1,0,-1
 595 544 l 1,1,-1
 453 497 l 1,2,-1
 453 -250 l 1,3,-1
 163 -250 l 1,4,-1
 163 401 l 1,5,-1
 30 357 l 1,6,-1
 30 518 l 1,7,-1
 163 562 l 1,8,-1
 163 1286 l 1,9,-1
 453 1286 l 1,10,-1
 453 658 l 1,11,-1
 595 705 l 1,0,-1
EndSplineSet
Substitution2: "'smcp' Lowercase to Small Capitals lookup 1 subtable" Lslash.smcp
EndChar

StartChar: m
Encoding: 109 109 487
Width: 1774
VWidth: 1798
GlyphClass: 2
Flags: W
AnchorPoint: "Anchor-1" 897 -240 basechar 0
AnchorPoint: "Anchor-0" 911 1040 basechar 0
LayerCount: 2
Fore
SplineSet
579 626 m 0,0,1
 515 626 515 626 471 596.5 c 128,-1,2
 427 567 427 567 400 517 c 1,3,-1
 400 -250 l 1,4,-1
 111 -250 l 1,5,-1
 111 832 l 1,6,-1
 382 832 l 1,7,-1
 392 709 l 1,8,9
 445 776 445 776 523.5 814 c 128,-1,10
 602 852 602 852 704 852 c 0,11,12
 802 852 802 852 877 812.5 c 128,-1,13
 952 773 952 773 992 685 c 1,14,15
 1044 762 1044 762 1125.5 807 c 128,-1,16
 1207 852 1207 852 1317 852 c 0,17,18
 1474 852 1474 852 1568.5 759 c 128,-1,19
 1663 666 1663 666 1663 441 c 2,20,-1
 1663 -250 l 1,21,-1
 1374 -250 l 1,22,-1
 1374 441 l 2,23,24
 1374 553 1374 553 1330.5 589.5 c 128,-1,25
 1287 626 1287 626 1212 626 c 0,26,27
 1145 626 1145 626 1099.5 592.5 c 128,-1,28
 1054 559 1054 559 1030 503 c 1,29,30
 1031 488 1031 488 1031 472 c 2,31,-1
 1031 -250 l 1,32,-1
 743 -250 l 1,33,-1
 743 440 l 2,34,35
 743 550 743 550 699.5 588 c 128,-1,36
 656 626 656 626 579 626 c 0,0,1
EndSplineSet
Substitution2: "'unic' Unicase lookup 2 subtable" M.unic
Substitution2: "'smcp' Lowercase to Small Capitals lookup 1 subtable" M.smcp
EndChar

StartChar: macron
Encoding: 175 175 488
Width: 1025
VWidth: 1798
GlyphClass: 2
Flags: W
LayerCount: 2
Fore
SplineSet
855 1204 m 1,0,-1
 855 1041 l 1,1,-1
 169 1041 l 1,2,-1
 169 1204 l 1,3,-1
 855 1204 l 1,0,-1
EndSplineSet
EndChar

StartChar: mu
Encoding: 181 181 491
Width: 1265
VWidth: 1798
GlyphClass: 2
Flags: W
LayerCount: 2
Fore
SplineSet
140 832 m 1,0,-1
 428 832 l 1,1,-1
 428 211 l 2,2,3
 428 106 428 106 451 51 c 128,-1,4
 474 -4 474 -4 515 -23.5 c 128,-1,5
 556 -43 556 -43 610 -43 c 0,6,7
 690 -43 690 -43 740 -14 c 128,-1,8
 790 15 790 15 816 66 c 1,9,-1
 816 832 l 1,10,-1
 1105 832 l 1,11,-1
 1105 -250 l 1,12,-1
 836 -250 l 1,13,-1
 830 -181 l 1,14,15
 787 -224 787 -224 730.5 -247.5 c 128,-1,16
 674 -271 674 -271 603 -271 c 0,17,18
 500 -271 500 -271 428 -225 c 1,19,-1
 428 -666 l 1,20,-1
 140 -666 l 1,21,-1
 140 832 l 1,0,-1
EndSplineSet
EndChar

StartChar: multiply
Encoding: 215 215 492
Width: 1069
VWidth: 1798
GlyphClass: 2
Flags: W
LayerCount: 2
Fore
SplineSet
380 265 m 1,0,-1
 115 536 l 1,1,-1
 267 694 l 1,2,-1
 534 423 l 1,3,-1
 801 694 l 1,4,-1
 954 536 l 1,5,-1
 689 265 l 1,6,-1
 956 -7 l 1,7,-1
 802 -165 l 1,8,-1
 534 108 l 1,9,-1
 266 -165 l 1,10,-1
 113 -7 l 1,11,-1
 380 265 l 1,0,-1
EndSplineSet
EndChar

StartChar: n
Encoding: 110 110 493
Width: 1148
VWidth: 1798
GlyphClass: 2
Flags: W
AnchorPoint: "Anchor-1" 563 -240 basechar 0
AnchorPoint: "Anchor-0" 573 1040 basechar 0
LayerCount: 2
Fore
SplineSet
578 626 m 0,0,1
 513 626 513 626 467 596.5 c 128,-1,2
 421 567 421 567 394 517 c 1,3,-1
 394 -250 l 1,4,-1
 106 -250 l 1,5,-1
 106 832 l 1,6,-1
 376 832 l 1,7,-1
 386 703 l 1,8,9
 442 775 442 775 521.5 813.5 c 128,-1,10
 601 852 601 852 699 852 c 0,11,12
 801 852 801 852 878 812.5 c 128,-1,13
 955 773 955 773 998 682.5 c 128,-1,14
 1041 592 1041 592 1041 440 c 2,15,-1
 1041 -250 l 1,16,-1
 751 -250 l 1,17,-1
 751 441 l 2,18,19
 751 548 751 548 706 587 c 128,-1,20
 661 626 661 626 578 626 c 0,0,1
EndSplineSet
Substitution2: "'unic' Unicase lookup 2 subtable" N.unic
Substitution2: "'smcp' Lowercase to Small Capitals lookup 1 subtable" N.smcp
EndChar

StartChar: naira
Encoding: 8358 8358 495
Width: 1665
GlyphClass: 2
Flags: W
LayerCount: 2
Fore
SplineSet
1628 663 m 1,0,-1
 1628 505 l 1,1,-1
 1423 505 l 1,2,-1
 1423 0 l 1,3,-1
 1125 0 l 1,4,-1
 822 505 l 1,5,-1
 539 505 l 1,6,-1
 539 0 l 1,7,-1
 239 0 l 1,8,-1
 239 505 l 1,9,-1
 38 505 l 1,10,-1
 38 663 l 1,11,-1
 239 663 l 1,12,-1
 239 826 l 1,13,-1
 38 826 l 1,14,-1
 38 983 l 1,15,-1
 239 983 l 1,16,-1
 239 1456 l 1,17,-1
 539 1456 l 1,18,-1
 823 983 l 1,19,-1
 1125 983 l 1,20,-1
 1125 1456 l 1,21,-1
 1423 1456 l 1,22,-1
 1423 983 l 1,23,-1
 1628 983 l 1,24,-1
 1628 826 l 1,25,-1
 1423 826 l 1,26,-1
 1423 663 l 1,27,-1
 1628 663 l 1,0,-1
539 663 m 1,28,-1
 727 663 l 1,29,-1
 629 826 l 1,30,-1
 539 826 l 1,31,-1
 539 663 l 1,28,-1
1015 663 m 1,32,-1
 1125 663 l 1,33,-1
 1125 826 l 1,34,-1
 917 826 l 1,35,-1
 1015 663 l 1,32,-1
1125 479 m 1,36,-1
 1125 505 l 1,37,-1
 1109 505 l 1,38,-1
 1125 479 l 1,36,-1
EndSplineSet
EndChar

StartChar: nine
Encoding: 57 57 500
Width: 1175
VWidth: 1798
GlyphClass: 2
Flags: W
LayerCount: 2
Fore
SplineSet
304 -31 m 1,0,-1
 323 -31 l 2,1,2
 541 -31 541 -31 651.5 65.5 c 128,-1,3
 762 162 762 162 779 338 c 1,4,5
 727 286 727 286 658 254 c 128,-1,6
 589 222 589 222 511 222 c 0,7,8
 375 222 375 222 280 287 c 128,-1,9
 185 352 185 352 135.5 463 c 128,-1,10
 86 574 86 574 86 712 c 0,11,12
 86 853 86 853 146.5 970 c 128,-1,13
 207 1087 207 1087 317.5 1157 c 128,-1,14
 428 1227 428 1227 576 1227 c 256,15,16
 724 1227 724 1227 835 1152.5 c 128,-1,17
 946 1078 946 1078 1008 944 c 128,-1,18
 1070 810 1070 810 1070 633 c 2,19,-1
 1070 533 l 2,20,21
 1070 297 1070 297 985.5 117.5 c 128,-1,22
 901 -62 901 -62 735.5 -163 c 128,-1,23
 570 -264 570 -264 327 -264 c 2,24,-1
 304 -264 l 1,25,-1
 304 -31 l 1,0,-1
374 715 m 0,26,27
 374 602 374 602 426 519 c 128,-1,28
 478 436 478 436 583 436 c 0,29,30
 655 436 655 436 706 474 c 128,-1,31
 757 512 757 512 782 565 c 1,32,-1
 782 683 l 2,33,34
 782 842 782 842 723 921.5 c 128,-1,35
 664 1001 664 1001 574 1001 c 0,36,37
 510 1001 510 1001 465.5 960.5 c 128,-1,38
 421 920 421 920 397.5 854.5 c 128,-1,39
 374 789 374 789 374 715 c 0,26,27
EndSplineSet
Substitution2: "'ss01' Style Set 1 lookup 35 subtable" uni06F9
Substitution2: "'numr' Numerators lookup 21 subtable" nine.frac
Substitution2: "'dnom' Denominators lookup 20 subtable" nine.sup
Substitution2: "'frac' Diagonal Fractions lookup 19 subtable" nine.frac
Substitution2: "Single Substitution lookup 18 subtable" nine.sup
Substitution2: "'onum' Oldstyle Figures lookup 14 subtable" nine.tnum
Substitution2: "'c2sc' Capitals to Small Capitals lookup 0 subtable" nine.smcp
Position2: "'cpsp' Capital Spacing lookup 0 subtable" dx=36 dy=0 dh=72 dv=0
EndChar

StartChar: nine.onum
Encoding: 65752 -1 502
Width: 1189
GlyphClass: 1
Flags: W
LayerCount: 2
Fore
SplineSet
498 -98 m 0,0,1
 629 -98 629 -98 711 -13 c 128,-1,2
 793 72 793 72 818 253 c 1,3,4
 699 163 699 163 530 163 c 0,5,6
 325 163 325 163 209 300.5 c 128,-1,7
 93 438 93 438 93 665 c 0,8,9
 93 815 93 815 156 932.5 c 128,-1,10
 219 1050 219 1050 330 1117 c 128,-1,11
 441 1184 441 1184 584 1184 c 0,12,13
 737 1184 737 1184 857.5 1118.5 c 128,-1,14
 978 1053 978 1053 1047.5 926 c 128,-1,15
 1117 799 1117 799 1117 612 c 2,16,-1
 1117 435 l 2,17,18
 1117 180 1117 180 1039.5 12 c 128,-1,19
 962 -156 962 -156 830 -239.5 c 128,-1,20
 698 -323 698 -323 532 -323 c 0,21,22
 455 -323 455 -323 378 -307 c 128,-1,23
 301 -291 301 -291 227 -262 c 1,24,-1
 282 -53 l 1,25,26
 330 -71 330 -71 381.5 -84.5 c 128,-1,27
 433 -98 433 -98 498 -98 c 0,0,1
382 665 m 0,28,29
 382 543 382 543 436.5 460 c 128,-1,30
 491 377 491 377 597 377 c 0,31,32
 677 377 677 377 735 402 c 128,-1,33
 793 427 793 427 828 465 c 1,34,-1
 828 647 l 2,35,36
 828 805 828 805 764.5 882 c 128,-1,37
 701 959 701 959 600 959 c 0,38,39
 500 959 500 959 441 873.5 c 128,-1,40
 382 788 382 788 382 665 c 0,28,29
EndSplineSet
EndChar

StartChar: nine.smcp
Encoding: 65753 -1 503
Width: 1064
GlyphClass: 2
Flags: W
LayerCount: 2
Fore
SplineSet
288 207 m 1,0,-1
 307 207 l 2,1,2
 469 207 469 207 566.5 258 c 128,-1,3
 664 309 664 309 684 454 c 1,4,5
 639 417 639 417 581 395 c 128,-1,6
 523 373 523 373 459 373 c 0,7,8
 279 373 279 373 175.5 474 c 128,-1,9
 72 575 72 575 72 762 c 0,10,11
 72 876 72 876 129.5 971.5 c 128,-1,12
 187 1067 187 1067 289.5 1124.5 c 128,-1,13
 392 1182 392 1182 525 1182 c 0,14,15
 652 1182 652 1182 754.5 1130 c 128,-1,16
 857 1078 857 1078 917 972.5 c 128,-1,17
 977 867 977 867 977 704 c 2,18,-1
 977 625 l 2,19,20
 977 393 977 393 892 252 c 128,-1,21
 807 111 807 111 656.5 47.5 c 128,-1,22
 506 -16 506 -16 310 -16 c 2,23,-1
 287 -16 l 1,24,-1
 288 207 l 1,0,-1
361 759 m 256,25,26
 361 678 361 678 404.5 629.5 c 128,-1,27
 448 581 448 581 535 581 c 0,28,29
 593 581 593 581 631.5 602.5 c 128,-1,30
 670 624 670 624 689 652 c 1,31,-1
 689 760 l 2,32,33
 689 863 689 863 644.5 909.5 c 128,-1,34
 600 956 600 956 525 956 c 0,35,36
 448 956 448 956 404.5 898 c 128,-1,37
 361 840 361 840 361 759 c 256,25,26
EndSplineSet
EndChar

StartChar: nine.sup
Encoding: 65754 -1 504
Width: 763
GlyphClass: 2
Flags: W
LayerCount: 2
Fore
SplineSet
216 147 m 1,0,-1
 229 147 l 2,1,2
 334 147 334 147 399.5 176.5 c 128,-1,3
 465 206 465 206 479 304 c 1,4,5
 449 280 449 280 410.5 266 c 128,-1,6
 372 252 372 252 331 252 c 0,7,8
 210 252 210 252 139 318 c 128,-1,9
 68 384 68 384 68 514 c 0,10,11
 68 592 68 592 108 657 c 128,-1,12
 148 722 148 722 217.5 761.5 c 128,-1,13
 287 801 287 801 377 801 c 0,14,15
 462 801 462 801 532 767.5 c 128,-1,16
 602 734 602 734 644 662.5 c 128,-1,17
 686 591 686 591 686 477 c 2,18,-1
 686 422 l 2,19,20
 686 257 686 257 626 162.5 c 128,-1,21
 566 68 566 68 463 28 c 128,-1,22
 360 -12 360 -12 231 -12 c 2,23,-1
 216 -12 l 1,24,-1
 216 147 l 1,0,-1
271 512 m 0,25,26
 271 400 271 400 386 400 c 0,27,28
 422 400 422 400 446.5 412.5 c 128,-1,29
 471 425 471 425 483 441 c 1,30,-1
 483 517 l 2,31,32
 483 582 483 582 455 611 c 128,-1,33
 427 640 427 640 377 640 c 0,34,35
 328 640 328 640 299.5 602 c 128,-1,36
 271 564 271 564 271 512 c 0,25,26
EndSplineSet
EndChar

StartChar: notequal
Encoding: 8800 8800 506
Width: 1175
GlyphClass: 2
Flags: W
LayerCount: 2
Fore
SplineSet
1033 548 m 1,0,-1
 1033 320 l 1,1,-1
 479 320 l 1,2,-1
 362 102 l 1,3,-1
 243 163 l 1,4,-1
 327 320 l 1,5,-1
 136 320 l 1,6,-1
 136 548 l 1,7,-1
 450 548 l 1,8,-1
 559 752 l 1,9,-1
 136 752 l 1,10,-1
 136 980 l 1,11,-1
 682 980 l 1,12,-1
 798 1197 l 1,13,-1
 916 1135 l 1,14,-1
 833 980 l 1,15,-1
 1033 980 l 1,16,-1
 1033 752 l 1,17,-1
 711 752 l 1,18,-1
 601 548 l 1,19,-1
 1033 548 l 1,0,-1
EndSplineSet
EndChar

StartChar: nsuperior
Encoding: 8319 8319 507
Width: 856
GlyphClass: 2
Flags: W
LayerCount: 2
Fore
SplineSet
433 1288 m 0,0,1
 381 1288 381 1288 347.5 1265.5 c 128,-1,2
 314 1243 314 1243 296 1205 c 1,3,-1
 296 654 l 1,4,-1
 86 654 l 1,5,-1
 86 1454 l 1,6,-1
 252 1454 l 1,7,-1
 284 1331 l 1,8,9
 319 1394 319 1394 376 1430 c 128,-1,10
 433 1466 433 1466 508 1466 c 0,11,12
 633 1466 633 1466 703 1393.5 c 128,-1,13
 773 1321 773 1321 773 1159 c 2,14,-1
 773 654 l 1,15,-1
 564 654 l 1,16,-1
 564 1097 l 2,17,18
 564 1204 564 1204 530 1246 c 128,-1,19
 496 1288 496 1288 433 1288 c 0,0,1
EndSplineSet
EndChar

StartChar: numbersign
Encoding: 35 35 509
Width: 1213
VWidth: 1798
GlyphClass: 2
Flags: W
LayerCount: 2
Fore
SplineSet
215 -250 m 1,0,-1
 287 160 l 1,1,-1
 59 160 l 1,2,-1
 59 328 l 1,3,-1
 316 328 l 1,4,-1
 367 621 l 1,5,-1
 134 621 l 1,6,-1
 134 790 l 1,7,-1
 396 790 l 1,8,-1
 469 1206 l 1,9,-1
 650 1206 l 1,10,-1
 577 790 l 1,11,-1
 772 790 l 1,12,-1
 845 1206 l 1,13,-1
 1026 1206 l 1,14,-1
 953 790 l 1,15,-1
 1175 790 l 1,16,-1
 1175 621 l 1,17,-1
 924 621 l 1,18,-1
 872 328 l 1,19,-1
 1099 328 l 1,20,-1
 1099 160 l 1,21,-1
 843 160 l 1,22,-1
 771 -250 l 1,23,-1
 590 -250 l 1,24,-1
 662 160 l 1,25,-1
 468 160 l 1,26,-1
 396 -250 l 1,27,-1
 215 -250 l 1,0,-1
497 328 m 1,28,-1
 691 328 l 1,29,-1
 743 621 l 1,30,-1
 548 621 l 1,31,-1
 497 328 l 1,28,-1
EndSplineSet
EndChar

StartChar: o
Encoding: 111 111 510
Width: 1156
VWidth: 1798
GlyphClass: 2
Flags: W
AnchorPoint: "Anchor-1" 584 -251 basechar 0
AnchorPoint: "Anchor-0" 575 1040 basechar 0
LayerCount: 2
Fore
SplineSet
66 280 m 2,0,-1
 66 301 l 2,1,2
 66 459 66 459 126 583.5 c 128,-1,3
 186 708 186 708 300 780 c 128,-1,4
 414 852 414 852 577 852 c 0,5,6
 742 852 742 852 856.5 780 c 128,-1,7
 971 708 971 708 1031 583.5 c 128,-1,8
 1091 459 1091 459 1091 301 c 2,9,-1
 1091 280 l 2,10,11
 1091 123 1091 123 1031 -1.5 c 128,-1,12
 971 -126 971 -126 857 -198 c 128,-1,13
 743 -270 743 -270 579 -270 c 256,14,15
 415 -270 415 -270 300.5 -198 c 128,-1,16
 186 -126 186 -126 126 -1.5 c 128,-1,17
 66 123 66 123 66 280 c 2,0,-1
354 301 m 2,18,-1
 354 280 l 2,19,20
 354 190 354 190 376 116.5 c 128,-1,21
 398 43 398 43 447.5 -1 c 128,-1,22
 497 -45 497 -45 579 -45 c 0,23,24
 660 -45 660 -45 709 -1 c 128,-1,25
 758 43 758 43 780 116.5 c 128,-1,26
 802 190 802 190 802 280 c 2,27,-1
 802 301 l 2,28,29
 802 389 802 389 780 463 c 128,-1,30
 758 537 758 537 708.5 582 c 128,-1,31
 659 627 659 627 577 627 c 0,32,33
 496 627 496 627 447 582 c 128,-1,34
 398 537 398 537 376 463 c 128,-1,35
 354 389 354 389 354 301 c 2,18,-1
EndSplineSet
Substitution2: "'unic' Unicase lookup 2 subtable" O
Substitution2: "'smcp' Lowercase to Small Capitals lookup 1 subtable" O.smcp
EndChar

StartChar: oe
Encoding: 339 339 515
Width: 1850
VWidth: 1798
GlyphClass: 2
Flags: W
AnchorPoint: "Anchor-1" 945 -251 basechar 0
AnchorPoint: "Anchor-0" 945 1040 basechar 0
LayerCount: 2
Fore
SplineSet
83 280 m 2,0,-1
 83 301 l 2,1,2
 83 459 83 459 142.5 583.5 c 128,-1,3
 202 708 202 708 315.5 780 c 128,-1,4
 429 852 429 852 592 852 c 0,5,6
 712 852 712 852 805 813 c 128,-1,7
 898 774 898 774 963 704 c 1,8,9
 1025 774 1025 774 1113.5 813.5 c 128,-1,10
 1202 853 1202 853 1313 852 c 0,11,12
 1535 852 1535 852 1654.5 719 c 128,-1,13
 1774 586 1774 586 1774 365 c 2,14,-1
 1774 205 l 1,15,-1
 1117 205 l 1,16,17
 1130 101 1130 101 1192.5 28 c 128,-1,18
 1255 -45 1255 -45 1370 -45 c 0,19,20
 1477 -45 1477 -45 1543 -22 c 128,-1,21
 1609 1 1609 1 1672 35 c 1,22,-1
 1749 -145 l 1,23,24
 1690 -192 1690 -192 1584.5 -231 c 128,-1,25
 1479 -270 1479 -270 1338 -270 c 0,26,27
 1221 -270 1221 -270 1126.5 -230 c 128,-1,28
 1032 -190 1032 -190 965 -120 c 1,29,30
 901 -190 901 -190 807.5 -230 c 128,-1,31
 714 -270 714 -270 594 -270 c 0,32,33
 430 -270 430 -270 316 -198 c 128,-1,34
 202 -126 202 -126 142.5 -1.5 c 128,-1,35
 83 123 83 123 83 280 c 2,0,-1
1313 627 m 0,36,37
 1227 627 1227 627 1180.5 561.5 c 128,-1,38
 1134 496 1134 496 1120 397 c 1,39,-1
 1490 397 l 1,40,-1
 1490 423 l 2,41,42
 1490 512 1490 512 1448 569.5 c 128,-1,43
 1406 627 1406 627 1313 627 c 0,36,37
371 301 m 2,44,-1
 371 280 l 2,45,46
 371 190 371 190 392.5 116.5 c 128,-1,47
 414 43 414 43 463 -1 c 128,-1,48
 512 -45 512 -45 594 -45 c 0,49,50
 675 -45 675 -45 723.5 -1 c 128,-1,51
 772 43 772 43 793.5 116.5 c 128,-1,52
 815 190 815 190 815 280 c 2,53,-1
 815 301 l 2,54,55
 815 389 815 389 793.5 463 c 128,-1,56
 772 537 772 537 723.5 582 c 128,-1,57
 675 627 675 627 592 627 c 0,58,59
 511 627 511 627 462.5 582 c 128,-1,60
 414 537 414 537 392.5 463 c 128,-1,61
 371 389 371 389 371 301 c 2,44,-1
EndSplineSet
Substitution2: "'unic' Unicase lookup 2 subtable" OE
Substitution2: "'smcp' Lowercase to Small Capitals lookup 1 subtable" OE.smcp
EndChar

StartChar: ogonek
Encoding: 731 731 516
Width: 616
VWidth: 1798
GlyphClass: 2
Flags: W
LayerCount: 2
Fore
SplineSet
253 -191 m 1,0,-1
 403 -250 l 1,1,2
 328 -293 328 -293 288.5 -334.5 c 128,-1,3
 249 -376 249 -376 249 -431 c 0,4,5
 249 -459 249 -459 263.5 -477.5 c 128,-1,6
 278 -496 278 -496 315 -496 c 0,7,8
 343 -496 343 -496 362 -489 c 128,-1,9
 381 -482 381 -482 394 -475 c 1,10,-1
 425 -628 l 1,11,12
 400 -643 400 -643 360.5 -657.5 c 128,-1,13
 321 -672 321 -672 260 -672 c 0,14,15
 166 -672 166 -672 100 -619.5 c 128,-1,16
 34 -567 34 -567 34 -466 c 0,17,18
 34 -391 34 -391 81 -320 c 128,-1,19
 128 -249 128 -249 253 -191 c 1,0,-1
EndSplineSet
EndChar

StartChar: ohorn
Encoding: 417 417 518
Width: 1190
VWidth: 1798
GlyphClass: 2
Flags: W
AnchorPoint: "Anchor-1" 502 -250 basechar 0
AnchorPoint: "Anchor-0" 582 1040 basechar 0
LayerCount: 2
Fore
SplineSet
64 280 m 2,0,-1
 64 301 l 2,1,2
 64 459 64 459 124 583.5 c 128,-1,3
 184 708 184 708 298.5 780 c 128,-1,4
 413 852 413 852 576 852 c 0,5,6
 697 852 697 852 791.5 811.5 c 128,-1,7
 886 771 886 771 952 699 c 1,8,9
 1000 728 1000 728 1016.5 789 c 128,-1,10
 1033 850 1033 850 1033 935 c 1,11,-1
 1205 935 l 1,12,13
 1205 806 1205 806 1163 716.5 c 128,-1,14
 1121 627 1121 627 1028 586 c 1,15,16
 1089 461 1089 461 1089 301 c 2,17,-1
 1089 280 l 2,18,19
 1089 123 1089 123 1029 -1.5 c 128,-1,20
 969 -126 969 -126 855 -198 c 128,-1,21
 741 -270 741 -270 578 -270 c 0,22,23
 414 -270 414 -270 299 -198 c 128,-1,24
 184 -126 184 -126 124 -1.5 c 128,-1,25
 64 123 64 123 64 280 c 2,0,-1
352 301 m 2,26,-1
 352 280 l 2,27,28
 352 190 352 190 374 116.5 c 128,-1,29
 396 43 396 43 446 -1 c 128,-1,30
 496 -45 496 -45 578 -45 c 0,31,32
 659 -45 659 -45 707.5 -1 c 128,-1,33
 756 43 756 43 778 116.5 c 128,-1,34
 800 190 800 190 800 280 c 2,35,-1
 800 301 l 2,36,37
 800 389 800 389 778 463 c 128,-1,38
 756 537 756 537 707 582 c 128,-1,39
 658 627 658 627 576 627 c 0,40,41
 495 627 495 627 446 582 c 128,-1,42
 397 537 397 537 374.5 463 c 128,-1,43
 352 389 352 389 352 301 c 2,26,-1
EndSplineSet
EndChar

StartChar: one
Encoding: 49 49 521
Width: 1175
VWidth: 1798
GlyphClass: 2
Flags: W
LayerCount: 2
Fore
SplineSet
801 1209 m 1,0,-1
 801 -250 l 1,1,-1
 514 -250 l 1,2,-1
 514 877 l 1,3,-1
 168 767 l 1,4,-1
 168 994 l 1,5,-1
 771 1209 l 1,6,-1
 801 1209 l 1,0,-1
EndSplineSet
Substitution2: "'ss01' Style Set 1 lookup 35 subtable" uni06F1
Substitution2: "'numr' Numerators lookup 21 subtable" onesuperior
Substitution2: "'dnom' Denominators lookup 20 subtable" one.sup
Substitution2: "'frac' Diagonal Fractions lookup 19 subtable" onesuperior
Substitution2: "Single Substitution lookup 18 subtable" one.sup
Substitution2: "'onum' Oldstyle Figures lookup 14 subtable" one.tnum
Substitution2: "'c2sc' Capitals to Small Capitals lookup 0 subtable" one.smcp
Position2: "'cpsp' Capital Spacing lookup 0 subtable" dx=36 dy=0 dh=72 dv=0
EndChar

StartChar: one.onum
Encoding: 65756 -1 522
Width: 1135
GlyphClass: 1
Flags: W
LayerCount: 2
Fore
SplineSet
774 1164 m 1,0,-1
 774 0 l 1,1,-1
 486 0 l 1,2,-1
 486 833 l 1,3,-1
 142 722 l 1,4,-1
 142 949 l 1,5,-1
 743 1164 l 1,6,-1
 774 1164 l 1,0,-1
EndSplineSet
EndChar

StartChar: one.smcp
Encoding: 65757 -1 523
Width: 1064
GlyphClass: 2
Flags: W
LayerCount: 2
Fore
SplineSet
742 1163 m 1,0,-1
 742 0 l 1,1,-1
 454 0 l 1,2,-1
 454 837 l 1,3,-1
 150 766 l 1,4,-1
 150 983 l 1,5,-1
 714 1163 l 1,6,-1
 742 1163 l 1,0,-1
EndSplineSet
EndChar

StartChar: one.sup
Encoding: 65758 -1 524
Width: 763
GlyphClass: 2
Flags: W
LayerCount: 2
Fore
SplineSet
528 787 m 1,0,-1
 528 0 l 1,1,-1
 325 0 l 1,2,-1
 325 555 l 1,3,-1
 137 512 l 1,4,-1
 137 667 l 1,5,-1
 509 787 l 1,6,-1
 528 787 l 1,0,-1
EndSplineSet
EndChar

StartChar: onesuperior
Encoding: 185 185 529
Width: 763
VWidth: 1798
GlyphClass: 2
Flags: W
LayerCount: 2
Fore
SplineSet
528 1204 m 1,0,-1
 528 417 l 1,1,-1
 325 417 l 1,2,-1
 325 972 l 1,3,-1
 137 929 l 1,4,-1
 137 1084 l 1,5,-1
 509 1204 l 1,6,-1
 528 1204 l 1,0,-1
EndSplineSet
EndChar

StartChar: ordfeminine
Encoding: 170 170 530
Width: 909
VWidth: 1798
GlyphClass: 2
Flags: W
LayerCount: 2
Fore
SplineSet
607 455 m 1,0,1
 596 488 596 488 590 525 c 1,2,3
 559 491 559 491 508.5 466 c 128,-1,4
 458 441 458 441 387 441 c 0,5,6
 267 441 267 441 202.5 503.5 c 128,-1,7
 138 566 138 566 138 669 c 0,8,9
 138 779 138 779 222.5 839.5 c 128,-1,10
 307 900 307 900 479 900 c 2,11,-1
 583 900 l 1,12,-1
 583 951 l 2,13,14
 583 1081 583 1081 464 1081 c 0,15,16
 398 1081 398 1081 360.5 1055 c 128,-1,17
 323 1029 323 1029 323 980 c 1,18,-1
 154 993 l 1,19,20
 154 1094 154 1094 239 1160 c 128,-1,21
 324 1226 324 1226 464 1226 c 0,22,23
 595 1226 595 1226 674.5 1156.5 c 128,-1,24
 754 1087 754 1087 754 950 c 2,25,-1
 754 636 l 2,26,27
 754 587 754 587 760 543 c 128,-1,28
 766 499 766 499 780 455 c 1,29,-1
 607 455 l 1,0,1
429 583 m 0,30,31
 471 583 471 583 513.5 602 c 128,-1,32
 556 621 556 621 583 647 c 1,33,-1
 583 785 l 1,34,-1
 480 785 l 2,35,36
 392 785 392 785 350.5 751 c 128,-1,37
 309 717 309 717 309 673 c 0,38,39
 309 583 309 583 429 583 c 0,30,31
EndSplineSet
EndChar

StartChar: ordmasculine
Encoding: 186 186 531
Width: 937
VWidth: 1798
GlyphClass: 2
Flags: W
LayerCount: 2
Fore
SplineSet
120 794 m 2,0,-1
 120 872 l 2,1,2
 120 1027 120 1027 213 1126.5 c 128,-1,3
 306 1226 306 1226 464 1226 c 0,4,5
 625 1226 625 1226 717.5 1126.5 c 128,-1,6
 810 1027 810 1027 810 872 c 2,7,-1
 810 794 l 2,8,9
 810 639 810 639 717.5 539.5 c 128,-1,10
 625 440 625 440 466 440 c 0,11,12
 306 440 306 440 213 539.5 c 128,-1,13
 120 639 120 639 120 794 c 2,0,-1
291 872 m 2,14,-1
 291 794 l 2,15,16
 291 704 291 704 334 644 c 128,-1,17
 377 584 377 584 466 584 c 0,18,19
 553 584 553 584 596 644 c 128,-1,20
 639 704 639 704 639 794 c 2,21,-1
 639 872 l 2,22,23
 639 961 639 961 596 1021 c 128,-1,24
 553 1081 553 1081 464 1081 c 0,25,26
 376 1081 376 1081 333.5 1021 c 128,-1,27
 291 961 291 961 291 872 c 2,14,-1
EndSplineSet
EndChar

StartChar: oslash
Encoding: 248 248 532
Width: 1155
VWidth: 1798
GlyphClass: 2
Flags: W
AnchorPoint: "Anchor-0" 537 1039 basechar 0
LayerCount: 2
Fore
SplineSet
66 280 m 2,0,-1
 66 301 l 2,1,2
 66 459 66 459 126 583.5 c 128,-1,3
 186 708 186 708 300 780 c 128,-1,4
 414 852 414 852 577 852 c 0,5,6
 678 852 678 852 763 823 c 1,7,-1
 833 966 l 1,8,-1
 992 966 l 1,9,-1
 890 756 l 1,10,11
 988 683 988 683 1039 565 c 128,-1,12
 1090 447 1090 447 1090 301 c 2,13,-1
 1090 280 l 2,14,15
 1090 123 1090 123 1030.5 -1.5 c 128,-1,16
 971 -126 971 -126 857 -198 c 128,-1,17
 743 -270 743 -270 579 -270 c 0,18,19
 483 -270 483 -270 401 -244 c 1,20,-1
 329 -392 l 1,21,-1
 170 -392 l 1,22,-1
 274 -180 l 1,23,24
 172 -107 172 -107 119 12.5 c 128,-1,25
 66 132 66 132 66 280 c 2,0,-1
354 301 m 2,26,-1
 354 280 l 2,27,28
 354 219 354 219 363.5 165 c 128,-1,29
 373 111 373 111 395 68 c 1,30,-1
 660 611 l 1,31,32
 623 627 623 627 577 627 c 0,33,34
 496 627 496 627 447 582 c 128,-1,35
 398 537 398 537 376 463 c 128,-1,36
 354 389 354 389 354 301 c 2,26,-1
802 301 m 2,37,38
 802 357 802 357 793.5 408.5 c 128,-1,39
 785 460 785 460 766 502 c 1,40,-1
 504 -33 l 1,41,42
 538 -45 538 -45 579 -45 c 0,43,44
 660 -45 660 -45 709 -1 c 128,-1,45
 758 43 758 43 780 116.5 c 128,-1,46
 802 190 802 190 802 280 c 2,47,-1
 802 301 l 2,37,38
EndSplineSet
Substitution2: "'unic' Unicase lookup 2 subtable" Oslash
Substitution2: "'smcp' Lowercase to Small Capitals lookup 1 subtable" Oslash.smcp
EndChar

StartChar: p
Encoding: 112 112 535
Width: 1152
VWidth: 1798
GlyphClass: 2
Flags: W
AnchorPoint: "Anchor-1" 231 -657 basechar 0
AnchorPoint: "Anchor-0" 629 1030 basechar 0
LayerCount: 2
Fore
SplineSet
1085 303 m 2,0,-1
 1085 282 l 2,1,2
 1085 124 1085 124 1036.5 -1 c 128,-1,3
 988 -126 988 -126 894.5 -198 c 128,-1,4
 801 -270 801 -270 665 -270 c 0,5,6
 579 -270 579 -270 513.5 -239.5 c 128,-1,7
 448 -209 448 -209 400 -155 c 1,8,-1
 400 -666 l 1,9,-1
 112 -666 l 1,10,-1
 112 832 l 1,11,-1
 379 832 l 1,12,-1
 390 726 l 1,13,14
 439 786 439 786 506.5 819 c 128,-1,15
 574 852 574 852 663 852 c 0,16,17
 801 852 801 852 895 783.5 c 128,-1,18
 989 715 989 715 1037 591.5 c 128,-1,19
 1085 468 1085 468 1085 303 c 2,0,-1
797 282 m 2,20,-1
 797 303 l 2,21,22
 797 440 797 440 749.5 533 c 128,-1,23
 702 626 702 626 589 626 c 0,24,25
 517 626 517 626 471 597.5 c 128,-1,26
 425 569 425 569 400 517 c 1,27,-1
 400 67 l 1,28,29
 425 15 425 15 471.5 -15 c 128,-1,30
 518 -45 518 -45 591 -45 c 0,31,32
 666 -45 666 -45 711 -0.5 c 128,-1,33
 756 44 756 44 776.5 118.5 c 128,-1,34
 797 193 797 193 797 282 c 2,20,-1
EndSplineSet
Substitution2: "'unic' Unicase lookup 2 subtable" P
Substitution2: "'smcp' Lowercase to Small Capitals lookup 1 subtable" P.smcp
EndChar

StartChar: paragraph
Encoding: 182 182 536
Width: 1001
VWidth: 1798
GlyphClass: 2
Flags: W
LayerCount: 2
Fore
SplineSet
869 -250 m 1,0,-1
 654 -250 l 1,1,-1
 654 270 l 1,2,-1
 569 270 l 2,3,4
 410 270 410 270 300.5 330.5 c 128,-1,5
 191 391 191 391 134 497 c 128,-1,6
 77 603 77 603 77 738 c 0,7,8
 77 872 77 872 134 978 c 128,-1,9
 191 1084 191 1084 300.5 1145 c 128,-1,10
 410 1206 410 1206 569 1206 c 2,11,-1
 869 1206 l 1,12,-1
 869 -250 l 1,0,-1
EndSplineSet
EndChar

StartChar: parenleft
Encoding: 40 40 537
Width: 720
VWidth: 1798
GlyphClass: 2
Flags: W
LayerCount: 2
Fore
SplineSet
371 342 m 256,0,1
 371 165 371 165 405.5 -6.5 c 128,-1,2
 440 -178 440 -178 509.5 -316.5 c 128,-1,3
 579 -455 579 -455 683 -533 c 1,4,-1
 627 -685 l 1,5,6
 475 -614 475 -614 363.5 -460 c 128,-1,7
 252 -306 252 -306 191.5 -98.5 c 128,-1,8
 131 109 131 109 131 338 c 0,9,10
 131 510 131 510 165.5 671.5 c 128,-1,11
 200 833 200 833 264.5 971.5 c 128,-1,12
 329 1110 329 1110 421 1212.5 c 128,-1,13
 513 1315 513 1315 627 1368 c 1,14,-1
 683 1216 l 1,15,16
 579 1138 579 1138 509.5 1000 c 128,-1,17
 440 862 440 862 405.5 690.5 c 128,-1,18
 371 519 371 519 371 342 c 256,0,1
EndSplineSet
Position2: "Single Positioning lookup 9 subtable" dx=0 dy=0 dh=80 dv=0
Position2: "Single Positioning lookup 8 subtable" dx=0 dy=0 dh=160 dv=0
EndChar

StartChar: parenright
Encoding: 41 41 538
Width: 720
VWidth: 1798
GlyphClass: 2
Flags: W
LayerCount: 2
Fore
SplineSet
349 342 m 256,0,1
 349 519 349 519 315 690.5 c 128,-1,2
 281 862 281 862 212 1000 c 128,-1,3
 143 1138 143 1138 38 1216 c 1,4,-1
 93 1368 l 1,5,6
 207 1315 207 1315 299 1213 c 128,-1,7
 391 1111 391 1111 455.5 973.5 c 128,-1,8
 520 836 520 836 554.5 675 c 128,-1,9
 589 514 589 514 589 342 c 256,10,11
 589 170 589 170 554.5 8.5 c 128,-1,12
 520 -153 520 -153 455.5 -290.5 c 128,-1,13
 391 -428 391 -428 299 -530 c 128,-1,14
 207 -632 207 -632 93 -685 c 1,15,-1
 38 -533 l 1,16,17
 143 -455 143 -455 212 -316.5 c 128,-1,18
 281 -178 281 -178 315 -6.5 c 128,-1,19
 349 165 349 165 349 342 c 256,0,1
EndSplineSet
EndChar

